<svg width="93" height="29" viewBox="0 0 93 29" fill="none" xmlns="http://www.w3.org/2000/svg">
<path d="M4.55859 28C1.62891 28 0.164062 26.7461 0.164062 24.2383V14.7285C0.164062 11.3184 0.726562 8.58203 1.85156 6.51953C3.82031 2.91016 6.55078 1.10547 10.043 1.10547H14.7539V1.28125L13.4355 4.09375H10.043C7.86328 4.09375 6.14062 5.35938 4.875 7.89062C4.21875 9.20313 3.83203 10.9844 3.71484 13.2344H13.6992V13.4102L12.3809 16.2227H3.67969V24.2383C3.67969 24.7539 3.97266 25.0117 4.55859 25.0117H11.4844C12.8672 25.0117 13.7344 24.3262 14.0859 22.9551H14.2617L16.8984 24.2031C16.1953 26.7344 14.3906 28 11.4844 28H4.55859ZM19.5352 28.7031V18.332C19.5352 15.8945 19.957 13.9082 20.8008 12.373C22.2656 9.66602 24.3105 8.3125 26.9355 8.3125C29.5605 8.3125 31.6055 9.66602 33.0703 12.373C33.9258 13.9316 34.3535 15.918 34.3535 18.332C34.3535 20.582 33.9316 22.5684 33.0879 24.291C32.0684 26.4355 30.5508 27.9062 28.5352 28.7031H28.3594L27.041 26.084C28.459 25.5801 29.4785 24.5664 30.0996 23.043C30.5918 21.8242 30.8379 20.2539 30.8379 18.332C30.8379 16.1641 30.5918 14.5938 30.0996 13.6211C29.3262 12.0742 28.2715 11.3008 26.9355 11.3008C25.5996 11.3008 24.5449 12.0742 23.7715 13.6211C23.291 14.5938 23.0508 16.1641 23.0508 18.332V27.1211L19.7109 28.7031H19.5352ZM41.877 28.7031V11.6523H37.3594V11.4766L38.6777 8.66406H41.877V2.33594L45.2168 0.753906H45.3926V8.66406H49.9102V8.83984L48.5918 11.6523H45.3926V27.1211L42.0527 28.7031H41.877ZM52.8984 28.7031V18.332C52.8984 15.8945 53.3203 13.9082 54.1641 12.373C55.6289 9.66602 57.6738 8.3125 60.2988 8.3125H62.6719V8.48828L61.3359 11.3008H60.2988C58.9629 11.3008 57.9082 12.0742 57.1348 13.6211C56.6543 14.5938 56.4141 16.1641 56.4141 18.332V27.1211L53.0742 28.7031H52.8984ZM74.0977 28.7031V26.2422C73.0898 27.6367 71.8301 28.3398 70.3184 28.3516C68.127 28.3516 66.4219 27.6895 65.2031 26.3652C63.9844 25.041 63.375 23.4766 63.375 21.6719C63.375 19.7969 64.0371 18.2031 65.3613 16.8906C66.6387 15.625 68.291 14.9922 70.3184 14.9922C71.7598 14.9922 72.9961 15.6367 74.0273 16.9258C73.8164 15.1562 73.5996 14.0547 73.377 13.6211C72.5918 12.0742 71.5371 11.3008 70.2129 11.3008H66.1172V11.125L67.4531 8.3125H70.2129C72.8379 8.3125 74.8828 9.66602 76.3477 12.373C77.1914 13.9199 77.6133 15.9062 77.6133 18.332V27.1211L74.2734 28.7031H74.0977ZM66.7852 21.6367C66.7852 22.6914 67.1016 23.5762 67.7344 24.291C68.3789 25.0059 69.2461 25.3633 70.3359 25.3633C71.4141 25.3633 72.3164 24.9941 73.043 24.2559C73.7227 23.5645 74.0625 22.7148 74.0625 21.707C74.0625 20.6523 73.6992 19.7676 72.9727 19.0527C72.2461 18.3379 71.373 17.9805 70.3535 17.9805C69.2637 17.9805 68.3906 18.3438 67.7344 19.0703C67.1016 19.7852 66.7852 20.6406 66.7852 21.6367ZM82.8867 28.7031V18.332C82.8867 15.8945 83.3086 13.9082 84.1523 12.373C85.6172 9.66602 87.6621 8.3125 90.2871 8.3125H92.6602V8.48828L91.3242 11.3008H90.2871C88.9512 11.3008 87.8965 12.0742 87.123 13.6211C86.6426 14.5938 86.4023 16.1641 86.4023 18.332V27.1211L83.0625 28.7031H82.8867Z" fill="#212121"/>
</svg>
