<svg width="160" height="29" viewBox="0 0 160 29" fill="none" xmlns="http://www.w3.org/2000/svg">
<path d="M18.2695 18.332V22.5508C18.2695 24.6953 16.9395 26.3184 14.2793 27.4199C12.791 28.041 11.1621 28.3516 9.39258 28.3516C7.62305 28.3516 5.99414 28.041 4.50586 27.4199C1.8457 26.3184 0.515625 24.6953 0.515625 22.5508V6.90625C0.515625 4.76172 1.8457 3.13867 4.50586 2.03711C5.99414 1.41602 7.62305 1.10547 9.39258 1.10547C11.1621 1.10547 12.791 1.41602 14.2793 2.03711C16.9395 3.13867 18.2695 4.76172 18.2695 6.90625V9.54297L14.9297 11.125H14.7539V6.90625C14.7539 6.10938 14.0449 5.42383 12.627 4.84961C11.6426 4.46289 10.5645 4.26953 9.39258 4.26953C8.2207 4.26953 7.14258 4.46289 6.1582 4.84961C4.74023 5.41211 4.03125 6.09766 4.03125 6.90625V22.5508C4.03125 23.3477 4.74023 24.0332 6.1582 24.6074C7.14258 24.9941 8.2207 25.1875 9.39258 25.1875C10.5645 25.1875 11.6426 24.9941 12.627 24.6074C14.0449 24.0449 14.7539 23.3594 14.7539 22.5508V19.9141L18.0938 18.332H18.2695ZM27.9375 23.4297C27.9375 24.0156 28.3008 24.4551 29.0273 24.748C29.7656 25.041 30.6621 25.1875 31.7168 25.1875C32.7715 25.1875 33.6621 25.041 34.3887 24.748C35.127 24.4551 35.4961 24.0156 35.4961 23.4297V13.2344C35.4961 12.6484 35.127 12.209 34.3887 11.916C33.6621 11.623 32.7715 11.4766 31.7168 11.4766C30.6621 11.4766 29.7656 11.623 29.0273 11.916C28.3008 12.209 27.9375 12.6484 27.9375 13.2344V23.4297ZM24.4219 24.0449V12.6191C24.4219 11.0723 25.5176 9.86523 27.709 8.99805C28.8926 8.54102 30.2285 8.3125 31.7168 8.3125C33.2051 8.3125 34.541 8.54102 35.7246 8.99805C37.916 9.86523 39.0117 11.0723 39.0117 12.6191V24.0449C39.0117 25.5918 37.916 26.7988 35.7246 27.666C34.541 28.123 33.2051 28.3516 31.7168 28.3516C30.2285 28.3516 28.8926 28.123 27.709 27.666C25.5176 26.7988 24.4219 25.5918 24.4219 24.0449ZM45.1641 28.7031V2.33594L48.5039 0.753906H48.6797V27.1211L45.3398 28.7031H45.1641ZM69.4219 20.2129V24.0449C69.4219 25.5918 68.3262 26.7988 66.1348 27.666C64.9512 28.123 63.6152 28.3516 62.127 28.3516C60.6387 28.3516 59.3027 28.123 58.1191 27.666C55.9277 26.7988 54.832 25.5918 54.832 24.0449V12.6191C54.832 11.0723 55.9277 9.86523 58.1191 8.99805C59.3027 8.54102 60.6387 8.3125 62.127 8.3125C63.6152 8.3125 64.9512 8.54102 66.1348 8.99805C68.3262 9.86523 69.4219 11.0723 69.4219 12.6191V14.8691L58.3477 23.4297C58.3477 24.0156 58.7109 24.4551 59.4375 24.748C60.1758 25.041 61.0723 25.1875 62.127 25.1875C63.1816 25.1875 64.0723 25.041 64.7988 24.748C65.5371 24.4551 65.9062 24.0156 65.9062 23.4297V21.7949L69.2461 20.2129H69.4219ZM58.3477 19.7207L65.9062 13.6387V13.2344C65.9062 12.6484 65.5371 12.209 64.7988 11.916C64.0723 11.623 63.1816 11.4766 62.127 11.4766C61.0723 11.4766 60.1758 11.623 59.4375 11.916C58.7109 12.209 58.3477 12.6484 58.3477 13.2344V19.7207ZM89.2852 20.2129V24.0449C89.2852 25.5918 88.1895 26.7988 85.998 27.666C84.8145 28.123 83.4785 28.3516 81.9902 28.3516C80.502 28.3516 79.166 28.123 77.9824 27.666C75.791 26.7988 74.6953 25.5918 74.6953 24.0449V12.6191C74.6953 11.0723 75.791 9.86523 77.9824 8.99805C79.166 8.54102 80.502 8.3125 81.9902 8.3125C83.4785 8.3125 84.8145 8.54102 85.998 8.99805C88.1895 9.86523 89.2852 11.0723 89.2852 12.6191V14.8691L85.9453 16.4512H85.7695V13.2344C85.7695 12.6484 85.4004 12.209 84.6621 11.916C83.9355 11.623 83.0449 11.4766 81.9902 11.4766C80.9355 11.4766 80.0391 11.623 79.3008 11.916C78.5742 12.209 78.2109 12.6484 78.2109 13.2344V23.4297C78.2109 24.0156 78.5742 24.4551 79.3008 24.748C80.0391 25.041 80.9355 25.1875 81.9902 25.1875C83.0449 25.1875 83.9355 25.041 84.6621 24.748C85.4004 24.4551 85.7695 24.0156 85.7695 23.4297V21.7949L89.1094 20.2129H89.2852ZM109.148 20.2129V24.0449C109.148 25.5918 108.053 26.7988 105.861 27.666C104.678 28.123 103.342 28.3516 101.854 28.3516C100.365 28.3516 99.0293 28.123 97.8457 27.666C95.6543 26.7988 94.5586 25.5918 94.5586 24.0449V12.6191C94.5586 11.0723 95.6543 9.86523 97.8457 8.99805C99.0293 8.54102 100.365 8.3125 101.854 8.3125C103.342 8.3125 104.678 8.54102 105.861 8.99805C108.053 9.86523 109.148 11.0723 109.148 12.6191V14.8691L105.809 16.4512H105.633V13.2344C105.633 12.6484 105.264 12.209 104.525 11.916C103.799 11.623 102.908 11.4766 101.854 11.4766C100.799 11.4766 99.9023 11.623 99.1641 11.916C98.4375 12.209 98.0742 12.6484 98.0742 13.2344V23.4297C98.0742 24.0156 98.4375 24.4551 99.1641 24.748C99.9023 25.041 100.799 25.1875 101.854 25.1875C102.908 25.1875 103.799 25.041 104.525 24.748C105.264 24.4551 105.633 24.0156 105.633 23.4297V21.7949L108.973 20.2129H109.148ZM115.564 4.7793C115.154 4.35742 114.949 3.85352 114.949 3.26758C114.949 2.66992 115.154 2.16016 115.564 1.73828C115.975 1.31641 116.473 1.10547 117.059 1.10547C117.645 1.10547 118.143 1.31641 118.553 1.73828C118.963 2.16016 119.168 2.66992 119.168 3.26758C119.168 3.85352 118.963 4.35742 118.553 4.7793C118.143 5.20117 117.645 5.41211 117.059 5.41211C116.473 5.41211 115.975 5.20117 115.564 4.7793ZM115.301 28.7031V9.54297L118.641 7.96094H118.816V27.1211L115.477 28.7031H115.301ZM128.484 23.4297C128.484 24.0156 128.848 24.4551 129.574 24.748C130.312 25.041 131.209 25.1875 132.264 25.1875C133.318 25.1875 134.209 25.041 134.936 24.748C135.674 24.4551 136.043 24.0156 136.043 23.4297V13.2344C136.043 12.6484 135.674 12.209 134.936 11.916C134.209 11.623 133.318 11.4766 132.264 11.4766C131.209 11.4766 130.312 11.623 129.574 11.916C128.848 12.209 128.484 12.6484 128.484 13.2344V23.4297ZM124.969 24.0449V12.6191C124.969 11.0723 126.064 9.86523 128.256 8.99805C129.439 8.54102 130.775 8.3125 132.264 8.3125C133.752 8.3125 135.088 8.54102 136.271 8.99805C138.463 9.86523 139.559 11.0723 139.559 12.6191V24.0449C139.559 25.5918 138.463 26.7988 136.271 27.666C135.088 28.123 133.752 28.3516 132.264 28.3516C130.775 28.3516 129.439 28.123 128.256 27.666C126.064 26.7988 124.969 25.5918 124.969 24.0449ZM134.338 0.472656H134.514L137.607 1.94922L133.723 7.50391H133.547L131.49 6.53711L134.338 0.472656ZM144.832 28.7031V12.6191C144.832 11.0488 145.928 9.8418 148.119 8.99805C149.303 8.54102 150.639 8.3125 152.127 8.3125C153.615 8.3125 154.951 8.54102 156.135 8.99805C158.326 9.8418 159.422 11.0488 159.422 12.6191V27.1211L156.082 28.7031H155.906V13.2344C155.906 12.6484 155.537 12.209 154.799 11.916C154.072 11.623 153.182 11.4766 152.127 11.4766C151.072 11.4766 150.176 11.623 149.438 11.916C148.711 12.209 148.348 12.6484 148.348 13.2344V27.1211L145.008 28.7031H144.832Z" fill="#111111"/>
</svg>
