<svg width="33" height="33" viewBox="0 0 33 33" fill="none" xmlns="http://www.w3.org/2000/svg">
<path fill-rule="evenodd" clip-rule="evenodd" d="M16.5 33C7.3873 33 0 25.6127 0 16.5C0 7.3873 7.3873 0 16.5 0C25.6127 0 33 7.3873 33 16.5C33 25.6127 25.6127 33 16.5 33ZM16.5 30C9.04416 30 3 23.9558 3 16.5C3 9.04416 9.04416 3 16.5 3C23.9558 3 30 9.04416 30 16.5C30 23.9558 23.9558 30 16.5 30Z" fill="url(#paint0_linear_74_642)"/>
<path fill-rule="evenodd" clip-rule="evenodd" d="M10.25 7.40674C10.25 6.63693 11.0833 6.15581 11.75 6.54071L27.5 15.634C28.1667 16.0189 28.1667 16.9811 27.5 17.366L11.75 26.4593C11.0833 26.8442 10.25 26.3631 10.25 25.5933V24.1905C10.25 23.8332 10.4406 23.5031 10.75 23.3245L21.141 17.3252C21.8076 16.9403 21.8076 15.9781 21.141 15.5932L10.75 9.59393C10.4406 9.4153 10.25 9.08517 10.25 8.72791V7.40674Z" fill="#228683"/>
<defs>
<linearGradient id="paint0_linear_74_642" x1="16.5" y1="0" x2="16.5" y2="33" gradientUnits="userSpaceOnUse">
<stop offset="0.345" stop-color="#17193D"/>
<stop offset="1" stop-color="#268574"/>
</linearGradient>
</defs>
</svg>
