<svg width="33" height="33" viewBox="0 0 33 33" fill="none" xmlns="http://www.w3.org/2000/svg">
<g opacity="0.66">
<path fill-rule="evenodd" clip-rule="evenodd" d="M16.5 33C25.6127 33 33 25.6127 33 16.5C33 7.3873 25.6127 0 16.5 0C7.3873 0 0 7.3873 0 16.5C0 25.6127 7.3873 33 16.5 33ZM16.5 30C23.9558 30 30 23.9558 30 16.5C30 9.04416 23.9558 3 16.5 3C9.04416 3 3 9.04416 3 16.5C3 23.9558 9.04416 30 16.5 30Z" fill="url(#paint0_linear_74_635)"/>
<path fill-rule="evenodd" clip-rule="evenodd" d="M22.75 7.40674C22.75 6.63693 21.9167 6.15581 21.25 6.54071L5.5 15.634C4.83333 16.0189 4.83333 16.9811 5.5 17.366L21.25 26.4593C21.9167 26.8442 22.75 26.3631 22.75 25.5933V24.1905C22.75 23.8332 22.5594 23.5031 22.25 23.3245L11.859 17.3252C11.1924 16.9403 11.1924 15.9781 11.859 15.5932L22.25 9.59393C22.5594 9.4153 22.75 9.08517 22.75 8.72791V7.40674Z" fill="#1FB399"/>
</g>
<defs>
<linearGradient id="paint0_linear_74_635" x1="16.5" y1="0" x2="16.5" y2="33" gradientUnits="userSpaceOnUse">
<stop offset="0.35" stop-color="#0D0D30"/>
<stop offset="1" stop-color="#268A78"/>
</linearGradient>
</defs>
</svg>
