<svg width="288" height="51" viewBox="0 0 288 51" fill="none" xmlns="http://www.w3.org/2000/svg">
<path d="M89.2119 32.6542C87.3005 37.0104 75.9809 36.2679 63.9289 30.9958C51.8768 25.7237 43.6563 17.9183 45.5677 13.5621C47.4792 9.20588 60.4333 7.40896 72.4853 12.6811C84.5373 17.9532 91.1234 28.298 89.2119 32.6542Z" fill="#295766"/>
<path d="M83.2002 21.9935C83.699 20.8568 83.8604 19.5858 83.6752 18.253C83.49 16.9203 82.9619 15.5519 82.1209 14.226C81.28 12.9 80.1427 11.6426 78.7741 10.5254C77.4054 9.40816 75.8321 8.45307 74.1441 7.71465C72.4561 6.97622 70.6863 6.46891 68.9359 6.2217C67.1855 5.97448 65.4887 5.99219 63.9424 6.27381C62.3961 6.55544 61.0306 7.09546 59.9238 7.86305C58.8171 8.63065 58.0158 9.55357 57.4919 10.7475L59.4905 12.6891C59.4905 12.6891 61.8465 14.2276 63.4136 15.1168C65.6326 16.3759 69.2613 18.0306 69.2613 18.0306C69.2613 18.0306 73.2947 19.7574 75.9688 20.609C77.686 21.1559 80.4158 21.8428 80.4158 21.8428L83.2002 21.9935Z" fill="#343232"/>
<path d="M83.4622 21.3966C83.9609 20.2599 84.1223 18.9889 83.9372 17.6561C83.752 16.3233 83.2238 14.9549 82.3829 13.629C81.542 12.3031 80.4047 11.0456 79.036 9.92842C77.6674 8.81121 76.0941 7.85612 74.4061 7.1177C72.7181 6.37927 70.9483 5.87197 69.1979 5.62475C67.4475 5.37753 65.7507 5.39524 64.2044 5.67686C62.6581 5.95849 61.2926 6.49851 60.1858 7.26611C59.079 8.0337 58.2778 8.95662 57.7539 10.1505L59.7525 12.0921C59.7525 12.0921 62.1085 13.6306 63.6756 14.5198C65.8946 15.7789 69.5233 17.4337 69.5233 17.4337C69.5233 17.4337 73.5567 19.1605 76.2308 20.0121C77.948 20.5589 80.6778 21.2459 80.6778 21.2459L83.4622 21.3966Z" fill="#6FD6C3" fill-opacity="0.65"/>
<path d="M55.8064 17.8371C55.5895 18.3317 54.8782 18.4984 54.2178 18.2095C53.5574 17.9206 53.198 17.2855 53.415 16.791C53.632 16.2965 54.3432 16.1297 55.0036 16.4186C55.664 16.7075 56.0234 17.3426 55.8064 17.8371Z" fill="#D9D9D9"/>
<path d="M63.3909 23.2894C63.1739 23.784 62.4626 23.9507 61.8022 23.6618C61.1418 23.3729 60.7824 22.7378 60.9994 22.2433C61.2164 21.7487 61.9277 21.582 62.588 21.8709C63.2484 22.1598 63.6079 22.7949 63.3909 23.2894Z" fill="#D9D9D9"/>
<path d="M81.5147 29.083C81.2977 29.5775 80.5865 29.7443 79.9261 29.4554C79.2657 29.1665 78.9063 28.5314 79.1233 28.0369C79.3402 27.5423 80.0515 27.3756 80.7119 27.6645C81.3723 27.9534 81.7317 28.5885 81.5147 29.083Z" fill="#D9D9D9"/>
<path d="M72.3588 27.2124C72.1418 27.7069 71.4305 27.8736 70.7702 27.5847C70.1098 27.2958 69.7503 26.6608 69.9673 26.1662C70.1843 25.6717 70.8956 25.505 71.556 25.7939C72.2164 26.0827 72.5758 26.7178 72.3588 27.2124Z" fill="#D9D9D9"/>
<path d="M80.9075 15.5194C80.4725 15.7965 79.6084 15.2205 78.9775 14.2329C78.3466 13.2454 78.1878 12.2202 78.6228 11.9432C79.0578 11.6661 79.9219 12.2421 80.5528 13.2297C81.1837 14.2172 81.3425 15.2424 80.9075 15.5194Z" fill="white"/>
<path d="M28.6057 11.0342C27.6539 9.20393 26.332 7.83126 24.64 6.91615C22.948 5.96584 20.9916 5.49068 18.7708 5.49068C16.3386 5.49068 14.1707 6.03623 12.2671 7.12733C10.3636 8.21843 8.86547 9.76708 7.77271 11.7733C6.7152 13.7795 6.18644 16.1025 6.18644 18.7422C6.18644 21.382 6.7152 23.7226 7.77271 25.764C8.86547 27.7702 10.3636 29.3188 12.2671 30.4099C14.1707 31.501 16.3386 32.0466 18.7708 32.0466C22.0491 32.0466 24.7105 31.1315 26.755 29.3012C28.7996 27.471 30.0509 24.9896 30.5092 21.8571H16.7087V17.0528H36.96V21.7516C36.5723 24.6025 35.55 27.2246 33.8932 29.618C32.2717 32.0114 30.1391 33.9296 27.4953 35.3727C24.8868 36.7805 21.9786 37.4845 18.7708 37.4845C15.3163 37.4845 12.1614 36.6925 9.3061 35.1087C6.45082 33.4896 4.17717 31.2547 2.48515 28.4037C0.828384 25.5528 0 22.3323 0 18.7422C0 15.1522 0.828384 11.9317 2.48515 9.08075C4.17717 6.22982 6.45082 4.01242 9.3061 2.42857C12.1966 0.809524 15.3515 0 18.7708 0C22.6836 0 26.1558 0.967909 29.1873 2.90373C32.2541 4.80435 34.4749 7.51449 35.8496 11.0342H28.6057Z" fill="#2B2B2B" fill-opacity="0.89"/>
<path d="M133.114 7.60249C135.406 7.60249 137.45 8.07764 139.248 9.02795C141.081 9.97826 142.508 11.3861 143.531 13.2516C144.588 15.117 145.117 17.3696 145.117 20.0093V37.1677H139.142V20.9068C139.142 18.3023 138.49 16.3137 137.186 14.941C135.881 13.5331 134.101 12.8292 131.845 12.8292C129.589 12.8292 127.791 13.5331 126.452 14.941C125.148 16.3137 124.496 18.3023 124.496 20.9068V37.1677H118.521V20.9068C118.521 18.3023 117.868 16.3137 116.564 14.941C115.26 13.5331 113.48 12.8292 111.224 12.8292C108.968 12.8292 107.17 13.5331 105.83 14.941C104.526 16.3137 103.874 18.3023 103.874 20.9068V37.1677H97.8462V8.07764H103.874V11.4037C104.861 10.207 106.112 9.27433 107.628 8.60559C109.144 7.93686 110.766 7.60249 112.493 7.60249C114.819 7.60249 116.899 8.09524 118.732 9.08075C120.565 10.0663 121.975 11.4917 122.962 13.3571C123.843 11.5973 125.218 10.207 127.086 9.18634C128.955 8.13044 130.964 7.60249 133.114 7.60249Z" fill="#2B2B2B" fill-opacity="0.89"/>
<path d="M179.489 21.9099C179.489 23.001 179.419 23.9865 179.278 24.8665H157.017C157.194 27.1894 158.057 29.0549 159.608 30.4627C161.159 31.8706 163.063 32.5745 165.319 32.5745C168.562 32.5745 170.853 31.2195 172.193 28.5093H178.696C177.815 31.1843 176.211 33.3841 173.885 35.1087C171.593 36.7981 168.738 37.6429 165.319 37.6429C162.534 37.6429 160.031 37.0269 157.81 35.795C155.625 34.528 153.898 32.7681 152.629 30.5155C151.395 28.2277 150.778 25.588 150.778 22.5963C150.778 19.6046 151.377 16.9824 152.576 14.7298C153.81 12.442 155.519 10.6822 157.705 9.45031C159.925 8.21843 162.463 7.60249 165.319 7.60249C168.068 7.60249 170.518 8.20083 172.668 9.39752C174.819 10.5942 176.493 12.2836 177.692 14.4658C178.89 16.6128 179.489 19.0942 179.489 21.9099ZM173.197 20.0093C173.162 17.7919 172.369 16.0145 170.818 14.677C169.267 13.3395 167.346 12.6708 165.054 12.6708C162.975 12.6708 161.194 13.3395 159.714 14.677C158.233 15.9793 157.352 17.7567 157.07 20.0093H173.197Z" fill="#2B2B2B" fill-opacity="0.89"/>
<path d="M207.576 29.6708H192.189L189.546 37.1677H183.253L196.42 0.422361H203.399L216.565 37.1677H210.22L207.576 29.6708ZM205.884 24.7609L199.909 7.70808L193.881 24.7609H205.884Z" fill="#2B2B2B" fill-opacity="0.89"/>
<path d="M228.318 12.354C229.34 11.0166 230.732 9.89027 232.495 8.97516C234.257 8.06004 236.249 7.60249 238.47 7.60249C241.008 7.60249 243.317 8.23603 245.396 9.50311C247.511 10.735 249.168 12.4772 250.367 14.7298C251.565 16.9824 252.164 19.5694 252.164 22.4907C252.164 25.412 251.565 28.0342 250.367 30.3571C249.168 32.6449 247.511 34.44 245.396 35.7422C243.317 37.0093 241.008 37.6429 238.47 37.6429C236.249 37.6429 234.275 37.2029 232.548 36.323C230.82 35.4079 229.41 34.2816 228.318 32.9441V51H222.29V8.07764H228.318V12.354ZM246.031 22.4907C246.031 20.4845 245.608 18.7598 244.762 17.3168C243.951 15.8385 242.858 14.7298 241.484 13.9907C240.144 13.2164 238.699 12.8292 237.148 12.8292C235.632 12.8292 234.187 13.2164 232.812 13.9907C231.472 14.765 230.38 15.8913 229.534 17.3696C228.723 18.8478 228.318 20.5901 228.318 22.5963C228.318 24.6025 228.723 26.3623 229.534 27.8758C230.38 29.354 231.472 30.4803 232.812 31.2547C234.187 32.029 235.632 32.4161 237.148 32.4161C238.699 32.4161 240.144 32.029 241.484 31.2547C242.858 30.4451 243.951 29.2836 244.762 27.7702C245.608 26.2567 246.031 24.4969 246.031 22.4907Z" fill="#2B2B2B" fill-opacity="0.89"/>
<path d="M264.153 12.354C265.175 11.0166 266.568 9.89027 268.33 8.97516C270.093 8.06004 272.084 7.60249 274.305 7.60249C276.843 7.60249 279.152 8.23603 281.232 9.50311C283.347 10.735 285.004 12.4772 286.202 14.7298C287.401 16.9824 288 19.5694 288 22.4907C288 25.412 287.401 28.0342 286.202 30.3571C285.004 32.6449 283.347 34.44 281.232 35.7422C279.152 37.0093 276.843 37.6429 274.305 37.6429C272.084 37.6429 270.11 37.2029 268.383 36.323C266.656 35.4079 265.246 34.2816 264.153 32.9441V51H258.125V8.07764H264.153V12.354ZM281.866 22.4907C281.866 20.4845 281.443 18.7598 280.597 17.3168C279.787 15.8385 278.694 14.7298 277.319 13.9907C275.98 13.2164 274.534 12.8292 272.983 12.8292C271.468 12.8292 270.022 13.2164 268.648 13.9907C267.308 14.765 266.215 15.8913 265.369 17.3696C264.558 18.8478 264.153 20.5901 264.153 22.5963C264.153 24.6025 264.558 26.3623 265.369 27.8758C266.215 29.354 267.308 30.4803 268.648 31.2547C270.022 32.029 271.468 32.4161 272.983 32.4161C274.534 32.4161 275.98 32.029 277.319 31.2547C278.694 30.4451 279.787 29.2836 280.597 27.7702C281.443 26.2567 281.866 24.4969 281.866 22.4907Z" fill="#2B2B2B" fill-opacity="0.89"/>
</svg>
