<svg width="109" height="36" viewBox="0 0 109 36" fill="none" xmlns="http://www.w3.org/2000/svg">
<path d="M29.5918 29C27.1504 29 25.9297 27.9551 25.9297 25.8652V7.61328L28.7129 6.29492H28.8594V25.8652C28.8594 26.2949 29.1035 26.5098 29.5918 26.5098H34.6455C35.7979 26.5098 36.5205 25.9385 36.8135 24.7959H36.96L39.1572 25.8359C38.5713 27.9453 37.0674 29 34.6455 29H29.5918ZM42.1602 17.9404C42.1602 20.4502 42.4922 22.3496 43.1562 23.6387C44.2402 25.748 45.6758 26.8027 47.4629 26.8027C49.2695 26.8027 50.7051 25.748 51.7695 23.6387C52.4336 22.3203 52.7656 20.4209 52.7656 17.9404C52.7656 15.46 52.4336 13.5605 51.7695 12.2422C50.7148 10.1328 49.2793 9.07812 47.4629 9.07812C45.6562 9.07812 44.2207 10.1328 43.1562 12.2422C42.4922 13.5605 42.1602 15.46 42.1602 17.9404ZM40.6367 24.7812C39.6992 23.0625 39.2305 20.7822 39.2305 17.9404C39.2305 15.0986 39.6992 12.8184 40.6367 11.0996C42.2773 8.0918 44.5527 6.58789 47.4629 6.58789C50.3828 6.58789 52.6582 8.0918 54.2891 11.0996C55.2266 12.8281 55.6953 15.1084 55.6953 17.9404C55.6953 20.7822 55.2266 23.0625 54.2891 24.7812C52.6582 27.7891 50.3828 29.293 47.4629 29.293C44.5527 29.293 42.2773 27.7891 40.6367 24.7812ZM76.5547 16.6953V17.9404C76.5547 20.7822 76.0859 23.0625 75.1484 24.7812C73.5176 27.7891 71.2422 29.293 68.3223 29.293C65.4121 29.293 63.1367 27.7891 61.4961 24.7812C60.5586 23.0625 60.0898 20.7822 60.0898 17.9404C60.0898 15.0986 60.5586 12.8184 61.4961 11.0996C63.1367 8.0918 65.4121 6.58789 68.3223 6.58789C71.2422 6.58789 73.5176 8.0918 75.1484 11.0996L72.7754 12.2422H72.6289C71.5742 10.1328 70.1387 9.07812 68.3223 9.07812C66.5254 9.07812 65.0898 10.1328 64.0156 12.2422C63.3516 13.5605 63.0195 15.46 63.0195 17.9404C63.0195 20.4502 63.3516 22.3496 64.0156 23.6387C65.0996 25.748 66.5352 26.8027 68.3223 26.8027C70.1289 26.8027 71.5645 25.748 72.6289 23.6387C73.1758 22.5449 73.498 21.0605 73.5957 19.1855H68.0732V19.0391L69.1719 16.6953H76.5547ZM81.6816 29.5859V7.61328L84.4648 6.29492H84.6113V28.2676L81.8281 29.5859H81.6816ZM90.1777 29.5859V17.9404C90.1777 15.0986 90.6465 12.8184 91.584 11.0996C93.2246 8.0918 95.5 6.58789 98.4102 6.58789C101.33 6.58789 103.605 8.0918 105.236 11.0996C106.174 12.8184 106.643 15.0986 106.643 17.9404C106.643 20.7334 106.174 23.0137 105.236 24.7812C103.918 27.2617 102.199 28.8633 100.08 29.5859H99.9336L98.835 27.4033C100.573 26.583 101.867 25.3281 102.717 23.6387C103.381 22.3398 103.713 20.4404 103.713 17.9404C103.713 15.46 103.381 13.5605 102.717 12.2422C101.662 10.1328 100.227 9.07812 98.4102 9.07812C96.5938 9.07812 95.1582 10.1328 94.1035 12.2422C93.4395 13.5605 93.1074 15.46 93.1074 17.9404V28.2676L90.3242 29.5859H90.1777Z" fill="#D49900"/>
<circle cx="8" cy="22" r="8" fill="#D49900"/>
</svg>
