<svg width="55" height="20" viewBox="0 0 55 20" fill="none" xmlns="http://www.w3.org/2000/svg">
<rect width="55" height="20" rx="10" fill="#1B9C85"/>
<path d="M19.744 5.228L16.16 15H13.78L10.196 5.228H12.296L14.984 12.998L17.658 5.228H19.744ZM21.9131 6.32C21.5678 6.32 21.2785 6.21267 21.0451 5.998C20.8211 5.774 20.7091 5.49867 20.7091 5.172C20.7091 4.84533 20.8211 4.57467 21.0451 4.36C21.2785 4.136 21.5678 4.024 21.9131 4.024C22.2585 4.024 22.5431 4.136 22.7671 4.36C23.0005 4.57467 23.1171 4.84533 23.1171 5.172C23.1171 5.49867 23.0005 5.774 22.7671 5.998C22.5431 6.21267 22.2585 6.32 21.9131 6.32ZM22.8791 7.244V15H20.9191V7.244H22.8791ZM32.0256 10.954C32.0256 11.234 32.0069 11.486 31.9696 11.71H26.2996C26.3463 12.27 26.5423 12.7087 26.8876 13.026C27.2329 13.3433 27.6576 13.502 28.1616 13.502C28.8896 13.502 29.4076 13.1893 29.7156 12.564H31.8296C31.6056 13.3107 31.1763 13.9267 30.5416 14.412C29.9069 14.888 29.1276 15.126 28.2036 15.126C27.4569 15.126 26.7849 14.9627 26.1876 14.636C25.5996 14.3 25.1376 13.8287 24.8016 13.222C24.4749 12.6153 24.3116 11.9153 24.3116 11.122C24.3116 10.3193 24.4749 9.61467 24.8016 9.008C25.1283 8.40133 25.5856 7.93467 26.1736 7.608C26.7616 7.28133 27.4383 7.118 28.2036 7.118C28.9409 7.118 29.5989 7.27667 30.1776 7.594C30.7656 7.91133 31.2183 8.364 31.5356 8.952C31.8623 9.53067 32.0256 10.198 32.0256 10.954ZM29.9956 10.394C29.9863 9.89 29.8043 9.48867 29.4496 9.19C29.0949 8.882 28.6609 8.728 28.1476 8.728C27.6623 8.728 27.2516 8.87733 26.9156 9.176C26.5889 9.46533 26.3883 9.87133 26.3136 10.394H29.9956ZM44.2082 7.244L41.9402 15H39.8262L38.4122 9.582L36.9982 15H34.8702L32.5882 7.244H34.5762L35.9482 13.152L37.4322 7.244H39.5042L40.9602 13.138L42.3322 7.244H44.2082Z" fill="white"/>
</svg>
