<svg width="242" height="38" viewBox="0 0 242 38" fill="none" xmlns="http://www.w3.org/2000/svg">
<path d="M0.6875 2.78125L5.14062 0.671875H5.375V29.7344C5.375 30.8125 6.32031 31.7266 8.21094 32.4766C9.52344 32.9922 10.9609 33.25 12.5234 33.25C14.0859 33.25 15.5234 32.9922 16.8359 32.4766C18.7266 31.7266 19.6719 30.8125 19.6719 29.7344V2.78125L24.125 0.671875H24.3594V29.7344C24.3594 30.8125 25.3047 31.7266 27.1953 32.4766C28.5078 32.9922 29.9453 33.25 31.5078 33.25C33.0703 33.25 34.5078 32.9922 35.8203 32.4766C37.7109 31.7266 38.6562 30.8125 38.6562 29.7344V2.78125L43.1094 0.671875H43.3438V29.7344C43.3438 32.5938 41.5703 34.7578 38.0234 36.2266C36.0391 37.0547 33.8672 37.4688 31.5078 37.4688C29.1328 37.4688 26.9609 37.0547 24.9922 36.2266C23.8047 35.7266 22.8125 35.1562 22.0156 34.5156C21.2188 35.1562 20.2266 35.7266 19.0391 36.2266C17.0703 37.0547 14.8984 37.4688 12.5234 37.4688C10.1641 37.4688 7.99219 37.0547 6.00781 36.2266C2.46094 34.7578 0.6875 32.5938 0.6875 29.7344V2.78125ZM52.7188 37V2.78125L55.2031 1.60938H70.0625V1.84375L68.1641 5.875H57.4062V17.1719H70.0625V17.4062L68.1641 21.4375H57.4062V32.7344H73.9766V32.9688L72.0781 37H52.7188ZM79.8594 37V2.78125L84.3125 0.671875H84.5469V32.7344H100.602V32.9688L98.7031 37H79.8594ZM126.266 24.1094V29.7344C126.266 32.5938 124.492 34.7578 120.945 36.2266C118.961 37.0547 116.789 37.4688 114.43 37.4688C112.07 37.4688 109.898 37.0547 107.914 36.2266C104.367 34.7578 102.594 32.5938 102.594 29.7344V8.875C102.594 6.01562 104.367 3.85156 107.914 2.38281C109.898 1.55469 112.07 1.14062 114.43 1.14062C116.789 1.14062 118.961 1.55469 120.945 2.38281C124.492 3.85156 126.266 6.01562 126.266 8.875V12.3906L121.812 14.5H121.578V8.875C121.578 7.8125 120.633 6.89844 118.742 6.13281C117.43 5.61719 115.992 5.35938 114.43 5.35938C112.867 5.35938 111.43 5.61719 110.117 6.13281C108.227 6.88281 107.281 7.79688 107.281 8.875V29.7344C107.281 30.7969 108.227 31.7109 110.117 32.4766C111.43 32.9922 112.867 33.25 114.43 33.25C115.992 33.25 117.43 32.9922 118.742 32.4766C120.633 31.7266 121.578 30.8125 121.578 29.7344V26.2188L126.031 24.1094H126.266ZM140.328 29.7344C140.328 30.7969 141.273 31.7109 143.164 32.4766C144.477 32.9922 145.914 33.25 147.477 33.25C149.039 33.25 150.477 32.9922 151.789 32.4766C153.68 31.7266 154.625 30.8125 154.625 29.7344V8.875C154.625 7.8125 153.68 6.89844 151.789 6.13281C150.477 5.61719 149.039 5.35938 147.477 5.35938C145.914 5.35938 144.477 5.61719 143.164 6.13281C141.273 6.88281 140.328 7.79688 140.328 8.875V29.7344ZM135.641 29.7344C135.641 29.7344 135.641 22.7812 135.641 8.875C135.641 6.01562 137.414 3.85156 140.961 2.38281C142.945 1.55469 145.117 1.14062 147.477 1.14062C149.836 1.14062 152.008 1.55469 153.992 2.38281C157.539 3.85156 159.312 6.01562 159.312 8.875V29.7344C159.312 32.5938 157.539 34.7578 153.992 36.2266C152.008 37.0547 149.836 37.4688 147.477 37.4688C145.117 37.4688 142.945 37.0547 140.961 36.2266C137.414 34.7578 135.641 32.5938 135.641 29.7344ZM168.688 37.9375V8.875C168.688 6.01562 170.461 3.85156 174.008 2.38281C175.992 1.55469 178.164 1.14062 180.523 1.14062C182.898 1.14062 185.07 1.55469 187.039 2.38281C188.227 2.88281 189.219 3.45313 190.016 4.09375C190.812 3.45313 191.805 2.88281 192.992 2.38281C194.961 1.55469 197.133 1.14062 199.508 1.14062C201.867 1.14062 204.039 1.55469 206.023 2.38281C209.57 3.85156 211.344 6.01562 211.344 8.875V35.8281L206.891 37.9375H206.656V8.875C206.656 7.79688 205.711 6.88281 203.82 6.13281C202.508 5.61719 201.07 5.35938 199.508 5.35938C197.945 5.35938 196.508 5.61719 195.195 6.13281C193.305 6.88281 192.359 7.79688 192.359 8.875V35.8281L187.906 37.9375H187.672V8.875C187.672 7.79688 186.727 6.88281 184.836 6.13281C183.523 5.61719 182.086 5.35938 180.523 5.35938C178.961 5.35938 177.523 5.61719 176.211 6.13281C174.32 6.88281 173.375 7.79688 173.375 8.875V35.8281L168.922 37.9375H168.688ZM220.719 37V2.78125L223.203 1.60938H238.062V1.84375L236.164 5.875H225.406V17.1719H238.062V17.4062L236.164 21.4375H225.406V32.7344H241.977V32.9688L240.078 37H220.719Z" fill="#363636"/>
</svg>
