<svg width="66" height="66" viewBox="0 0 66 66" fill="none" xmlns="http://www.w3.org/2000/svg">
<path d="M13.9425 12.375L14.8706 14.2106L16.005 16.5H24.75V26.8125H8.25V12.375H13.9425ZM15.2213 8.24999H6.1875C5.64049 8.24999 5.11589 8.46729 4.72909 8.85408C4.3423 9.24088 4.125 9.76548 4.125 10.3125V28.875C4.125 29.422 4.3423 29.9466 4.72909 30.3334C5.11589 30.7202 5.64049 30.9375 6.1875 30.9375H26.8125C27.3595 30.9375 27.8841 30.7202 28.2709 30.3334C28.6577 29.9466 28.875 29.422 28.875 28.875V14.4375C28.875 13.8905 28.6577 13.3659 28.2709 12.9791C27.8841 12.5923 27.3595 12.375 26.8125 12.375H18.5625L17.0775 9.38436C16.9045 9.04109 16.6391 8.75298 16.3111 8.55255C15.9831 8.35211 15.6056 8.24731 15.2213 8.24999ZM46.9425 12.375L47.8706 14.2106L49.005 16.5H57.75V26.8125H41.25V12.375H46.9425ZM48.2212 8.24999H39.1875C38.6405 8.24999 38.1159 8.46729 37.7291 8.85408C37.3423 9.24088 37.125 9.76548 37.125 10.3125V28.875C37.125 29.422 37.3423 29.9466 37.7291 30.3334C38.1159 30.7202 38.6405 30.9375 39.1875 30.9375H59.8125C60.3595 30.9375 60.8841 30.7202 61.2709 30.3334C61.6577 29.9466 61.875 29.422 61.875 28.875V14.4375C61.875 13.8905 61.6577 13.3659 61.2709 12.9791C60.8841 12.5923 60.3595 12.375 59.8125 12.375H51.5625L50.0775 9.38436C49.9045 9.04109 49.6391 8.75298 49.3111 8.55255C48.9831 8.35211 48.6056 8.24731 48.2212 8.24999ZM13.9425 39.1875L14.8706 41.0231L16.005 43.3125H24.75V53.625H8.25V39.1875H13.9425ZM15.2213 35.0625H6.1875C5.64049 35.0625 5.11589 35.2798 4.72909 35.6666C4.3423 36.0534 4.125 36.578 4.125 37.125V55.6875C4.125 56.2345 4.3423 56.7591 4.72909 57.1459C5.11589 57.5327 5.64049 57.75 6.1875 57.75H26.8125C27.3595 57.75 27.8841 57.5327 28.2709 57.1459C28.6577 56.7591 28.875 56.2345 28.875 55.6875V41.25C28.875 40.703 28.6577 40.1784 28.2709 39.7916C27.8841 39.4048 27.3595 39.1875 26.8125 39.1875H18.5625L17.0775 36.1969C16.9045 35.8536 16.6391 35.5655 16.3111 35.365C15.9831 35.1646 15.6056 35.0598 15.2213 35.0625ZM46.9425 39.1875L47.8706 41.0231L49.005 43.3125H57.75V53.625H41.25V39.1875H46.9425ZM48.2212 35.0625H39.1875C38.6405 35.0625 38.1159 35.2798 37.7291 35.6666C37.3423 36.0534 37.125 36.578 37.125 37.125V55.6875C37.125 56.2345 37.3423 56.7591 37.7291 57.1459C38.1159 57.5327 38.6405 57.75 39.1875 57.75H59.8125C60.3595 57.75 60.8841 57.5327 61.2709 57.1459C61.6577 56.7591 61.875 56.2345 61.875 55.6875V41.25C61.875 40.703 61.6577 40.1784 61.2709 39.7916C60.8841 39.4048 60.3595 39.1875 59.8125 39.1875H51.5625L50.0775 36.1969C49.9045 35.8536 49.6391 35.5655 49.3111 35.365C48.9831 35.1646 48.6056 35.0598 48.2212 35.0625Z" fill="#474747"/>
</svg>
