<svg width="174" height="38" viewBox="0 0 174 38" fill="none" xmlns="http://www.w3.org/2000/svg">
<path d="M17.56 12.1L15.1 26H12.82L14.5 16.48L8.58 26H7L4.42 16.48L2.74 26H0.46L2.92 12.1H5.38L8.34 23L15.12 12.1H17.56ZM22.9167 26.18C21.9834 26.18 21.1634 25.9867 20.4567 25.6C19.7501 25.2133 19.1967 24.6667 18.7967 23.96C18.4101 23.2533 18.2167 22.4467 18.2167 21.54C18.2167 20.3 18.5034 19.1667 19.0767 18.14C19.6634 17.1133 20.4634 16.3 21.4767 15.7C22.5034 15.1 23.6434 14.8 24.8967 14.8C25.8301 14.8 26.6567 15 27.3767 15.4C28.0967 15.7867 28.6567 16.3333 29.0567 17.04C29.4701 17.7333 29.6767 18.54 29.6767 19.46C29.6767 20.7 29.3767 21.8333 28.7767 22.86C28.1767 23.8867 27.3634 24.7 26.3367 25.3C25.3101 25.8867 24.1701 26.18 22.9167 26.18ZM23.1967 24.26C23.9567 24.26 24.6501 24.0467 25.2767 23.62C25.9167 23.18 26.4167 22.6067 26.7767 21.9C27.1367 21.18 27.3167 20.4133 27.3167 19.6C27.3167 18.68 27.0567 17.9733 26.5367 17.48C26.0167 16.9733 25.3634 16.72 24.5767 16.72C23.8034 16.72 23.1101 16.94 22.4967 17.38C21.8967 17.8067 21.4234 18.3867 21.0767 19.12C20.7434 19.84 20.5767 20.6133 20.5767 21.44C20.5767 22.3333 20.8167 23.0267 21.2967 23.52C21.7901 24.0133 22.4234 24.26 23.1967 24.26ZM31.0706 20.44C31.2706 19.3333 31.6706 18.3533 32.2706 17.5C32.884 16.6467 33.6306 15.9867 34.5106 15.52C35.3906 15.04 36.3173 14.8 37.2906 14.8C38.0106 14.8 38.6906 14.96 39.3306 15.28C39.9706 15.5867 40.4573 16 40.7906 16.52L41.7306 11.2H44.0306L41.4106 26H39.1106L39.4106 24.34C38.9306 24.8867 38.3306 25.3333 37.6106 25.68C36.904 26.0133 36.124 26.18 35.2706 26.18C34.4306 26.18 33.684 25.9933 33.0306 25.62C32.3773 25.2467 31.864 24.72 31.4906 24.04C31.1306 23.3467 30.9506 22.5533 30.9506 21.66C30.9506 21.26 30.9906 20.8533 31.0706 20.44ZM40.0906 20.48C40.144 20.2267 40.1706 19.9533 40.1706 19.66C40.1706 18.7667 39.904 18.0667 39.3706 17.56C38.8506 17.04 38.1973 16.78 37.4106 16.78C36.824 16.78 36.2506 16.9267 35.6906 17.22C35.1306 17.5 34.644 17.92 34.2306 18.48C33.8173 19.0267 33.544 19.68 33.4106 20.44C33.3573 20.6933 33.3306 20.9667 33.3306 21.26C33.3306 22.1667 33.5906 22.8867 34.1106 23.42C34.644 23.94 35.304 24.2 36.0906 24.2C36.6773 24.2 37.2506 24.0533 37.8106 23.76C38.3706 23.4667 38.8573 23.04 39.2706 22.48C39.684 21.9067 39.9573 21.24 40.0906 20.48ZM56.3253 14.98L54.3853 26H52.1053L52.3253 24.7C51.8853 25.1533 51.352 25.5133 50.7253 25.78C50.112 26.0333 49.4786 26.16 48.8253 26.16C47.6653 26.16 46.7386 25.8467 46.0453 25.22C45.352 24.5933 45.0053 23.7067 45.0053 22.56C45.0053 22.2533 45.0386 21.8867 45.1053 21.46L46.2453 14.98H48.5053L47.4253 21.12C47.372 21.4933 47.3453 21.76 47.3453 21.92C47.3453 22.6533 47.5453 23.2133 47.9453 23.6C48.3586 23.9867 48.9253 24.18 49.6453 24.18C50.4853 24.18 51.1986 23.9333 51.7853 23.44C52.372 22.9333 52.7586 22.2067 52.9453 21.26L54.0453 14.98H56.3253ZM62.2936 11.2L59.6736 26H57.3936L60.0136 11.2H62.2936ZM69.387 14.8C70.7604 14.8 71.8537 15.1867 72.667 15.96C73.4937 16.7333 73.907 17.7733 73.907 19.08C73.907 19.3867 73.8737 19.7533 73.807 20.18C73.7537 20.4733 73.6604 20.8333 73.527 21.26H65.107C65.0937 21.3533 65.087 21.4933 65.087 21.68C65.087 22.4667 65.327 23.0933 65.807 23.56C66.3004 24.0267 66.9404 24.26 67.727 24.26C68.967 24.26 69.9204 23.7467 70.587 22.72H73.047C72.5404 23.7333 71.7937 24.5667 70.807 25.22C69.8204 25.86 68.6804 26.18 67.387 26.18C66.467 26.18 65.6604 26 64.967 25.64C64.2737 25.28 63.7337 24.7667 63.347 24.1C62.9604 23.42 62.767 22.6267 62.767 21.72C62.767 21.3333 62.807 20.92 62.887 20.48C63.087 19.3467 63.4937 18.3533 64.107 17.5C64.7204 16.6333 65.4804 15.9667 66.387 15.5C67.307 15.0333 68.307 14.8 69.387 14.8ZM71.527 19.62C71.5537 19.38 71.567 19.2067 71.567 19.1C71.567 18.3667 71.3204 17.7867 70.827 17.36C70.347 16.9333 69.7204 16.72 68.947 16.72C68.1337 16.72 67.4004 16.98 66.747 17.5C66.0937 18.02 65.647 18.7267 65.407 19.62H71.527ZM75.9108 26.14C75.5508 26.14 75.2574 26.0267 75.0308 25.8C74.8041 25.5733 74.6908 25.2867 74.6908 24.94C74.6908 24.4733 74.8641 24.0733 75.2108 23.74C75.5708 23.3933 75.9774 23.22 76.4308 23.22C76.7908 23.22 77.0774 23.3333 77.2908 23.56C77.5174 23.7867 77.6308 24.0733 77.6308 24.42C77.6308 24.8867 77.4574 25.2933 77.1108 25.64C76.7641 25.9733 76.3641 26.14 75.9108 26.14ZM75.9108 17.74C75.5508 17.74 75.2574 17.6267 75.0308 17.4C74.8041 17.1733 74.6908 16.8867 74.6908 16.54C74.6908 16.0733 74.8641 15.6733 75.2108 15.34C75.5708 14.9933 75.9774 14.82 76.4308 14.82C76.7908 14.82 77.0774 14.9333 77.2908 15.16C77.5174 15.3867 77.6308 15.6733 77.6308 16.02C77.6308 16.4867 77.4574 16.8933 77.1108 17.24C76.7641 17.5733 76.3641 17.74 75.9108 17.74Z" fill="#D49900"/>
<path d="M98.875 15.8C98.475 15.0667 97.925 14.5083 97.225 14.125C96.525 13.7417 95.7083 13.55 94.775 13.55C93.7417 13.55 92.825 13.7833 92.025 14.25C91.225 14.7167 90.6 15.3833 90.15 16.25C89.7 17.1167 89.475 18.1167 89.475 19.25C89.475 20.4167 89.7 21.4333 90.15 22.3C90.6167 23.1667 91.2583 23.8333 92.075 24.3C92.8917 24.7667 93.8417 25 94.925 25C96.2583 25 97.35 24.65 98.2 23.95C99.05 23.2333 99.6083 22.2417 99.875 20.975H93.875V18.3H103.325V21.35C103.092 22.5667 102.592 23.6917 101.825 24.725C101.058 25.7583 100.067 26.5917 98.85 27.225C97.65 27.8417 96.3 28.15 94.8 28.15C93.1167 28.15 91.5917 27.775 90.225 27.025C88.875 26.2583 87.8083 25.2 87.025 23.85C86.2583 22.5 85.875 20.9667 85.875 19.25C85.875 17.5333 86.2583 16 87.025 14.65C87.8083 13.2833 88.875 12.225 90.225 11.475C91.5917 10.7083 93.1083 10.325 94.775 10.325C96.7417 10.325 98.45 10.8083 99.9 11.775C101.35 12.725 102.35 14.0667 102.9 15.8H98.875ZM116.614 24.675H109.664L108.514 28H104.839L111.114 10.525H115.189L121.464 28H117.764L116.614 24.675ZM115.664 21.875L113.139 14.575L110.614 21.875H115.664ZM142.835 10.55V28H139.335V16.65L134.66 28H132.01L127.31 16.65V28H123.81V10.55H127.785L133.335 23.525L138.885 10.55H142.835ZM149.795 13.375V17.75H155.67V20.525H149.795V25.15H156.42V28H146.295V10.525H156.42V13.375H149.795ZM165.626 28.175C164.409 28.175 163.309 27.9667 162.326 27.55C161.359 27.1333 160.593 26.5333 160.026 25.75C159.459 24.9667 159.168 24.0417 159.151 22.975H162.901C162.951 23.6917 163.201 24.2583 163.651 24.675C164.118 25.0917 164.751 25.3 165.551 25.3C166.368 25.3 167.009 25.1083 167.476 24.725C167.943 24.325 168.176 23.8083 168.176 23.175C168.176 22.6583 168.018 22.2333 167.701 21.9C167.384 21.5667 166.984 21.3083 166.501 21.125C166.034 20.925 165.384 20.7083 164.551 20.475C163.418 20.1417 162.493 19.8167 161.776 19.5C161.076 19.1667 160.468 18.675 159.951 18.025C159.451 17.3583 159.201 16.475 159.201 15.375C159.201 14.3417 159.459 13.4417 159.976 12.675C160.493 11.9083 161.218 11.325 162.151 10.925C163.084 10.5083 164.151 10.3 165.351 10.3C167.151 10.3 168.609 10.7417 169.726 11.625C170.859 12.4917 171.484 13.7083 171.601 15.275H167.751C167.718 14.675 167.459 14.1833 166.976 13.8C166.509 13.4 165.884 13.2 165.101 13.2C164.418 13.2 163.868 13.375 163.451 13.725C163.051 14.075 162.851 14.5833 162.851 15.25C162.851 15.7167 163.001 16.1083 163.301 16.425C163.618 16.725 164.001 16.975 164.451 17.175C164.918 17.3583 165.568 17.575 166.401 17.825C167.534 18.1583 168.459 18.4917 169.176 18.825C169.893 19.1583 170.509 19.6583 171.026 20.325C171.543 20.9917 171.801 21.8667 171.801 22.95C171.801 23.8833 171.559 24.75 171.076 25.55C170.593 26.35 169.884 26.9917 168.951 27.475C168.018 27.9417 166.909 28.175 165.626 28.175Z" fill="#444444"/>
</svg>
