<svg width="192" height="30" viewBox="0 0 192 30" fill="none" xmlns="http://www.w3.org/2000/svg">
<path d="M13.17 11.575L11.325 22H9.615L10.875 14.86L6.435 22H5.25L3.315 14.86L2.055 22H0.345L2.19 11.575H4.035L6.255 19.75L11.34 11.575H13.17ZM17.1875 22.135C16.4875 22.135 15.8725 21.99 15.3425 21.7C14.8125 21.41 14.3975 21 14.0975 20.47C13.8075 19.94 13.6625 19.335 13.6625 18.655C13.6625 17.725 13.8775 16.875 14.3075 16.105C14.7475 15.335 15.3475 14.725 16.1075 14.275C16.8775 13.825 17.7325 13.6 18.6725 13.6C19.3725 13.6 19.9925 13.75 20.5325 14.05C21.0725 14.34 21.4925 14.75 21.7925 15.28C22.1025 15.8 22.2575 16.405 22.2575 17.095C22.2575 18.025 22.0325 18.875 21.5825 19.645C21.1325 20.415 20.5225 21.025 19.7525 21.475C18.9825 21.915 18.1275 22.135 17.1875 22.135ZM17.3975 20.695C17.9675 20.695 18.4875 20.535 18.9575 20.215C19.4375 19.885 19.8125 19.455 20.0825 18.925C20.3525 18.385 20.4875 17.81 20.4875 17.2C20.4875 16.51 20.2925 15.98 19.9025 15.61C19.5125 15.23 19.0225 15.04 18.4325 15.04C17.8525 15.04 17.3325 15.205 16.8725 15.535C16.4225 15.855 16.0675 16.29 15.8075 16.84C15.5575 17.38 15.4325 17.96 15.4325 18.58C15.4325 19.25 15.6125 19.77 15.9725 20.14C16.3425 20.51 16.8175 20.695 17.3975 20.695ZM23.303 17.83C23.453 17 23.753 16.265 24.203 15.625C24.663 14.985 25.223 14.49 25.883 14.14C26.543 13.78 27.238 13.6 27.968 13.6C28.508 13.6 29.018 13.72 29.498 13.96C29.978 14.19 30.343 14.5 30.593 14.89L31.298 10.9H33.023L31.058 22H29.333L29.558 20.755C29.198 21.165 28.748 21.5 28.208 21.76C27.678 22.01 27.093 22.135 26.453 22.135C25.823 22.135 25.263 21.995 24.773 21.715C24.283 21.435 23.898 21.04 23.618 20.53C23.348 20.01 23.213 19.415 23.213 18.745C23.213 18.445 23.243 18.14 23.303 17.83ZM30.068 17.86C30.108 17.67 30.128 17.465 30.128 17.245C30.128 16.575 29.928 16.05 29.528 15.67C29.138 15.28 28.648 15.085 28.058 15.085C27.618 15.085 27.188 15.195 26.768 15.415C26.348 15.625 25.983 15.94 25.673 16.36C25.363 16.77 25.158 17.26 25.058 17.83C25.018 18.02 24.998 18.225 24.998 18.445C24.998 19.125 25.193 19.665 25.583 20.065C25.983 20.455 26.478 20.65 27.068 20.65C27.508 20.65 27.938 20.54 28.358 20.32C28.778 20.1 29.143 19.78 29.453 19.36C29.763 18.93 29.968 18.43 30.068 17.86ZM42.244 13.735L40.789 22H39.079L39.244 21.025C38.914 21.365 38.514 21.635 38.044 21.835C37.584 22.025 37.109 22.12 36.619 22.12C35.749 22.12 35.054 21.885 34.534 21.415C34.014 20.945 33.754 20.28 33.754 19.42C33.754 19.19 33.779 18.915 33.829 18.595L34.684 13.735H36.379L35.569 18.34C35.529 18.62 35.509 18.82 35.509 18.94C35.509 19.49 35.659 19.91 35.959 20.2C36.269 20.49 36.694 20.635 37.234 20.635C37.864 20.635 38.399 20.45 38.839 20.08C39.279 19.7 39.569 19.155 39.709 18.445L40.534 13.735H42.244ZM46.7202 10.9L44.7552 22H43.0452L45.0102 10.9H46.7202ZM52.0403 13.6C53.0703 13.6 53.8903 13.89 54.5003 14.47C55.1203 15.05 55.4303 15.83 55.4303 16.81C55.4303 17.04 55.4053 17.315 55.3553 17.635C55.3153 17.855 55.2453 18.125 55.1453 18.445H48.8303C48.8203 18.515 48.8153 18.62 48.8153 18.76C48.8153 19.35 48.9953 19.82 49.3553 20.17C49.7253 20.52 50.2053 20.695 50.7953 20.695C51.7253 20.695 52.4403 20.31 52.9403 19.54H54.7853C54.4053 20.3 53.8453 20.925 53.1053 21.415C52.3653 21.895 51.5103 22.135 50.5403 22.135C49.8503 22.135 49.2453 22 48.7253 21.73C48.2053 21.46 47.8003 21.075 47.5103 20.575C47.2203 20.065 47.0753 19.47 47.0753 18.79C47.0753 18.5 47.1053 18.19 47.1653 17.86C47.3153 17.01 47.6203 16.265 48.0803 15.625C48.5403 14.975 49.1103 14.475 49.7903 14.125C50.4803 13.775 51.2303 13.6 52.0403 13.6ZM53.6453 17.215C53.6653 17.035 53.6753 16.905 53.6753 16.825C53.6753 16.275 53.4903 15.84 53.1203 15.52C52.7603 15.2 52.2903 15.04 51.7103 15.04C51.1003 15.04 50.5503 15.235 50.0603 15.625C49.5703 16.015 49.2353 16.545 49.0553 17.215H53.6453ZM56.9331 22.105C56.6631 22.105 56.4431 22.02 56.2731 21.85C56.1031 21.68 56.0181 21.465 56.0181 21.205C56.0181 20.855 56.1481 20.555 56.4081 20.305C56.6781 20.045 56.9831 19.915 57.3231 19.915C57.5931 19.915 57.8081 20 57.9681 20.17C58.1381 20.34 58.2231 20.555 58.2231 20.815C58.2231 21.165 58.0931 21.47 57.8331 21.73C57.5731 21.98 57.2731 22.105 56.9331 22.105ZM56.9331 15.805C56.6631 15.805 56.4431 15.72 56.2731 15.55C56.1031 15.38 56.0181 15.165 56.0181 14.905C56.0181 14.555 56.1481 14.255 56.4081 14.005C56.6781 13.745 56.9831 13.615 57.3231 13.615C57.5931 13.615 57.8081 13.7 57.9681 13.87C58.1381 14.04 58.2231 14.255 58.2231 14.515C58.2231 14.865 58.0931 15.17 57.8331 15.43C57.5731 15.68 57.2731 15.805 56.9331 15.805Z" fill="#D49900"/>
<path d="M67.7 15C67.7 13.6267 68.0067 12.4 68.62 11.32C69.2467 10.2267 70.0933 9.38 71.16 8.78C72.24 8.16667 73.4467 7.86 74.78 7.86C76.34 7.86 77.7067 8.26 78.88 9.06C80.0533 9.86 80.8733 10.9667 81.34 12.38H78.12C77.8 11.7133 77.3467 11.2133 76.76 10.88C76.1867 10.5467 75.52 10.38 74.76 10.38C73.9467 10.38 73.22 10.5733 72.58 10.96C71.9533 11.3333 71.46 11.8667 71.1 12.56C70.7533 13.2533 70.58 14.0667 70.58 15C70.58 15.92 70.7533 16.7333 71.1 17.44C71.46 18.1333 71.9533 18.6733 72.58 19.06C73.22 19.4333 73.9467 19.62 74.76 19.62C75.52 19.62 76.1867 19.4533 76.76 19.12C77.3467 18.7733 77.8 18.2667 78.12 17.6H81.34C80.8733 19.0267 80.0533 20.14 78.88 20.94C77.72 21.7267 76.3533 22.12 74.78 22.12C73.4467 22.12 72.24 21.82 71.16 21.22C70.0933 20.6067 69.2467 19.76 68.62 18.68C68.0067 17.6 67.7 16.3733 67.7 15ZM92.2916 19.34H86.7316L85.8116 22H82.8716L87.8916 8.02H91.1516L96.1716 22H93.2116L92.2916 19.34ZM91.5316 17.1L89.5116 11.26L87.4916 17.1H91.5316ZM107.548 8.04V10.3H103.828V22H101.028V10.3H97.308V8.04H107.548ZM112.391 10.3V13.8H117.091V16.02H112.391V19.72H117.691V22H109.591V8.02H117.691V10.3H112.391ZM129.955 12.24C129.635 11.6533 129.195 11.2067 128.635 10.9C128.075 10.5933 127.422 10.44 126.675 10.44C125.849 10.44 125.115 10.6267 124.475 11C123.835 11.3733 123.335 11.9067 122.975 12.6C122.615 13.2933 122.435 14.0933 122.435 15C122.435 15.9333 122.615 16.7467 122.975 17.44C123.349 18.1333 123.862 18.6667 124.515 19.04C125.169 19.4133 125.929 19.6 126.795 19.6C127.862 19.6 128.735 19.32 129.415 18.76C130.095 18.1867 130.542 17.3933 130.755 16.38H125.955V14.24H133.515V16.68C133.329 17.6533 132.929 18.5533 132.315 19.38C131.702 20.2067 130.909 20.8733 129.935 21.38C128.975 21.8733 127.895 22.12 126.695 22.12C125.349 22.12 124.129 21.82 123.035 21.22C121.955 20.6067 121.102 19.76 120.475 18.68C119.862 17.6 119.555 16.3733 119.555 15C119.555 13.6267 119.862 12.4 120.475 11.32C121.102 10.2267 121.955 9.38 123.035 8.78C124.129 8.16667 125.342 7.86 126.675 7.86C128.249 7.86 129.615 8.24667 130.775 9.02C131.935 9.78 132.735 10.8533 133.175 12.24H129.955ZM142.067 22.14C140.76 22.14 139.56 21.8333 138.467 21.22C137.374 20.6067 136.507 19.76 135.867 18.68C135.227 17.5867 134.907 16.3533 134.907 14.98C134.907 13.62 135.227 12.4 135.867 11.32C136.507 10.2267 137.374 9.37333 138.467 8.76C139.56 8.14667 140.76 7.84 142.067 7.84C143.387 7.84 144.587 8.14667 145.667 8.76C146.76 9.37333 147.62 10.2267 148.247 11.32C148.887 12.4 149.207 13.62 149.207 14.98C149.207 16.3533 148.887 17.5867 148.247 18.68C147.62 19.76 146.76 20.6067 145.667 21.22C144.574 21.8333 143.374 22.14 142.067 22.14ZM142.067 19.64C142.907 19.64 143.647 19.4533 144.287 19.08C144.927 18.6933 145.427 18.1467 145.787 17.44C146.147 16.7333 146.327 15.9133 146.327 14.98C146.327 14.0467 146.147 13.2333 145.787 12.54C145.427 11.8333 144.927 11.2933 144.287 10.92C143.647 10.5467 142.907 10.36 142.067 10.36C141.227 10.36 140.48 10.5467 139.827 10.92C139.187 11.2933 138.687 11.8333 138.327 12.54C137.967 13.2333 137.787 14.0467 137.787 14.98C137.787 15.9133 137.967 16.7333 138.327 17.44C138.687 18.1467 139.187 18.6933 139.827 19.08C140.48 19.4533 141.227 19.64 142.067 19.64ZM158.49 22L155.41 16.56H154.09V22H151.29V8.04H156.53C157.61 8.04 158.53 8.23333 159.29 8.62C160.05 8.99333 160.617 9.50667 160.99 10.16C161.377 10.8 161.57 11.52 161.57 12.32C161.57 13.24 161.303 14.0733 160.77 14.82C160.237 15.5533 159.443 16.06 158.39 16.34L161.73 22H158.49ZM154.09 14.46H156.43C157.19 14.46 157.757 14.28 158.13 13.92C158.503 13.5467 158.69 13.0333 158.69 12.38C158.69 11.74 158.503 11.2467 158.13 10.9C157.757 10.54 157.19 10.36 156.43 10.36H154.09V14.46ZM166.903 8.04V22H164.103V8.04H166.903ZM172.469 10.3V13.8H177.169V16.02H172.469V19.72H177.769V22H169.669V8.02H177.769V10.3H172.469ZM185.134 22.14C184.16 22.14 183.28 21.9733 182.494 21.64C181.72 21.3067 181.107 20.8267 180.654 20.2C180.2 19.5733 179.967 18.8333 179.954 17.98H182.954C182.994 18.5533 183.194 19.0067 183.554 19.34C183.927 19.6733 184.434 19.84 185.074 19.84C185.727 19.84 186.24 19.6867 186.614 19.38C186.987 19.06 187.174 18.6467 187.174 18.14C187.174 17.7267 187.047 17.3867 186.794 17.12C186.54 16.8533 186.22 16.6467 185.834 16.5C185.46 16.34 184.94 16.1667 184.274 15.98C183.367 15.7133 182.627 15.4533 182.054 15.2C181.494 14.9333 181.007 14.54 180.594 14.02C180.194 13.4867 179.994 12.78 179.994 11.9C179.994 11.0733 180.2 10.3533 180.614 9.74C181.027 9.12667 181.607 8.66 182.354 8.34C183.1 8.00667 183.954 7.84 184.914 7.84C186.354 7.84 187.52 8.19333 188.414 8.9C189.32 9.59333 189.82 10.5667 189.914 11.82H186.834C186.807 11.34 186.6 10.9467 186.214 10.64C185.84 10.32 185.34 10.16 184.714 10.16C184.167 10.16 183.727 10.3 183.394 10.58C183.074 10.86 182.914 11.2667 182.914 11.8C182.914 12.1733 183.034 12.4867 183.274 12.74C183.527 12.98 183.834 13.18 184.194 13.34C184.567 13.4867 185.087 13.66 185.754 13.86C186.66 14.1267 187.4 14.3933 187.974 14.66C188.547 14.9267 189.04 15.3267 189.454 15.86C189.867 16.3933 190.074 17.0933 190.074 17.96C190.074 18.7067 189.88 19.4 189.494 20.04C189.107 20.68 188.54 21.1933 187.794 21.58C187.047 21.9533 186.16 22.14 185.134 22.14Z" fill="#444444"/>
</svg>
