<svg width="115" height="32" viewBox="0 0 115 32" fill="none" xmlns="http://www.w3.org/2000/svg">
<path d="M0.90625 31.7812V7.5625C0.90625 5.17969 2.38411 3.3763 5.33984 2.15234C6.99349 1.46224 8.80339 1.11719 10.7695 1.11719C12.7487 1.11719 14.5586 1.46224 16.1992 2.15234C17.1888 2.56901 18.0156 3.04427 18.6797 3.57812C19.3438 3.04427 20.1706 2.56901 21.1602 2.15234C22.8008 1.46224 24.6107 1.11719 26.5898 1.11719C28.556 1.11719 30.3659 1.46224 32.0195 2.15234C34.9753 3.3763 36.4531 5.17969 36.4531 7.5625V30.0234L32.7422 31.7812H32.5469V7.5625C32.5469 6.66406 31.7591 5.90234 30.1836 5.27734C29.0898 4.84766 27.8919 4.63281 26.5898 4.63281C25.2878 4.63281 24.0898 4.84766 22.9961 5.27734C21.4206 5.90234 20.6328 6.66406 20.6328 7.5625V30.0234L16.9219 31.7812H16.7266V7.5625C16.7266 6.66406 15.9388 5.90234 14.3633 5.27734C13.2695 4.84766 12.0716 4.63281 10.7695 4.63281C9.46745 4.63281 8.26953 4.84766 7.17578 5.27734C5.60026 5.90234 4.8125 6.66406 4.8125 7.5625V30.0234L1.10156 31.7812H0.90625ZM44.2656 31V2.48438L46.3359 1.50781H58.7188V1.70312L57.1367 5.0625H48.1719V14.4766H58.7188V14.6719L57.1367 18.0312H48.1719V27.4453H61.9805V27.6406L60.3984 31H44.2656ZM66.8828 31.7812V7.5625C66.8828 5.17969 68.3607 3.3763 71.3164 2.15234C72.9701 1.46224 74.7799 1.11719 76.7461 1.11719C78.7122 1.11719 80.5221 1.46224 82.1758 2.15234C85.1315 3.3763 86.6094 5.17969 86.6094 7.5625V30.0234L82.8984 31.7812H82.7031V7.5625C82.7031 6.66406 81.9154 5.90234 80.3398 5.27734C79.2461 4.84766 78.0482 4.63281 76.7461 4.63281C75.444 4.63281 74.2461 4.84766 73.1523 5.27734C71.5768 5.90234 70.7891 6.66406 70.7891 7.5625V30.0234L67.0781 31.7812H66.8828ZM94.4219 2.48438L98.1328 0.726562H98.3281V24.9453C98.3281 25.8438 99.1159 26.6055 100.691 27.2305C101.785 27.6602 102.983 27.875 104.285 27.875C105.587 27.875 106.785 27.6602 107.879 27.2305C109.454 26.6055 110.242 25.8438 110.242 24.9453V2.48438L113.953 0.726562H114.148V24.9453C114.148 27.3281 112.671 29.1315 109.715 30.3555C108.061 31.0456 106.251 31.3906 104.285 31.3906C102.319 31.3906 100.509 31.0456 98.8555 30.3555C95.8997 29.1315 94.4219 27.3281 94.4219 24.9453V2.48438Z" fill="#C48D00"/>
</svg>
