<svg width="336" height="32" viewBox="0 0 336 32" fill="none" xmlns="http://www.w3.org/2000/svg">
<path d="M22.3359 21.7422C22.0885 22.9922 21.6458 24.2031 21.0078 25.375C18.8203 29.3854 15.7865 31.3906 11.9062 31.3906C8.02604 31.3906 4.99219 29.3854 2.80469 25.375C1.55469 23.0833 0.929688 20.043 0.929688 16.2539C0.929688 12.4648 1.55469 9.42448 2.80469 7.13281C4.99219 3.1224 8.02604 1.11719 11.9062 1.11719C15.7995 1.11719 18.8333 3.1224 21.0078 7.13281L17.8438 8.65625H17.6484C16.2422 5.84375 14.3281 4.4375 11.9062 4.4375C9.4974 4.4375 7.58333 5.84375 6.16406 8.65625C5.27865 10.4141 4.83594 12.9466 4.83594 16.2539C4.83594 19.6003 5.27865 22.1328 6.16406 23.8516C7.60938 26.6641 9.52344 28.0703 11.9062 28.0703C14.3151 28.0703 16.2292 26.6641 17.6484 23.8516L22.1406 21.7422H22.3359ZM28.1953 31.7812V16.2539C28.1953 12.4648 28.8203 9.42448 30.0703 7.13281C32.2578 3.1224 35.2917 1.11719 39.1719 1.11719C43.0651 1.11719 46.099 3.1224 48.2734 7.13281C49.5234 9.4375 50.1484 12.4779 50.1484 16.2539C50.1484 19.9779 49.5234 23.0182 48.2734 25.375C46.5156 28.6823 44.224 30.8177 41.3984 31.7812H41.2031L39.7383 28.8711C42.056 27.7773 43.7812 26.1042 44.9141 23.8516C45.6432 22.4062 46.0729 20.4271 46.2031 17.9141H32.1016V30.0234L28.3906 31.7812H28.1953ZM32.1406 14.5938H46.2031C46.0729 12.0938 45.6432 10.1146 44.9141 8.65625C43.5078 5.84375 41.5938 4.4375 39.1719 4.4375C36.763 4.4375 34.849 5.84375 33.4297 8.65625C32.7005 10.1146 32.2708 12.0938 32.1406 14.5938ZM58.6055 31.7812L58.625 4.82812H56.2617C54.7122 4.82812 53.7487 5.58984 53.3711 7.11328H53.1758L50.2461 5.72656C51.0143 2.91406 53.0195 1.50781 56.2617 1.50781H70.8711V1.70312L69.4062 4.82812H62.5312L62.5117 30.0234L58.8008 31.7812H58.6055ZM76.4375 31C73.1823 31 71.5547 29.6068 71.5547 26.8203V16.2539C71.5547 12.4648 72.1797 9.42448 73.4297 7.13281C75.6172 3.1224 78.651 1.11719 82.5312 1.11719H87.7656V1.3125L86.3008 4.4375H82.5312C80.1094 4.4375 78.1953 5.84375 76.7891 8.65625C76.0599 10.1146 75.6302 12.0938 75.5 14.5938H86.5938V14.7891L85.1289 17.9141H75.4609V26.8203C75.4609 27.3932 75.7865 27.6797 76.4375 27.6797H84.1328C85.6693 27.6797 86.6328 26.918 87.0234 25.3945H87.2188L90.1484 26.7812C89.3672 29.5938 87.362 31 84.1328 31H76.4375ZM116.008 14.5938V16.2539C116.008 20.043 115.383 23.0833 114.133 25.375C111.958 29.3854 108.924 31.3906 105.031 31.3906C101.151 31.3906 98.1172 29.3854 95.9297 25.375C94.6797 23.0833 94.0547 20.043 94.0547 16.2539C94.0547 12.4648 94.6797 9.42448 95.9297 7.13281C98.1172 3.1224 101.151 1.11719 105.031 1.11719C108.924 1.11719 111.958 3.1224 114.133 7.13281L110.969 8.65625H110.773C109.367 5.84375 107.453 4.4375 105.031 4.4375C102.635 4.4375 100.721 5.84375 99.2891 8.65625C98.4036 10.4141 97.9609 12.9466 97.9609 16.2539C97.9609 19.6003 98.4036 22.1328 99.2891 23.8516C100.734 26.6641 102.648 28.0703 105.031 28.0703C107.44 28.0703 109.354 26.6641 110.773 23.8516C111.503 22.3932 111.932 20.4141 112.062 17.9141H104.699V17.7188L106.164 14.5938H116.008ZM125.773 16.2539C125.773 19.6003 126.216 22.1328 127.102 23.8516C128.547 26.6641 130.461 28.0703 132.844 28.0703C135.253 28.0703 137.167 26.6641 138.586 23.8516C139.471 22.0938 139.914 19.5612 139.914 16.2539C139.914 12.9466 139.471 10.4141 138.586 8.65625C137.18 5.84375 135.266 4.4375 132.844 4.4375C130.435 4.4375 128.521 5.84375 127.102 8.65625C126.216 10.4141 125.773 12.9466 125.773 16.2539ZM123.742 25.375C122.492 23.0833 121.867 20.043 121.867 16.2539C121.867 12.4648 122.492 9.42448 123.742 7.13281C125.93 3.1224 128.964 1.11719 132.844 1.11719C136.737 1.11719 139.771 3.1224 141.945 7.13281C143.195 9.4375 143.82 12.4779 143.82 16.2539C143.82 20.043 143.195 23.0833 141.945 25.375C139.771 29.3854 136.737 31.3906 132.844 31.3906C128.964 31.3906 125.93 29.3854 123.742 25.375ZM154.172 17.9141H160.266C162.714 17.9141 164.465 17.3151 165.52 16.1172C166.73 14.737 167.336 13.1549 167.336 11.3711C167.336 9.26172 166.711 7.55599 165.461 6.25391C164.289 5.04297 162.883 4.4375 161.242 4.4375C158.846 4.4375 156.932 5.84375 155.5 8.65625C154.615 10.401 154.172 12.9336 154.172 16.2539V17.9141ZM150.266 31.7812V16.2539C150.266 12.4648 150.891 9.42448 152.141 7.13281C154.328 3.1224 157.362 1.11719 161.242 1.11719C164.484 1.11719 167.043 2.3151 168.918 4.71094C170.467 6.6901 171.242 8.91016 171.242 11.3711C171.242 13.6107 170.454 15.7005 168.879 17.6406C167.863 18.8906 166.6 19.8151 165.09 20.4141L171.906 30.1602L168.469 31.7812H168.273L160.91 21.2344H154.172V30.0234L150.461 31.7812H150.266ZM178.742 31.7812V2.48438L182.453 0.726562H182.648V30.0234L178.938 31.7812H178.742ZM194.953 31C191.698 31 190.07 29.6068 190.07 26.8203V16.2539C190.07 12.4648 190.695 9.42448 191.945 7.13281C194.133 3.1224 197.167 1.11719 201.047 1.11719H206.281V1.3125L204.816 4.4375H201.047C198.625 4.4375 196.711 5.84375 195.305 8.65625C194.576 10.1146 194.146 12.0938 194.016 14.5938H205.109V14.7891L203.645 17.9141H193.977V26.8203C193.977 27.3932 194.302 27.6797 194.953 27.6797H202.648C204.185 27.6797 205.148 26.918 205.539 25.3945H205.734L208.664 26.7812C207.883 29.5938 205.878 31 202.648 31H194.953ZM211.984 25.375C211.984 25.375 213.039 24.8672 215.148 23.8516H215.344C216.75 26.6641 218.664 28.0703 221.086 28.0703C222.753 28.0703 224.243 27.3216 225.559 25.8242C226.509 24.7305 226.984 23.3438 226.984 21.6641C226.984 20.362 226.568 19.2682 225.734 18.3828C224.771 17.3542 223.339 16.638 221.438 16.2344C219.458 15.8307 217.733 15.1016 216.262 14.0469C214.465 12.7448 213.566 11.026 213.566 8.89062C213.566 6.54688 214.406 4.61979 216.086 3.10938C217.544 1.78125 219.406 1.11719 221.672 1.11719C224.589 1.11719 226.854 2.60156 228.469 5.57031L225.383 7.03516H225.188C224.315 5.30339 223.143 4.4375 221.672 4.4375C220.422 4.45052 219.413 4.84766 218.645 5.62891C217.863 6.42318 217.473 7.41276 217.473 8.59766C217.473 9.63932 217.818 10.4596 218.508 11.0586C219.38 11.8138 220.728 12.3737 222.551 12.7383C224.986 13.207 226.991 14.2227 228.566 15.7852C230.142 17.3607 230.93 19.3594 230.93 21.7812C230.93 24.2552 229.992 26.4688 228.117 28.4219C226.255 30.401 223.911 31.3906 221.086 31.3906C217.193 31.3906 214.159 29.3854 211.984 25.375ZM252.805 31.7812V2.48438L256.516 0.726562H256.711V30.0234L253 31.7812H252.805ZM264.133 31.7812V16.2539C264.133 12.4648 264.758 9.42448 266.008 7.13281C268.195 3.1224 271.229 1.11719 275.109 1.11719C279.003 1.11719 282.036 3.1224 284.211 7.13281C285.461 9.42448 286.086 12.4648 286.086 16.2539C286.086 19.9779 285.461 23.0182 284.211 25.375C282.453 28.6823 280.161 30.8177 277.336 31.7812H277.141L275.676 28.8711C277.993 27.7773 279.719 26.1042 280.852 23.8516C281.737 22.1198 282.18 19.5872 282.18 16.2539C282.18 12.9466 281.737 10.4141 280.852 8.65625C279.445 5.84375 277.531 4.4375 275.109 4.4375C272.688 4.4375 270.773 5.84375 269.367 8.65625C268.482 10.4141 268.039 12.9466 268.039 16.2539V30.0234L264.328 31.7812H264.133ZM292.531 31.7812V16.2539C292.531 12.4518 293.156 9.41146 294.406 7.13281C296.594 3.1224 299.628 1.11719 303.508 1.11719H308.742V1.3125L307.277 4.4375H303.508C301.086 4.4375 299.172 5.84375 297.766 8.65625C297.036 10.1146 296.607 12.0938 296.477 14.5938H307.57V14.7891L306.105 17.9141H296.438V30.0234C296.438 30.0234 295.201 30.6094 292.727 31.7812H292.531ZM317.922 16.2539C317.922 19.6003 318.365 22.1328 319.25 23.8516C320.695 26.6641 322.609 28.0703 324.992 28.0703C327.401 28.0703 329.315 26.6641 330.734 23.8516C331.62 22.0938 332.062 19.5612 332.062 16.2539C332.062 12.9466 331.62 10.4141 330.734 8.65625C329.328 5.84375 327.414 4.4375 324.992 4.4375C322.583 4.4375 320.669 5.84375 319.25 8.65625C318.365 10.4141 317.922 12.9466 317.922 16.2539ZM315.891 25.375C314.641 23.0833 314.016 20.043 314.016 16.2539C314.016 12.4648 314.641 9.42448 315.891 7.13281C318.078 3.1224 321.112 1.11719 324.992 1.11719C328.885 1.11719 331.919 3.1224 334.094 7.13281C335.344 9.4375 335.969 12.4779 335.969 16.2539C335.969 20.043 335.344 23.0833 334.094 25.375C331.919 29.3854 328.885 31.3906 324.992 31.3906C321.112 31.3906 318.078 29.3854 315.891 25.375Z" fill="#363636"/>
</svg>
