<svg width="157" height="29" viewBox="0 0 157 29" fill="none" xmlns="http://www.w3.org/2000/svg">
<path d="M18.2695 18.332V22.5508C18.2695 24.6953 16.9395 26.3184 14.2793 27.4199C12.791 28.041 11.1621 28.3516 9.39258 28.3516C7.62305 28.3516 5.99414 28.041 4.50586 27.4199C1.8457 26.3184 0.515625 24.6953 0.515625 22.5508V6.90625C0.515625 4.76172 1.8457 3.13867 4.50586 2.03711C5.99414 1.41602 7.62305 1.10547 9.39258 1.10547C11.1621 1.10547 12.791 1.41602 14.2793 2.03711C16.9395 3.13867 18.2695 4.76172 18.2695 6.90625V9.54297L14.9297 11.125H14.7539V6.90625C14.7539 6.10938 14.0449 5.42383 12.627 4.84961C11.6426 4.46289 10.5645 4.26953 9.39258 4.26953C8.2207 4.26953 7.14258 4.46289 6.1582 4.84961C4.74023 5.41211 4.03125 6.09766 4.03125 6.90625V22.5508C4.03125 23.3477 4.74023 24.0332 6.1582 24.6074C7.14258 24.9941 8.2207 25.1875 9.39258 25.1875C10.5645 25.1875 11.6426 24.9941 12.627 24.6074C14.0449 24.0449 14.7539 23.3594 14.7539 22.5508V19.9141L18.0938 18.332H18.2695ZM27.9375 23.4297C27.9375 24.0156 28.3008 24.4551 29.0273 24.748C29.7656 25.041 30.6621 25.1875 31.7168 25.1875C32.7715 25.1875 33.6621 25.041 34.3887 24.748C35.127 24.4551 35.4961 24.0156 35.4961 23.4297V13.2344C35.4961 12.6484 35.127 12.209 34.3887 11.916C33.6621 11.623 32.7715 11.4766 31.7168 11.4766C30.6621 11.4766 29.7656 11.623 29.0273 11.916C28.3008 12.209 27.9375 12.6484 27.9375 13.2344V23.4297ZM24.4219 24.0449V12.6191C24.4219 11.0723 25.5176 9.86523 27.709 8.99805C28.8926 8.54102 30.2285 8.3125 31.7168 8.3125C33.2051 8.3125 34.541 8.54102 35.7246 8.99805C37.916 9.86523 39.0117 11.0723 39.0117 12.6191V24.0449C39.0117 25.5918 37.916 26.7988 35.7246 27.666C34.541 28.123 33.2051 28.3516 31.7168 28.3516C30.2285 28.3516 28.8926 28.123 27.709 27.666C25.5176 26.7988 24.4219 25.5918 24.4219 24.0449ZM44.2852 28.7031V12.6191C44.2852 11.0488 45.3809 9.8418 47.5723 8.99805C48.7559 8.54102 50.0918 8.3125 51.5801 8.3125C53.0684 8.3125 54.4043 8.54102 55.5879 8.99805C57.7793 9.8418 58.875 11.0488 58.875 12.6191V27.1211L55.5352 28.7031H55.3594V13.2344C55.3594 12.6484 54.9902 12.209 54.252 11.916C53.5254 11.623 52.6348 11.4766 51.5801 11.4766C50.5254 11.4766 49.6289 11.623 48.8906 11.916C48.1641 12.209 47.8008 12.6484 47.8008 13.2344V27.1211L44.4609 28.7031H44.2852ZM66.4688 28.7031V11.8633H61.9512V11.6875L63.375 8.66406H66.4688V2.33594L69.8086 0.753906H69.9844V8.66406H74.502V8.83984L73.0781 11.8633H69.9844V27.1211L66.6445 28.7031H66.4688ZM78.7207 4.7793C78.3105 4.35742 78.1055 3.85352 78.1055 3.26758C78.1055 2.66992 78.3105 2.16016 78.7207 1.73828C79.1309 1.31641 79.6289 1.10547 80.2148 1.10547C80.8008 1.10547 81.2988 1.31641 81.709 1.73828C82.1191 2.16016 82.3242 2.66992 82.3242 3.26758C82.3242 3.85352 82.1191 4.35742 81.709 4.7793C81.2988 5.20117 80.8008 5.41211 80.2148 5.41211C79.6289 5.41211 79.1309 5.20117 78.7207 4.7793ZM78.457 28.7031V9.54297L81.7969 7.96094H81.9727V27.1211L78.6328 28.7031H78.457ZM88.125 28.7031V12.6191C88.125 11.0488 89.2207 9.8418 91.4121 8.99805C92.5957 8.54102 93.9316 8.3125 95.4199 8.3125C96.9082 8.3125 98.2441 8.54102 99.4277 8.99805C101.619 9.8418 102.715 11.0488 102.715 12.6191V27.1211L99.375 28.7031H99.1992V13.2344C99.1992 12.6484 98.8301 12.209 98.0918 11.916C97.3652 11.623 96.4746 11.4766 95.4199 11.4766C94.3652 11.4766 93.4688 11.623 92.7305 11.916C92.0039 12.209 91.6406 12.6484 91.6406 13.2344V27.1211L88.3008 28.7031H88.125ZM107.988 9.54297L111.328 7.96094H111.504V23.4297C111.504 24.0156 111.867 24.4551 112.594 24.748C113.332 25.041 114.229 25.1875 115.283 25.1875C116.338 25.1875 117.229 25.041 117.955 24.748C118.693 24.4551 119.062 24.0156 119.062 23.4297V9.54297L122.402 7.96094H122.578V24.0449C122.578 25.6152 121.482 26.8223 119.291 27.666C118.107 28.123 116.771 28.3516 115.283 28.3516C113.795 28.3516 112.459 28.123 111.275 27.666C109.084 26.8223 107.988 25.6152 107.988 24.0449V9.54297ZM141.211 27.1211L137.871 28.7031H137.695V27.7539C136.57 28.1523 135.369 28.3516 134.092 28.3516C132.721 28.3516 131.443 28.123 130.26 27.666C128.068 26.7988 126.973 25.5918 126.973 24.0449V19.2988C126.973 17.7285 128.068 16.5215 130.26 15.6777C131.443 15.2207 132.721 14.9922 134.092 14.9922C135.381 14.9922 136.582 15.1914 137.695 15.5898V13.2344C137.695 12.6484 137.326 12.209 136.588 11.916C135.861 11.623 134.971 11.4766 133.916 11.4766H129.645V11.3008L131.051 8.3125H133.916C135.404 8.3125 136.74 8.54102 137.924 8.99805C140.115 9.8418 141.211 11.0488 141.211 12.6191V27.1211ZM130.488 23.4297C130.488 24.0156 130.852 24.4551 131.578 24.748C132.316 25.041 133.154 25.1875 134.092 25.1875C135.029 25.1875 135.861 25.041 136.588 24.748C137.326 24.4551 137.695 24.0156 137.695 23.4297V19.9141C137.695 19.3281 137.326 18.8887 136.588 18.5957C135.861 18.3027 135.029 18.1562 134.092 18.1562C133.154 18.1562 132.316 18.3027 131.578 18.5957C130.852 18.8887 130.488 19.3281 130.488 19.9141V23.4297ZM146.484 28.7031V12.6191C146.484 11.0488 147.58 9.8418 149.771 8.99805C150.955 8.54102 152.291 8.3125 153.779 8.3125H156.152V8.48828L154.746 11.4766H153.779C152.725 11.4766 151.828 11.623 151.09 11.916C150.363 12.209 150 12.6484 150 13.2344V27.1211L146.66 28.7031H146.484Z" fill="#111111"/>
</svg>
