<svg width="24" height="24" viewBox="0 0 24 24" fill="none" xmlns="http://www.w3.org/2000/svg">
<path d="M2.859 2.87697L15.429 1.08197C15.4999 1.07181 15.5721 1.07697 15.6408 1.09713C15.7094 1.11728 15.773 1.15194 15.8271 1.19878C15.8813 1.24561 15.9247 1.30352 15.9545 1.3686C15.9844 1.43367 15.9999 1.50439 16 1.57597V22.424C15.9998 22.4955 15.9844 22.5661 15.9546 22.6311C15.9248 22.6961 15.8815 22.7539 15.8275 22.8007C15.7734 22.8476 15.71 22.8822 15.6415 22.9025C15.5729 22.9227 15.5008 22.928 15.43 22.918L2.858 21.123C2.61962 21.089 2.40149 20.9702 2.24369 20.7883C2.08589 20.6065 1.999 20.3738 1.999 20.133V3.86697C1.999 3.62618 2.08589 3.39348 2.24369 3.21161C2.40149 3.02975 2.62062 2.91092 2.859 2.87697ZM17 2.99997H21C21.2652 2.99997 21.5196 3.10533 21.7071 3.29286C21.8946 3.4804 22 3.73475 22 3.99997V20C22 20.2652 21.8946 20.5195 21.7071 20.7071C21.5196 20.8946 21.2652 21 21 21H17V2.99997ZM10.2 12L13 7.99997H10.6L9 10.286L7.4 7.99997H5L7.8 12L5 16H7.4L9 13.714L10.6 16H13L10.2 12Z" fill="#052D26"/>
</svg>
