<svg width="159" height="36" viewBox="0 0 159 36" fill="none" xmlns="http://www.w3.org/2000/svg">
<path d="M28.5664 19.1855H33.1367C34.9727 19.1855 36.2861 18.7363 37.0771 17.8379C37.9854 16.8027 38.4395 15.6162 38.4395 14.2783C38.4395 12.6963 37.9707 11.417 37.0332 10.4404C36.1543 9.53223 35.0996 9.07812 33.8691 9.07812C32.0723 9.07812 30.6367 10.1328 29.5625 12.2422C28.8984 13.5508 28.5664 15.4502 28.5664 17.9404V19.1855ZM25.6367 29.5859V17.9404C25.6367 15.0986 26.1055 12.8184 27.043 11.0996C28.6836 8.0918 30.959 6.58789 33.8691 6.58789C36.3008 6.58789 38.2197 7.48633 39.626 9.2832C40.7881 10.7676 41.3691 12.4326 41.3691 14.2783C41.3691 15.958 40.7783 17.5254 39.5967 18.9805C38.835 19.918 37.8877 20.6113 36.7549 21.0605L41.8672 28.3701L39.2891 29.5859H39.1426L33.6201 21.6758H28.5664V28.2676L25.7832 29.5859H25.6367ZM50.3633 29C47.9219 29 46.7012 27.9551 46.7012 25.8652V17.9404C46.7012 15.0986 47.1699 12.8184 48.1074 11.0996C49.748 8.0918 52.0234 6.58789 54.9336 6.58789H58.8594V6.73438L57.7607 9.07812H54.9336C53.1172 9.07812 51.6816 10.1328 50.627 12.2422C50.0801 13.3359 49.7578 14.8203 49.6602 16.6953H57.9805V16.8418L56.8818 19.1855H49.6309V25.8652C49.6309 26.2949 49.875 26.5098 50.3633 26.5098H56.1348C57.2871 26.5098 58.0098 25.9385 58.3027 24.7959H58.4492L60.6465 25.8359C60.0605 27.9453 58.5566 29 56.1348 29H50.3633ZM80.041 16.6953V17.9404C80.041 20.7822 79.5723 23.0625 78.6348 24.7812C77.0039 27.7891 74.7285 29.293 71.8086 29.293C68.8984 29.293 66.623 27.7891 64.9824 24.7812C64.0449 23.0625 63.5762 20.7822 63.5762 17.9404C63.5762 15.0986 64.0449 12.8184 64.9824 11.0996C66.623 8.0918 68.8984 6.58789 71.8086 6.58789C74.7285 6.58789 77.0039 8.0918 78.6348 11.0996L76.2617 12.2422H76.1152C75.0605 10.1328 73.625 9.07812 71.8086 9.07812C70.0117 9.07812 68.5762 10.1328 67.502 12.2422C66.8379 13.5605 66.5059 15.46 66.5059 17.9404C66.5059 20.4502 66.8379 22.3496 67.502 23.6387C68.5859 25.748 70.0215 26.8027 71.8086 26.8027C73.6152 26.8027 75.0508 25.748 76.1152 23.6387C76.6621 22.5449 76.9844 21.0605 77.082 19.1855H71.5596V19.0391L72.6582 16.6953H80.041ZM85.168 29.5859V7.61328L87.9512 6.29492H88.0977V28.2676L85.3145 29.5859H85.168ZM92.7852 24.7812C92.7852 24.7812 93.5762 24.4004 95.1582 23.6387H95.3047C96.3594 25.748 97.7949 26.8027 99.6113 26.8027C100.861 26.8027 101.979 26.2412 102.966 25.1182C103.679 24.2979 104.035 23.2578 104.035 21.998C104.035 21.0215 103.723 20.2012 103.098 19.5371C102.375 18.7656 101.301 18.2285 99.875 17.9258C98.3906 17.623 97.0967 17.0762 95.9932 16.2852C94.6455 15.3086 93.9717 14.0195 93.9717 12.418C93.9717 10.6602 94.6016 9.21484 95.8613 8.08203C96.9551 7.08594 98.3516 6.58789 100.051 6.58789C102.238 6.58789 103.938 7.70117 105.148 9.92773L102.834 11.0264H102.688C102.033 9.72754 101.154 9.07812 100.051 9.07812C99.1133 9.08789 98.3564 9.38574 97.7803 9.97168C97.1943 10.5674 96.9014 11.3096 96.9014 12.1982C96.9014 12.9795 97.1602 13.5947 97.6777 14.0439C98.332 14.6104 99.3428 15.0303 100.71 15.3037C102.536 15.6553 104.04 16.417 105.222 17.5889C106.403 18.7705 106.994 20.2695 106.994 22.0859C106.994 23.9414 106.291 25.6016 104.885 27.0664C103.488 28.5508 101.73 29.293 99.6113 29.293C96.6914 29.293 94.416 27.7891 92.7852 24.7812ZM112.897 29.5859L112.912 9.37109H111.14C109.978 9.37109 109.255 9.94238 108.972 11.085H108.825L106.628 10.0449C107.204 7.93555 108.708 6.88086 111.14 6.88086H122.097V7.02734L120.998 9.37109H115.842L115.827 28.2676L113.044 29.5859H112.897ZM125.539 19.1855H130.109C131.945 19.1855 133.259 18.7363 134.05 17.8379C134.958 16.8027 135.412 15.6162 135.412 14.2783C135.412 12.6963 134.943 11.417 134.006 10.4404C133.127 9.53223 132.072 9.07812 130.842 9.07812C129.045 9.07812 127.609 10.1328 126.535 12.2422C125.871 13.5508 125.539 15.4502 125.539 17.9404V19.1855ZM122.609 29.5859V17.9404C122.609 15.0986 123.078 12.8184 124.016 11.0996C125.656 8.0918 127.932 6.58789 130.842 6.58789C133.273 6.58789 135.192 7.48633 136.599 9.2832C137.761 10.7676 138.342 12.4326 138.342 14.2783C138.342 15.958 137.751 17.5254 136.569 18.9805C135.808 19.918 134.86 20.6113 133.728 21.0605L138.84 28.3701L136.262 29.5859H136.115L130.593 21.6758H125.539V28.2676L122.756 29.5859H122.609ZM147.336 29C144.895 29 143.674 27.9551 143.674 25.8652V17.9404C143.674 15.0986 144.143 12.8184 145.08 11.0996C146.721 8.0918 148.996 6.58789 151.906 6.58789H155.832V6.73438L154.733 9.07812H151.906C150.09 9.07812 148.654 10.1328 147.6 12.2422C147.053 13.3359 146.73 14.8203 146.633 16.6953H154.953V16.8418L153.854 19.1855H146.604V25.8652C146.604 26.2949 146.848 26.5098 147.336 26.5098H153.107C154.26 26.5098 154.982 25.9385 155.275 24.7959H155.422L157.619 25.8359C157.033 27.9453 155.529 29 153.107 29H147.336Z" fill="#D49900"/>
<circle cx="8" cy="22" r="8" fill="#D49900"/>
</svg>
