<svg width="192" height="36" viewBox="0 0 192 36" fill="none" xmlns="http://www.w3.org/2000/svg">
<path d="M41.252 22.0566C41.0664 22.9941 40.7344 23.9023 40.2559 24.7812C38.6152 27.7891 36.3398 29.293 33.4297 29.293C30.5195 29.293 28.2441 27.7891 26.6035 24.7812C25.666 23.0625 25.1973 20.7822 25.1973 17.9404C25.1973 15.0986 25.666 12.8184 26.6035 11.0996C28.2441 8.0918 30.5195 6.58789 33.4297 6.58789C36.3496 6.58789 38.625 8.0918 40.2559 11.0996L37.8828 12.2422H37.7363C36.6816 10.1328 35.2461 9.07812 33.4297 9.07812C31.623 9.07812 30.1875 10.1328 29.123 12.2422C28.459 13.5605 28.127 15.46 28.127 17.9404C28.127 20.4502 28.459 22.3496 29.123 23.6387C30.207 25.748 31.6426 26.8027 33.4297 26.8027C35.2363 26.8027 36.6719 25.748 37.7363 23.6387L41.1055 22.0566H41.252ZM45.6465 29.5859V17.9404C45.6465 15.0986 46.1152 12.8184 47.0527 11.0996C48.6934 8.0918 50.9688 6.58789 53.8789 6.58789C56.7988 6.58789 59.0742 8.0918 60.7051 11.0996C61.6426 12.8281 62.1113 15.1084 62.1113 17.9404C62.1113 20.7334 61.6426 23.0137 60.7051 24.7812C59.3867 27.2617 57.668 28.8633 55.5488 29.5859H55.4023L54.3037 27.4033C56.042 26.583 57.3359 25.3281 58.1855 23.6387C58.7324 22.5547 59.0547 21.0703 59.1523 19.1855H48.5762V28.2676L45.793 29.5859H45.6465ZM48.6055 16.6953H59.1523C59.0547 14.8203 58.7324 13.3359 58.1855 12.2422C57.1309 10.1328 55.6953 9.07812 53.8789 9.07812C52.0723 9.07812 50.6367 10.1328 49.5723 12.2422C49.0254 13.3359 48.7031 14.8203 48.6055 16.6953ZM68.4541 29.5859L68.4688 9.37109H66.6963C65.5342 9.37109 64.8115 9.94238 64.5283 11.085H64.3818L62.1846 10.0449C62.7607 7.93555 64.2646 6.88086 66.6963 6.88086H77.6533V7.02734L76.5547 9.37109H71.3984L71.3838 28.2676L68.6006 29.5859H68.4541ZM78.166 29.5859V17.9404C78.166 15.0986 78.6348 12.8184 79.5723 11.0996C81.2129 8.0918 83.4883 6.58789 86.3984 6.58789C89.3184 6.58789 91.5938 8.0918 93.2246 11.0996C94.1621 12.8281 94.6309 15.1084 94.6309 17.9404C94.6309 20.7334 94.1621 23.0137 93.2246 24.7812C91.9062 27.2617 90.1875 28.8633 88.0684 29.5859H87.9219L86.8232 27.4033C88.5615 26.583 89.8555 25.3281 90.7051 23.6387C91.252 22.5547 91.5742 21.0703 91.6719 19.1855H81.0957V28.2676L78.3125 29.5859H78.166ZM81.125 16.6953H91.6719C91.5742 14.8203 91.252 13.3359 90.7051 12.2422C89.6504 10.1328 88.2148 9.07812 86.3984 9.07812C84.5918 9.07812 83.1562 10.1328 82.0918 12.2422C81.5449 13.3359 81.2227 14.8203 81.125 16.6953ZM103.42 29C100.979 29 99.7578 27.9551 99.7578 25.8652V7.61328L102.541 6.29492H102.688V25.8652C102.688 26.2949 102.932 26.5098 103.42 26.5098H108.474C109.626 26.5098 110.349 25.9385 110.642 24.7959H110.788L112.985 25.8359C112.399 27.9453 110.896 29 108.474 29H103.42ZM115.988 17.9404C115.988 20.4502 116.32 22.3496 116.984 23.6387C118.068 25.748 119.504 26.8027 121.291 26.8027C123.098 26.8027 124.533 25.748 125.598 23.6387C126.262 22.3203 126.594 20.4209 126.594 17.9404C126.594 15.46 126.262 13.5605 125.598 12.2422C124.543 10.1328 123.107 9.07812 121.291 9.07812C119.484 9.07812 118.049 10.1328 116.984 12.2422C116.32 13.5605 115.988 15.46 115.988 17.9404ZM114.465 24.7812C113.527 23.0625 113.059 20.7822 113.059 17.9404C113.059 15.0986 113.527 12.8184 114.465 11.0996C116.105 8.0918 118.381 6.58789 121.291 6.58789C124.211 6.58789 126.486 8.0918 128.117 11.0996C129.055 12.8281 129.523 15.1084 129.523 17.9404C129.523 20.7822 129.055 23.0625 128.117 24.7812C126.486 27.7891 124.211 29.293 121.291 29.293C118.381 29.293 116.105 27.7891 114.465 24.7812ZM150.383 16.6953V17.9404C150.383 20.7822 149.914 23.0625 148.977 24.7812C147.346 27.7891 145.07 29.293 142.15 29.293C139.24 29.293 136.965 27.7891 135.324 24.7812C134.387 23.0625 133.918 20.7822 133.918 17.9404C133.918 15.0986 134.387 12.8184 135.324 11.0996C136.965 8.0918 139.24 6.58789 142.15 6.58789C145.07 6.58789 147.346 8.0918 148.977 11.0996L146.604 12.2422H146.457C145.402 10.1328 143.967 9.07812 142.15 9.07812C140.354 9.07812 138.918 10.1328 137.844 12.2422C137.18 13.5605 136.848 15.46 136.848 17.9404C136.848 20.4502 137.18 22.3496 137.844 23.6387C138.928 25.748 140.363 26.8027 142.15 26.8027C143.957 26.8027 145.393 25.748 146.457 23.6387C147.004 22.5449 147.326 21.0605 147.424 19.1855H141.901V19.0391L143 16.6953H150.383ZM171.242 6.29492V17.9404C171.242 20.7822 170.773 23.0625 169.836 24.7812C168.195 27.7891 165.92 29.293 163.01 29.293C160.09 29.293 157.814 27.7891 156.184 24.7812C155.246 23.0625 154.777 20.7822 154.777 17.9404C154.777 15.1475 155.246 12.8672 156.184 11.0996C157.502 8.61914 159.221 7.01758 161.34 6.29492H161.486L162.585 8.47754C160.847 9.29785 159.553 10.5527 158.703 12.2422C158.039 13.541 157.707 15.4404 157.707 17.9404C157.707 20.4209 158.039 22.3203 158.703 23.6387C159.758 25.748 161.193 26.8027 163.01 26.8027C164.816 26.8027 166.252 25.748 167.316 23.6387C167.98 22.3203 168.312 20.4209 168.312 17.9404V7.61328L171.096 6.29492H171.242ZM180.471 29C178.029 29 176.809 27.9551 176.809 25.8652V17.9404C176.809 15.0986 177.277 12.8184 178.215 11.0996C179.855 8.0918 182.131 6.58789 185.041 6.58789H188.967V6.73438L187.868 9.07812H185.041C183.225 9.07812 181.789 10.1328 180.734 12.2422C180.188 13.3359 179.865 14.8203 179.768 16.6953H188.088V16.8418L186.989 19.1855H179.738V25.8652C179.738 26.2949 179.982 26.5098 180.471 26.5098H186.242C187.395 26.5098 188.117 25.9385 188.41 24.7959H188.557L190.754 25.8359C190.168 27.9453 188.664 29 186.242 29H180.471Z" fill="#D49900"/>
<circle cx="8" cy="22" r="8" fill="#D49900"/>
</svg>
