<svg width="201" height="32" viewBox="0 0 201 32" fill="none" xmlns="http://www.w3.org/2000/svg">
<path d="M0.90625 2.48438L4.61719 0.726562H4.8125V24.9453C4.8125 25.8438 5.60026 26.6055 7.17578 27.2305C8.26953 27.6602 9.46745 27.875 10.7695 27.875C12.0716 27.875 13.2695 27.6602 14.3633 27.2305C15.9388 26.6055 16.7266 25.8438 16.7266 24.9453V2.48438L20.4375 0.726562H20.6328V24.9453C20.6328 27.3281 19.1549 29.1315 16.1992 30.3555C14.5456 31.0456 12.7357 31.3906 10.7695 31.3906C8.80339 31.3906 6.99349 31.0456 5.33984 30.3555C2.38411 29.1315 0.90625 27.3281 0.90625 24.9453V2.48438ZM27.6641 22.0156L31.375 20.2578H31.5703V24.9453C31.5703 25.8438 32.3581 26.6055 33.9336 27.2305C35.0273 27.6602 36.2253 27.875 37.5273 27.875C38.8294 27.875 40.0273 27.6602 41.1211 27.2305C42.6966 26.6055 43.4844 25.8438 43.4844 24.9453V19.2617C43.4844 18.3503 42.6966 17.5885 41.1211 16.9766C40.0273 16.5469 38.8294 16.332 37.5273 16.332C35.8737 16.332 34.3893 16.0781 33.0742 15.5703C30.6393 14.6068 29.4219 13.2656 29.4219 11.5469V5.90234C29.4219 4.15755 30.6393 2.81641 33.0742 1.87891C34.3893 1.37109 35.8737 1.11719 37.5273 1.11719C39.181 1.11719 40.6654 1.37109 41.9805 1.87891C44.4154 2.84245 45.6328 4.18359 45.6328 5.90234V8.40234L41.9219 10.1602H41.7266V6.58594C41.7266 5.9349 41.3164 5.44661 40.4961 5.12109C39.6888 4.79557 38.6992 4.63281 37.5273 4.63281C36.3555 4.63281 35.3594 4.79557 34.5391 5.12109C33.7318 5.44661 33.3281 5.9349 33.3281 6.58594V10.8633C33.3281 11.5143 33.7318 12.0026 34.5391 12.3281C35.3594 12.6536 36.3555 12.8164 37.5273 12.8164C39.4935 12.8164 41.3034 13.1615 42.957 13.8516C45.9128 15.0755 47.3906 16.8789 47.3906 19.2617V24.9453C47.3906 27.3151 45.9128 29.1185 42.957 30.3555C41.3034 31.0456 39.4935 31.3906 37.5273 31.3906C35.5612 31.3906 33.7513 31.0456 32.0977 30.3555C29.1419 29.1315 27.6641 27.3281 27.6641 24.9453V22.0156ZM54.4219 31V2.48438L56.4922 1.50781H68.875V1.70312L67.293 5.0625H58.3281V14.4766H68.875V14.6719L67.293 18.0312H58.3281V27.4453H72.1367V27.6406L70.5547 31H54.4219ZM80.9453 17.5234H86.5117C87.8138 17.5234 89.0117 17.3086 90.1055 16.8789C91.681 16.2539 92.4688 15.4922 92.4688 14.5938V7.95312C92.4688 7.04167 91.681 6.27995 90.1055 5.66797C89.0117 5.23828 87.8138 5.02344 86.5117 5.02344H80.9453V17.5234ZM77.0391 31.7812V2.48438L79.1094 1.50781H86.5117C88.4779 1.50781 90.2878 1.85286 91.9414 2.54297C94.8971 3.76693 96.375 5.57031 96.375 7.95312V14.5938C96.375 16.9896 94.8971 18.793 91.9414 20.0039C91.3685 20.2383 90.776 20.4336 90.1641 20.5898L96.8438 30.1602L93.4062 31.7812H93.2109L85.6914 21.0391H80.9453V30.0234L77.2344 31.7812H77.0391ZM119.305 31.7812V2.48438L123.016 0.726562H123.211V30.0234L119.5 31.7812H119.305ZM131.023 31.7812V7.5625C131.023 5.17969 132.501 3.3763 135.457 2.15234C137.111 1.46224 138.921 1.11719 140.887 1.11719C142.853 1.11719 144.663 1.46224 146.316 2.15234C149.272 3.3763 150.75 5.17969 150.75 7.5625V30.0234L147.039 31.7812H146.844V7.5625C146.844 6.66406 146.056 5.90234 144.48 5.27734C143.387 4.84766 142.189 4.63281 140.887 4.63281C139.585 4.63281 138.387 4.84766 137.293 5.27734C135.717 5.90234 134.93 6.66406 134.93 7.5625V30.0234L131.219 31.7812H131.023ZM158.562 31.7812V2.48438L160.633 1.50781H173.016V1.70312L171.434 5.0625H162.469V14.4766H173.016V14.6719L171.434 18.0312H162.469V30.0234L158.758 31.7812H158.562ZM184.344 24.9453C184.344 25.8307 185.132 26.5924 186.707 27.2305C187.801 27.6602 188.999 27.875 190.301 27.875C191.603 27.875 192.801 27.6602 193.895 27.2305C195.47 26.6055 196.258 25.8438 196.258 24.9453V7.5625C196.258 6.67708 195.47 5.91536 193.895 5.27734C192.801 4.84766 191.603 4.63281 190.301 4.63281C188.999 4.63281 187.801 4.84766 186.707 5.27734C185.132 5.90234 184.344 6.66406 184.344 7.5625V24.9453ZM180.438 24.9453C180.438 24.9453 180.438 19.151 180.438 7.5625C180.438 5.17969 181.915 3.3763 184.871 2.15234C186.525 1.46224 188.335 1.11719 190.301 1.11719C192.267 1.11719 194.077 1.46224 195.73 2.15234C198.686 3.3763 200.164 5.17969 200.164 7.5625V24.9453C200.164 27.3281 198.686 29.1315 195.73 30.3555C194.077 31.0456 192.267 31.3906 190.301 31.3906C188.335 31.3906 186.525 31.0456 184.871 30.3555C181.915 29.1315 180.438 27.3281 180.438 24.9453Z" fill="#363636"/>
</svg>
