<svg width="107" height="32" viewBox="0 0 107 32" fill="none" xmlns="http://www.w3.org/2000/svg">
<path d="M0.90625 31V2.48438L4.61719 0.726562H4.8125V27.4453H18.1914V27.6406L16.6094 31H0.90625ZM23.7578 24.9453C23.7578 25.8307 24.5456 26.5924 26.1211 27.2305C27.2148 27.6602 28.4128 27.875 29.7148 27.875C31.0169 27.875 32.2148 27.6602 33.3086 27.2305C34.8841 26.6055 35.6719 25.8438 35.6719 24.9453V7.5625C35.6719 6.67708 34.8841 5.91536 33.3086 5.27734C32.2148 4.84766 31.0169 4.63281 29.7148 4.63281C28.4128 4.63281 27.2148 4.84766 26.1211 5.27734C24.5456 5.90234 23.7578 6.66406 23.7578 7.5625V24.9453ZM19.8516 24.9453C19.8516 24.9453 19.8516 19.151 19.8516 7.5625C19.8516 5.17969 21.3294 3.3763 24.2852 2.15234C25.9388 1.46224 27.7487 1.11719 29.7148 1.11719C31.681 1.11719 33.4909 1.46224 35.1445 2.15234C38.1003 3.3763 39.5781 5.17969 39.5781 7.5625V24.9453C39.5781 27.3281 38.1003 29.1315 35.1445 30.3555C33.4909 31.0456 31.681 31.3906 29.7148 31.3906C27.7487 31.3906 25.9388 31.0456 24.2852 30.3555C21.3294 29.1315 19.8516 27.3281 19.8516 24.9453ZM67.1172 14.4766V24.9453C67.1172 27.3281 65.6393 29.1315 62.6836 30.3555C61.0299 31.0456 59.2201 31.3906 57.2539 31.3906C55.2878 31.3906 53.4779 31.0456 51.8242 30.3555C48.8685 29.1315 47.3906 27.3281 47.3906 24.9453V7.5625C47.3906 5.17969 48.8685 3.3763 51.8242 2.15234C53.4779 1.46224 55.2878 1.11719 57.2539 1.11719C59.2201 1.11719 61.0299 1.46224 62.6836 2.15234C65.6393 3.3763 67.1172 5.17969 67.1172 7.5625V10.4922L63.4062 12.25H63.2109V7.5625C63.2109 6.66406 62.4232 5.90234 60.8477 5.27734C59.7539 4.84766 58.556 4.63281 57.2539 4.63281C55.9518 4.63281 54.7539 4.84766 53.6602 5.27734C52.0846 5.90234 51.2969 6.66406 51.2969 7.5625V24.9453C51.2969 25.8438 52.0846 26.6055 53.6602 27.2305C54.7539 27.6602 55.9518 27.875 57.2539 27.875C58.556 27.875 59.7539 27.6602 60.8477 27.2305C62.4232 26.6055 63.2109 25.8438 63.2109 24.9453V18.0312H56.4141V17.8359L57.9961 14.4766H67.1172ZM74.9297 31.7812V2.48438L78.6406 0.726562H78.8359V30.0234L75.125 31.7812H74.9297ZM86.6484 31.7812V7.5625C86.6484 5.17969 88.1263 3.3763 91.082 2.15234C92.7357 1.46224 94.5456 1.11719 96.5117 1.11719C98.4779 1.11719 100.288 1.46224 101.941 2.15234C104.897 3.3763 106.375 5.17969 106.375 7.5625V30.0234L102.664 31.7812H102.469V7.5625C102.469 6.66406 101.681 5.90234 100.105 5.27734C99.0117 4.84766 97.8138 4.63281 96.5117 4.63281C95.2096 4.63281 94.0117 4.84766 92.918 5.27734C91.3424 5.90234 90.5547 6.66406 90.5547 7.5625V30.0234L86.8438 31.7812H86.6484Z" fill="#C38D00"/>
</svg>
