<svg width="176" height="32" viewBox="0 0 176 32" fill="none" xmlns="http://www.w3.org/2000/svg">
<path d="M4.8125 17.5234H10.3789C11.681 17.5234 12.8789 17.3086 13.9727 16.8789C15.5482 16.2539 16.3359 15.4922 16.3359 14.5938V7.95312C16.3359 7.04167 15.5482 6.27995 13.9727 5.66797C12.8789 5.23828 11.681 5.02344 10.3789 5.02344H4.8125V17.5234ZM0.90625 31.7812V2.48438L2.97656 1.50781H10.3789C12.3451 1.50781 14.1549 1.85286 15.8086 2.54297C18.7643 3.76693 20.2422 5.57031 20.2422 7.95312V14.5938C20.2422 16.9896 18.7643 18.793 15.8086 20.0039C15.2357 20.2383 14.6432 20.4336 14.0312 20.5898L20.7109 30.1602L17.2734 31.7812H17.0781L9.55859 21.0391H4.8125V30.0234L1.10156 31.7812H0.90625ZM27.5469 31V2.48438L29.6172 1.50781H42V1.70312L40.418 5.0625H31.4531V14.4766H42V14.6719L40.418 18.0312H31.4531V27.4453H45.2617V27.6406L43.6797 31H27.5469ZM69.8906 14.4766V24.9453C69.8906 27.3281 68.4128 29.1315 65.457 30.3555C63.8034 31.0456 61.9935 31.3906 60.0273 31.3906C58.0612 31.3906 56.2513 31.0456 54.5977 30.3555C51.6419 29.1315 50.1641 27.3281 50.1641 24.9453V7.5625C50.1641 5.17969 51.6419 3.3763 54.5977 2.15234C56.2513 1.46224 58.0612 1.11719 60.0273 1.11719C61.9935 1.11719 63.8034 1.46224 65.457 2.15234C68.4128 3.3763 69.8906 5.17969 69.8906 7.5625V10.4922L66.1797 12.25H65.9844V7.5625C65.9844 6.66406 65.1966 5.90234 63.6211 5.27734C62.5273 4.84766 61.3294 4.63281 60.0273 4.63281C58.7253 4.63281 57.5273 4.84766 56.4336 5.27734C54.8581 5.90234 54.0703 6.66406 54.0703 7.5625V24.9453C54.0703 25.8438 54.8581 26.6055 56.4336 27.2305C57.5273 27.6602 58.7253 27.875 60.0273 27.875C61.3294 27.875 62.5273 27.6602 63.6211 27.2305C65.1966 26.6055 65.9844 25.8438 65.9844 24.9453V18.0312H59.1875V17.8359L60.7695 14.4766H69.8906ZM77.7031 31.7812V2.48438L81.4141 0.726562H81.6094V30.0234L77.8984 31.7812H77.7031ZM88.6406 22.0156L92.3516 20.2578H92.5469V24.9453C92.5469 25.8438 93.3346 26.6055 94.9102 27.2305C96.0039 27.6602 97.2018 27.875 98.5039 27.875C99.806 27.875 101.004 27.6602 102.098 27.2305C103.673 26.6055 104.461 25.8438 104.461 24.9453V19.2617C104.461 18.3503 103.673 17.5885 102.098 16.9766C101.004 16.5469 99.806 16.332 98.5039 16.332C96.8503 16.332 95.3659 16.0781 94.0508 15.5703C91.6159 14.6068 90.3984 13.2656 90.3984 11.5469V5.90234C90.3984 4.15755 91.6159 2.81641 94.0508 1.87891C95.3659 1.37109 96.8503 1.11719 98.5039 1.11719C100.158 1.11719 101.642 1.37109 102.957 1.87891C105.392 2.84245 106.609 4.18359 106.609 5.90234V8.40234L102.898 10.1602H102.703V6.58594C102.703 5.9349 102.293 5.44661 101.473 5.12109C100.665 4.79557 99.6758 4.63281 98.5039 4.63281C97.332 4.63281 96.3359 4.79557 95.5156 5.12109C94.7083 5.44661 94.3047 5.9349 94.3047 6.58594V10.8633C94.3047 11.5143 94.7083 12.0026 95.5156 12.3281C96.3359 12.6536 97.332 12.8164 98.5039 12.8164C100.47 12.8164 102.28 13.1615 103.934 13.8516C106.889 15.0755 108.367 16.8789 108.367 19.2617V24.9453C108.367 27.3151 106.889 29.1185 103.934 30.3555C102.28 31.0456 100.47 31.3906 98.5039 31.3906C96.5378 31.3906 94.7279 31.0456 93.0742 30.3555C90.1185 29.1315 88.6406 27.3281 88.6406 24.9453V22.0156ZM117.02 31.7812V5.0625H108.66V4.86719L110.242 1.50781H129.285V1.70312L127.703 5.0625H120.926V30.0234L117.215 31.7812H117.02ZM135.242 17.5234H140.809C142.111 17.5234 143.309 17.3086 144.402 16.8789C145.978 16.2539 146.766 15.4922 146.766 14.5938V7.95312C146.766 7.04167 145.978 6.27995 144.402 5.66797C143.309 5.23828 142.111 5.02344 140.809 5.02344H135.242V17.5234ZM131.336 31.7812V2.48438L133.406 1.50781H140.809C142.775 1.50781 144.585 1.85286 146.238 2.54297C149.194 3.76693 150.672 5.57031 150.672 7.95312V14.5938C150.672 16.9896 149.194 18.793 146.238 20.0039C145.665 20.2383 145.073 20.4336 144.461 20.5898L151.141 30.1602L147.703 31.7812H147.508L139.988 21.0391H135.242V30.0234L131.531 31.7812H131.336ZM157.977 31V2.48438L160.047 1.50781H172.43V1.70312L170.848 5.0625H161.883V14.4766H172.43V14.6719L170.848 18.0312H161.883V27.4453H175.691V27.6406L174.109 31H157.977Z" fill="#C38D00"/>
</svg>
