<svg width="28" height="28" viewBox="0 0 28 28" fill="none" xmlns="http://www.w3.org/2000/svg">
<g clip-path="url(#clip0_74_387)">
<path d="M17.8889 3.11108H5.44444C5.03188 3.11108 4.63622 3.27497 4.3445 3.5667C4.05277 3.85842 3.88889 4.25408 3.88889 4.66664V23.3333C3.88889 23.7459 4.05277 24.1415 4.3445 24.4333C4.63622 24.725 5.03188 24.8889 5.44444 24.8889H17.8889C18.3014 24.8889 18.6971 24.725 18.9888 24.4333C19.2806 24.1415 19.4444 23.7459 19.4444 23.3333V18.6666H12.1567C11.9504 18.6666 11.7526 18.5847 11.6067 18.4388C11.4608 18.293 11.3789 18.0951 11.3789 17.8889C11.3789 17.6826 11.4608 17.4848 11.6067 17.3389C11.7526 17.193 11.9504 17.1111 12.1567 17.1111H19.4444V4.66664C19.4444 4.25408 19.2806 3.85842 18.9888 3.5667C18.6971 3.27497 18.3014 3.11108 17.8889 3.11108Z" fill="#FBFBFB"/>
<path d="M21.9022 13.44C21.7534 13.3125 21.562 13.2459 21.3663 13.2535C21.1705 13.2611 20.9849 13.3422 20.8463 13.4807C20.7078 13.6193 20.6267 13.8049 20.6191 14.0007C20.6116 14.1964 20.6781 14.3878 20.8056 14.5366L23.4344 17.1111H19.4444V18.6666H23.4344L20.8056 21.3577C20.7241 21.4275 20.658 21.5133 20.6113 21.6098C20.5646 21.7062 20.5384 21.8113 20.5343 21.9185C20.5301 22.0256 20.5482 22.1324 20.5873 22.2322C20.6264 22.332 20.6857 22.4227 20.7615 22.4985C20.8373 22.5743 20.9279 22.6336 21.0277 22.6727C21.1276 22.7118 21.2344 22.7298 21.3415 22.7257C21.4486 22.7215 21.5537 22.6953 21.6502 22.6486C21.7467 22.6019 21.8325 22.5358 21.9022 22.4544L26.4444 17.9433L21.9022 13.44Z" fill="white"/>
</g>
<defs>
<clipPath id="clip0_74_387">
<rect width="28" height="28" fill="white"/>
</clipPath>
</defs>
</svg>
