<svg width="61" height="71" viewBox="0 0 61 71" fill="none" xmlns="http://www.w3.org/2000/svg">
<path d="M40.4062 43.4461C39.9642 43.3026 37.17 42.0525 38.916 36.7846H38.891C43.4423 32.132 46.9205 24.6454 46.9205 17.2747C46.9205 5.94127 39.3275 0 30.5028 0C21.6725 0 14.1212 5.93851 14.1212 17.2747C14.1212 24.6757 17.5799 32.1927 22.1591 36.8342C23.944 41.4813 20.7522 43.206 20.085 43.4488C10.8432 46.7658 0 52.8119 0 58.7808V61.0188C0 69.1511 15.8867 71 30.589 71C45.3135 71 61 69.1511 61 61.0188V58.7808C61 52.6326 50.104 46.6333 40.4062 43.4461Z" fill="#474747"/>
</svg>
