<svg width="66" height="66" viewBox="0 0 66 66" fill="none" xmlns="http://www.w3.org/2000/svg">
<path d="M33 60.5C43.2272 60.5 52.4232 54.9038 57.2247 45.8865L35.75 33L57.2247 20.1135C52.4232 11.0963 43.2272 5.5 33 5.5C17.8365 5.5 5.5 17.8365 5.5 33C5.5 48.1635 17.8365 60.5 33 60.5ZM31.625 16.5C32.7194 16.5004 33.7688 16.9355 34.5424 17.7096C35.316 18.4837 35.7504 19.5334 35.75 20.6277C35.7496 21.7221 35.3145 22.7715 34.5404 23.5451C33.7663 24.3187 32.7166 24.7531 31.6222 24.7528C30.5279 24.7524 29.4784 24.3173 28.7049 23.5432C27.9313 22.7691 27.4969 21.7194 27.4972 20.625C27.4976 19.5306 27.9327 18.4812 28.7068 17.7076C29.4809 16.934 30.5306 16.4996 31.625 16.5Z" fill="#474747"/>
</svg>
