<svg width="163" height="38" viewBox="0 0 163 38" fill="none" xmlns="http://www.w3.org/2000/svg">
<path d="M17.56 12.1L15.1 26H12.82L14.5 16.48L8.58 26H7L4.42 16.48L2.74 26H0.46L2.92 12.1H5.38L8.34 23L15.12 12.1H17.56ZM22.9167 26.18C21.9834 26.18 21.1634 25.9867 20.4567 25.6C19.7501 25.2133 19.1967 24.6667 18.7967 23.96C18.4101 23.2533 18.2167 22.4467 18.2167 21.54C18.2167 20.3 18.5034 19.1667 19.0767 18.14C19.6634 17.1133 20.4634 16.3 21.4767 15.7C22.5034 15.1 23.6434 14.8 24.8967 14.8C25.8301 14.8 26.6567 15 27.3767 15.4C28.0967 15.7867 28.6567 16.3333 29.0567 17.04C29.4701 17.7333 29.6767 18.54 29.6767 19.46C29.6767 20.7 29.3767 21.8333 28.7767 22.86C28.1767 23.8867 27.3634 24.7 26.3367 25.3C25.3101 25.8867 24.1701 26.18 22.9167 26.18ZM23.1967 24.26C23.9567 24.26 24.6501 24.0467 25.2767 23.62C25.9167 23.18 26.4167 22.6067 26.7767 21.9C27.1367 21.18 27.3167 20.4133 27.3167 19.6C27.3167 18.68 27.0567 17.9733 26.5367 17.48C26.0167 16.9733 25.3634 16.72 24.5767 16.72C23.8034 16.72 23.1101 16.94 22.4967 17.38C21.8967 17.8067 21.4234 18.3867 21.0767 19.12C20.7434 19.84 20.5767 20.6133 20.5767 21.44C20.5767 22.3333 20.8167 23.0267 21.2967 23.52C21.7901 24.0133 22.4234 24.26 23.1967 24.26ZM31.0706 20.44C31.2706 19.3333 31.6706 18.3533 32.2706 17.5C32.884 16.6467 33.6306 15.9867 34.5106 15.52C35.3906 15.04 36.3173 14.8 37.2906 14.8C38.0106 14.8 38.6906 14.96 39.3306 15.28C39.9706 15.5867 40.4573 16 40.7906 16.52L41.7306 11.2H44.0306L41.4106 26H39.1106L39.4106 24.34C38.9306 24.8867 38.3306 25.3333 37.6106 25.68C36.904 26.0133 36.124 26.18 35.2706 26.18C34.4306 26.18 33.684 25.9933 33.0306 25.62C32.3773 25.2467 31.864 24.72 31.4906 24.04C31.1306 23.3467 30.9506 22.5533 30.9506 21.66C30.9506 21.26 30.9906 20.8533 31.0706 20.44ZM40.0906 20.48C40.144 20.2267 40.1706 19.9533 40.1706 19.66C40.1706 18.7667 39.904 18.0667 39.3706 17.56C38.8506 17.04 38.1973 16.78 37.4106 16.78C36.824 16.78 36.2506 16.9267 35.6906 17.22C35.1306 17.5 34.644 17.92 34.2306 18.48C33.8173 19.0267 33.544 19.68 33.4106 20.44C33.3573 20.6933 33.3306 20.9667 33.3306 21.26C33.3306 22.1667 33.5906 22.8867 34.1106 23.42C34.644 23.94 35.304 24.2 36.0906 24.2C36.6773 24.2 37.2506 24.0533 37.8106 23.76C38.3706 23.4667 38.8573 23.04 39.2706 22.48C39.684 21.9067 39.9573 21.24 40.0906 20.48ZM56.3253 14.98L54.3853 26H52.1053L52.3253 24.7C51.8853 25.1533 51.352 25.5133 50.7253 25.78C50.112 26.0333 49.4786 26.16 48.8253 26.16C47.6653 26.16 46.7386 25.8467 46.0453 25.22C45.352 24.5933 45.0053 23.7067 45.0053 22.56C45.0053 22.2533 45.0386 21.8867 45.1053 21.46L46.2453 14.98H48.5053L47.4253 21.12C47.372 21.4933 47.3453 21.76 47.3453 21.92C47.3453 22.6533 47.5453 23.2133 47.9453 23.6C48.3586 23.9867 48.9253 24.18 49.6453 24.18C50.4853 24.18 51.1986 23.9333 51.7853 23.44C52.372 22.9333 52.7586 22.2067 52.9453 21.26L54.0453 14.98H56.3253ZM62.2936 11.2L59.6736 26H57.3936L60.0136 11.2H62.2936ZM69.387 14.8C70.7604 14.8 71.8537 15.1867 72.667 15.96C73.4937 16.7333 73.907 17.7733 73.907 19.08C73.907 19.3867 73.8737 19.7533 73.807 20.18C73.7537 20.4733 73.6604 20.8333 73.527 21.26H65.107C65.0937 21.3533 65.087 21.4933 65.087 21.68C65.087 22.4667 65.327 23.0933 65.807 23.56C66.3004 24.0267 66.9404 24.26 67.727 24.26C68.967 24.26 69.9204 23.7467 70.587 22.72H73.047C72.5404 23.7333 71.7937 24.5667 70.807 25.22C69.8204 25.86 68.6804 26.18 67.387 26.18C66.467 26.18 65.6604 26 64.967 25.64C64.2737 25.28 63.7337 24.7667 63.347 24.1C62.9604 23.42 62.767 22.6267 62.767 21.72C62.767 21.3333 62.807 20.92 62.887 20.48C63.087 19.3467 63.4937 18.3533 64.107 17.5C64.7204 16.6333 65.4804 15.9667 66.387 15.5C67.307 15.0333 68.307 14.8 69.387 14.8ZM71.527 19.62C71.5537 19.38 71.567 19.2067 71.567 19.1C71.567 18.3667 71.3204 17.7867 70.827 17.36C70.347 16.9333 69.7204 16.72 68.947 16.72C68.1337 16.72 67.4004 16.98 66.747 17.5C66.0937 18.02 65.647 18.7267 65.407 19.62H71.527ZM75.9108 26.14C75.5508 26.14 75.2574 26.0267 75.0308 25.8C74.8041 25.5733 74.6908 25.2867 74.6908 24.94C74.6908 24.4733 74.8641 24.0733 75.2108 23.74C75.5708 23.3933 75.9774 23.22 76.4308 23.22C76.7908 23.22 77.0774 23.3333 77.2908 23.56C77.5174 23.7867 77.6308 24.0733 77.6308 24.42C77.6308 24.8867 77.4574 25.2933 77.1108 25.64C76.7641 25.9733 76.3641 26.14 75.9108 26.14ZM75.9108 17.74C75.5508 17.74 75.2574 17.6267 75.0308 17.4C74.8041 17.1733 74.6908 16.8867 74.6908 16.54C74.6908 16.0733 74.8641 15.6733 75.2108 15.34C75.5708 14.9933 75.9774 14.82 76.4308 14.82C76.7908 14.82 77.0774 14.9333 77.2908 15.16C77.5174 15.3867 77.6308 15.6733 77.6308 16.02C77.6308 16.4867 77.4574 16.8933 77.1108 17.24C76.7641 17.5733 76.3641 17.74 75.9108 17.74Z" fill="#D49900"/>
<path d="M90.175 10.55V21.35C90.175 22.5333 90.4833 23.4417 91.1 24.075C91.7167 24.6917 92.5833 25 93.7 25C94.8333 25 95.7083 24.6917 96.325 24.075C96.9417 23.4417 97.25 22.5333 97.25 21.35V10.55H100.775V21.325C100.775 22.8083 100.45 24.0667 99.8 25.1C99.1667 26.1167 98.3083 26.8833 97.225 27.4C96.1583 27.9167 94.9667 28.175 93.65 28.175C92.35 28.175 91.1667 27.9167 90.1 27.4C89.05 26.8833 88.2167 26.1167 87.6 25.1C86.9833 24.0667 86.675 22.8083 86.675 21.325V10.55H90.175ZM110.182 28.175C108.965 28.175 107.865 27.9667 106.882 27.55C105.915 27.1333 105.148 26.5333 104.582 25.75C104.015 24.9667 103.723 24.0417 103.707 22.975H107.457C107.507 23.6917 107.757 24.2583 108.207 24.675C108.673 25.0917 109.307 25.3 110.107 25.3C110.923 25.3 111.565 25.1083 112.032 24.725C112.498 24.325 112.732 23.8083 112.732 23.175C112.732 22.6583 112.573 22.2333 112.257 21.9C111.94 21.5667 111.54 21.3083 111.057 21.125C110.59 20.925 109.94 20.7083 109.107 20.475C107.973 20.1417 107.048 19.8167 106.332 19.5C105.632 19.1667 105.023 18.675 104.507 18.025C104.007 17.3583 103.757 16.475 103.757 15.375C103.757 14.3417 104.015 13.4417 104.532 12.675C105.048 11.9083 105.773 11.325 106.707 10.925C107.64 10.5083 108.707 10.3 109.907 10.3C111.707 10.3 113.165 10.7417 114.282 11.625C115.415 12.4917 116.04 13.7083 116.157 15.275H112.307C112.273 14.675 112.015 14.1833 111.532 13.8C111.065 13.4 110.44 13.2 109.657 13.2C108.973 13.2 108.423 13.375 108.007 13.725C107.607 14.075 107.407 14.5833 107.407 15.25C107.407 15.7167 107.557 16.1083 107.857 16.425C108.173 16.725 108.557 16.975 109.007 17.175C109.473 17.3583 110.123 17.575 110.957 17.825C112.09 18.1583 113.015 18.4917 113.732 18.825C114.448 19.1583 115.065 19.6583 115.582 20.325C116.098 20.9917 116.357 21.8667 116.357 22.95C116.357 23.8833 116.115 24.75 115.632 25.55C115.148 26.35 114.44 26.9917 113.507 27.475C112.573 27.9417 111.465 28.175 110.182 28.175ZM122.891 13.375V17.75H128.766V20.525H122.891V25.15H129.516V28H119.391V10.525H129.516V13.375H122.891ZM141.697 28L137.847 21.2H136.197V28H132.697V10.55H139.247C140.597 10.55 141.747 10.7917 142.697 11.275C143.647 11.7417 144.355 12.3833 144.822 13.2C145.305 14 145.547 14.9 145.547 15.9C145.547 17.05 145.213 18.0917 144.547 19.025C143.88 19.9417 142.888 20.575 141.572 20.925L145.747 28H141.697ZM136.197 18.575H139.122C140.072 18.575 140.78 18.35 141.247 17.9C141.713 17.4333 141.947 16.7917 141.947 15.975C141.947 15.175 141.713 14.5583 141.247 14.125C140.78 13.675 140.072 13.45 139.122 13.45H136.197V18.575ZM154.737 28.175C153.521 28.175 152.421 27.9667 151.437 27.55C150.471 27.1333 149.704 26.5333 149.137 25.75C148.571 24.9667 148.279 24.0417 148.262 22.975H152.012C152.062 23.6917 152.312 24.2583 152.762 24.675C153.229 25.0917 153.862 25.3 154.662 25.3C155.479 25.3 156.121 25.1083 156.587 24.725C157.054 24.325 157.287 23.8083 157.287 23.175C157.287 22.6583 157.129 22.2333 156.812 21.9C156.496 21.5667 156.096 21.3083 155.612 21.125C155.146 20.925 154.496 20.7083 153.662 20.475C152.529 20.1417 151.604 19.8167 150.887 19.5C150.187 19.1667 149.579 18.675 149.062 18.025C148.562 17.3583 148.312 16.475 148.312 15.375C148.312 14.3417 148.571 13.4417 149.087 12.675C149.604 11.9083 150.329 11.325 151.262 10.925C152.196 10.5083 153.262 10.3 154.462 10.3C156.262 10.3 157.721 10.7417 158.837 11.625C159.971 12.4917 160.596 13.7083 160.712 15.275H156.862C156.829 14.675 156.571 14.1833 156.087 13.8C155.621 13.4 154.996 13.2 154.212 13.2C153.529 13.2 152.979 13.375 152.562 13.725C152.162 14.075 151.962 14.5833 151.962 15.25C151.962 15.7167 152.112 16.1083 152.412 16.425C152.729 16.725 153.112 16.975 153.562 17.175C154.029 17.3583 154.679 17.575 155.512 17.825C156.646 18.1583 157.571 18.4917 158.287 18.825C159.004 19.1583 159.621 19.6583 160.137 20.325C160.654 20.9917 160.912 21.8667 160.912 22.95C160.912 23.8833 160.671 24.75 160.187 25.55C159.704 26.35 158.996 26.9917 158.062 27.475C157.129 27.9417 156.021 28.175 154.737 28.175Z" fill="#444444"/>
</svg>
