<svg width="195" height="32" viewBox="0 0 195 32" fill="none" xmlns="http://www.w3.org/2000/svg">
<path d="M0.90625 31.7812V7.5625C0.90625 5.17969 2.38411 3.3763 5.33984 2.15234C6.99349 1.46224 8.80339 1.11719 10.7695 1.11719C12.7357 1.11719 14.5456 1.46224 16.1992 2.15234C19.1549 3.3763 20.6328 5.17969 20.6328 7.5625C20.6328 7.5625 20.6328 15.0495 20.6328 30.0234L16.9219 31.7812H16.7266V18.0312H4.8125V30.0234L1.10156 31.7812H0.90625ZM4.8125 14.4766H16.7266V7.5625C16.7266 6.66406 15.9388 5.90234 14.3633 5.27734C13.2695 4.84766 12.0716 4.63281 10.7695 4.63281C9.46745 4.63281 8.26953 4.84766 7.17578 5.27734C5.60026 5.90234 4.8125 6.66406 4.8125 7.5625V14.4766ZM32.3516 27.4844H37.918C39.2201 27.4844 40.418 27.2695 41.5117 26.8398C43.0872 26.2148 43.875 25.4531 43.875 24.5547V7.95312C43.875 7.05469 43.0872 6.29297 41.5117 5.66797C40.431 5.23828 39.2331 5.02344 37.918 5.02344H32.3516V27.4844ZM28.4453 31V2.48438L30.5156 1.50781H37.918C39.8841 1.50781 41.694 1.85286 43.3477 2.54297C46.3034 3.76693 47.7812 5.57031 47.7812 7.95312V24.5547C47.7812 26.9375 46.3034 28.7409 43.3477 29.9648C41.694 30.6549 39.8841 31 37.918 31H28.4453ZM59.5 27.4844H65.0664C66.3685 27.4844 67.5664 27.2695 68.6602 26.8398C70.2357 26.2148 71.0234 25.4531 71.0234 24.5547V7.95312C71.0234 7.05469 70.2357 6.29297 68.6602 5.66797C67.5794 5.23828 66.3815 5.02344 65.0664 5.02344H59.5V27.4844ZM55.5938 31V2.48438L57.6641 1.50781H65.0664C67.0326 1.50781 68.8424 1.85286 70.4961 2.54297C73.4518 3.76693 74.9297 5.57031 74.9297 7.95312V24.5547C74.9297 26.9375 73.4518 28.7409 70.4961 29.9648C68.8424 30.6549 67.0326 31 65.0664 31H55.5938ZM98.3672 2.48438L102.078 0.726562H102.273V24.9453C102.273 25.8438 103.061 26.6055 104.637 27.2305C105.73 27.6602 106.928 27.875 108.23 27.875C109.533 27.875 110.73 27.6602 111.824 27.2305C113.4 26.6055 114.188 25.8438 114.188 24.9453V2.48438L117.898 0.726562H118.094V24.9453C118.094 27.3281 116.616 29.1315 113.66 30.3555C112.007 31.0456 110.197 31.3906 108.23 31.3906C106.264 31.3906 104.454 31.0456 102.801 30.3555C99.8451 29.1315 98.3672 27.3281 98.3672 24.9453V2.48438ZM125.125 22.0156L128.836 20.2578H129.031V24.9453C129.031 25.8438 129.819 26.6055 131.395 27.2305C132.488 27.6602 133.686 27.875 134.988 27.875C136.29 27.875 137.488 27.6602 138.582 27.2305C140.158 26.6055 140.945 25.8438 140.945 24.9453V19.2617C140.945 18.3503 140.158 17.5885 138.582 16.9766C137.488 16.5469 136.29 16.332 134.988 16.332C133.335 16.332 131.85 16.0781 130.535 15.5703C128.1 14.6068 126.883 13.2656 126.883 11.5469V5.90234C126.883 4.15755 128.1 2.81641 130.535 1.87891C131.85 1.37109 133.335 1.11719 134.988 1.11719C136.642 1.11719 138.126 1.37109 139.441 1.87891C141.876 2.84245 143.094 4.18359 143.094 5.90234V8.40234L139.383 10.1602H139.188V6.58594C139.188 5.9349 138.777 5.44661 137.957 5.12109C137.15 4.79557 136.16 4.63281 134.988 4.63281C133.816 4.63281 132.82 4.79557 132 5.12109C131.193 5.44661 130.789 5.9349 130.789 6.58594V10.8633C130.789 11.5143 131.193 12.0026 132 12.3281C132.82 12.6536 133.816 12.8164 134.988 12.8164C136.954 12.8164 138.764 13.1615 140.418 13.8516C143.374 15.0755 144.852 16.8789 144.852 19.2617V24.9453C144.852 27.3151 143.374 29.1185 140.418 30.3555C138.764 31.0456 136.954 31.3906 134.988 31.3906C133.022 31.3906 131.212 31.0456 129.559 30.3555C126.603 29.1315 125.125 27.3281 125.125 24.9453V22.0156ZM151.883 31V2.48438L153.953 1.50781H166.336V1.70312L164.754 5.0625H155.789V14.4766H166.336V14.6719L164.754 18.0312H155.789V27.4453H169.598V27.6406L168.016 31H151.883ZM178.406 17.5234H183.973C185.275 17.5234 186.473 17.3086 187.566 16.8789C189.142 16.2539 189.93 15.4922 189.93 14.5938V7.95312C189.93 7.04167 189.142 6.27995 187.566 5.66797C186.473 5.23828 185.275 5.02344 183.973 5.02344H178.406V17.5234ZM174.5 31.7812V2.48438L176.57 1.50781H183.973C185.939 1.50781 187.749 1.85286 189.402 2.54297C192.358 3.76693 193.836 5.57031 193.836 7.95312V14.5938C193.836 16.9896 192.358 18.793 189.402 20.0039C188.829 20.2383 188.237 20.4336 187.625 20.5898L194.305 30.1602L190.867 31.7812H190.672L183.152 21.0391H178.406V30.0234L174.695 31.7812H174.5Z" fill="#363636"/>
</svg>
