<svg width="215" height="31" viewBox="0 0 215 31" fill="none" xmlns="http://www.w3.org/2000/svg">
<path d="M0.90625 30.7812V6.5625C0.90625 4.17969 2.38411 2.3763 5.33984 1.15234C6.99349 0.46224 8.80339 0.117188 10.7695 0.117188C12.7357 0.117188 14.5456 0.46224 16.1992 1.15234C19.1549 2.3763 20.6328 4.17969 20.6328 6.5625C20.6328 6.5625 20.6328 14.0495 20.6328 29.0234L16.9219 30.7812H16.7266V17.0312H4.8125V29.0234L1.10156 30.7812H0.90625ZM4.8125 13.4766H16.7266V6.5625C16.7266 5.66406 15.9388 4.90234 14.3633 4.27734C13.2695 3.84766 12.0716 3.63281 10.7695 3.63281C9.46745 3.63281 8.26953 3.84766 7.17578 4.27734C5.60026 4.90234 4.8125 5.66406 4.8125 6.5625V13.4766ZM32.3516 26.4844H37.918C39.2201 26.4844 40.418 26.2695 41.5117 25.8398C43.0872 25.2148 43.875 24.4531 43.875 23.5547V6.95312C43.875 6.05469 43.0872 5.29297 41.5117 4.66797C40.431 4.23828 39.2331 4.02344 37.918 4.02344H32.3516V26.4844ZM28.4453 30V1.48438L30.5156 0.507812H37.918C39.8841 0.507812 41.694 0.852865 43.3477 1.54297C46.3034 2.76693 47.7812 4.57031 47.7812 6.95312V23.5547C47.7812 25.9375 46.3034 27.7409 43.3477 28.9648C41.694 29.6549 39.8841 30 37.918 30H28.4453ZM59.5 26.4844H65.0664C66.3685 26.4844 67.5664 26.2695 68.6602 25.8398C70.2357 25.2148 71.0234 24.4531 71.0234 23.5547V6.95312C71.0234 6.05469 70.2357 5.29297 68.6602 4.66797C67.5794 4.23828 66.3815 4.02344 65.0664 4.02344H59.5V26.4844ZM55.5938 30V1.48438L57.6641 0.507812H65.0664C67.0326 0.507812 68.8424 0.852865 70.4961 1.54297C73.4518 2.76693 74.9297 4.57031 74.9297 6.95312V23.5547C74.9297 25.9375 73.4518 27.7409 70.4961 28.9648C68.8424 29.6549 67.0326 30 65.0664 30H55.5938ZM118.094 13.4766V23.9453C118.094 26.3281 116.616 28.1315 113.66 29.3555C112.007 30.0456 110.197 30.3906 108.23 30.3906C106.264 30.3906 104.454 30.0456 102.801 29.3555C99.8451 28.1315 98.3672 26.3281 98.3672 23.9453V6.5625C98.3672 4.17969 99.8451 2.3763 102.801 1.15234C104.454 0.46224 106.264 0.117188 108.23 0.117188C110.197 0.117188 112.007 0.46224 113.66 1.15234C116.616 2.3763 118.094 4.17969 118.094 6.5625V9.49219L114.383 11.25H114.188V6.5625C114.188 5.66406 113.4 4.90234 111.824 4.27734C110.73 3.84766 109.533 3.63281 108.23 3.63281C106.928 3.63281 105.73 3.84766 104.637 4.27734C103.061 4.90234 102.273 5.66406 102.273 6.5625V23.9453C102.273 24.8438 103.061 25.6055 104.637 26.2305C105.73 26.6602 106.928 26.875 108.23 26.875C109.533 26.875 110.73 26.6602 111.824 26.2305C113.4 25.6055 114.188 24.8438 114.188 23.9453V17.0312H107.391V16.8359L108.973 13.4766H118.094ZM125.906 30.7812V6.5625C125.906 4.17969 127.384 2.3763 130.34 1.15234C131.993 0.46224 133.803 0.117188 135.77 0.117188C137.736 0.117188 139.546 0.46224 141.199 1.15234C144.155 2.3763 145.633 4.17969 145.633 6.5625C145.633 6.5625 145.633 14.0495 145.633 29.0234L141.922 30.7812H141.727V17.0312H129.812V29.0234L126.102 30.7812H125.906ZM129.812 13.4766H141.727V6.5625C141.727 5.66406 140.939 4.90234 139.363 4.27734C138.27 3.84766 137.072 3.63281 135.77 3.63281C134.467 3.63281 133.27 3.84766 132.176 4.27734C130.6 4.90234 129.812 5.66406 129.812 6.5625V13.4766ZM153.445 30.7812V6.5625C153.445 4.17969 154.923 2.3763 157.879 1.15234C159.533 0.46224 161.342 0.117188 163.309 0.117188C165.288 0.117188 167.098 0.46224 168.738 1.15234C169.728 1.56901 170.555 2.04427 171.219 2.57812C171.883 2.04427 172.71 1.56901 173.699 1.15234C175.34 0.46224 177.15 0.117188 179.129 0.117188C181.095 0.117188 182.905 0.46224 184.559 1.15234C187.514 2.3763 188.992 4.17969 188.992 6.5625V29.0234L185.281 30.7812H185.086V6.5625C185.086 5.66406 184.298 4.90234 182.723 4.27734C181.629 3.84766 180.431 3.63281 179.129 3.63281C177.827 3.63281 176.629 3.84766 175.535 4.27734C173.96 4.90234 173.172 5.66406 173.172 6.5625V29.0234L169.461 30.7812H169.266V6.5625C169.266 5.66406 168.478 4.90234 166.902 4.27734C165.809 3.84766 164.611 3.63281 163.309 3.63281C162.007 3.63281 160.809 3.84766 159.715 4.27734C158.139 4.90234 157.352 5.66406 157.352 6.5625V29.0234L153.641 30.7812H153.445ZM196.805 30V1.48438L198.875 0.507812H211.258V0.703125L209.676 4.0625H200.711V13.4766H211.258V13.6719L209.676 17.0312H200.711V26.4453H214.52V26.6406L212.938 30H196.805Z" fill="#363636"/>
</svg>
