<svg width="327" height="32" viewBox="0 0 327 32" fill="none" xmlns="http://www.w3.org/2000/svg">
<path d="M0.53125 31.7812V7.5625C0.53125 5.17969 2.00911 3.3763 4.96484 2.15234C6.61849 1.46224 8.42839 1.11719 10.3945 1.11719C12.3607 1.11719 14.1706 1.46224 15.8242 2.15234C18.7799 3.3763 20.2578 5.17969 20.2578 7.5625C20.2578 7.5625 20.2578 15.0495 20.2578 30.0234L16.5469 31.7812H16.3516V18.0312H4.4375V30.0234L0.726562 31.7812H0.53125ZM4.4375 14.4766H16.3516V7.5625C16.3516 6.66406 15.5638 5.90234 13.9883 5.27734C12.8945 4.84766 11.6966 4.63281 10.3945 4.63281C9.09245 4.63281 7.89453 4.84766 6.80078 5.27734C5.22526 5.90234 4.4375 6.66406 4.4375 7.5625V14.4766ZM31.9766 27.4844H37.543C38.8451 27.4844 40.043 27.2695 41.1367 26.8398C42.7122 26.2148 43.5 25.4531 43.5 24.5547V7.95312C43.5 7.05469 42.7122 6.29297 41.1367 5.66797C40.056 5.23828 38.8581 5.02344 37.543 5.02344H31.9766V27.4844ZM28.0703 31V2.48438L30.1406 1.50781H37.543C39.5091 1.50781 41.319 1.85286 42.9727 2.54297C45.9284 3.76693 47.4062 5.57031 47.4062 7.95312V24.5547C47.4062 26.9375 45.9284 28.7409 42.9727 29.9648C41.319 30.6549 39.5091 31 37.543 31H28.0703ZM59.125 27.4844H64.6914C65.9935 27.4844 67.1914 27.2695 68.2852 26.8398C69.8607 26.2148 70.6484 25.4531 70.6484 24.5547V7.95312C70.6484 7.05469 69.8607 6.29297 68.2852 5.66797C67.2044 5.23828 66.0065 5.02344 64.6914 5.02344H59.125V27.4844ZM55.2188 31V2.48438L57.2891 1.50781H64.6914C66.6576 1.50781 68.4674 1.85286 70.1211 2.54297C73.0768 3.76693 74.5547 5.57031 74.5547 7.95312V24.5547C74.5547 26.9375 73.0768 28.7409 70.1211 29.9648C68.4674 30.6549 66.6576 31 64.6914 31H55.2188ZM117.719 20.2578V24.9453C117.719 27.3281 116.241 29.1315 113.285 30.3555C111.632 31.0456 109.822 31.3906 107.855 31.3906C105.889 31.3906 104.079 31.0456 102.426 30.3555C99.4701 29.1315 97.9922 27.3281 97.9922 24.9453V7.5625C97.9922 5.17969 99.4701 3.3763 102.426 2.15234C104.079 1.46224 105.889 1.11719 107.855 1.11719C109.822 1.11719 111.632 1.46224 113.285 2.15234C116.241 3.3763 117.719 5.17969 117.719 7.5625V10.4922L114.008 12.25H113.812V7.5625C113.812 6.67708 113.025 5.91536 111.449 5.27734C110.355 4.84766 109.158 4.63281 107.855 4.63281C106.553 4.63281 105.355 4.84766 104.262 5.27734C102.686 5.90234 101.898 6.66406 101.898 7.5625V24.9453C101.898 25.8307 102.686 26.5924 104.262 27.2305C105.355 27.6602 106.553 27.875 107.855 27.875C109.158 27.875 110.355 27.6602 111.449 27.2305C113.025 26.6055 113.812 25.8438 113.812 24.9453V22.0156L117.523 20.2578H117.719ZM125.531 31.7812V7.5625C125.531 5.17969 127.009 3.3763 129.965 2.15234C131.618 1.46224 133.428 1.11719 135.395 1.11719C137.361 1.11719 139.171 1.46224 140.824 2.15234C143.78 3.3763 145.258 5.17969 145.258 7.5625C145.258 7.5625 145.258 15.0495 145.258 30.0234L141.547 31.7812H141.352V18.0312H129.438V30.0234L125.727 31.7812H125.531ZM129.438 14.4766H141.352V7.5625C141.352 6.66406 140.564 5.90234 138.988 5.27734C137.895 4.84766 136.697 4.63281 135.395 4.63281C134.092 4.63281 132.895 4.84766 131.801 5.27734C130.225 5.90234 129.438 6.66406 129.438 7.5625V14.4766ZM154.691 31.7812V5.0625H146.332V4.86719L147.914 1.50781H166.957V1.70312L165.375 5.0625H158.598V30.0234L154.887 31.7812H154.691ZM169.008 31V2.48438L171.078 1.50781H183.461V1.70312L181.879 5.0625H172.914V14.4766H183.461V14.6719L181.879 18.0312H172.914V27.4453H186.723V27.6406L185.141 31H169.008ZM211.352 14.4766V24.9453C211.352 27.3281 209.874 29.1315 206.918 30.3555C205.264 31.0456 203.454 31.3906 201.488 31.3906C199.522 31.3906 197.712 31.0456 196.059 30.3555C193.103 29.1315 191.625 27.3281 191.625 24.9453V7.5625C191.625 5.17969 193.103 3.3763 196.059 2.15234C197.712 1.46224 199.522 1.11719 201.488 1.11719C203.454 1.11719 205.264 1.46224 206.918 2.15234C209.874 3.3763 211.352 5.17969 211.352 7.5625V10.4922L207.641 12.25H207.445V7.5625C207.445 6.66406 206.658 5.90234 205.082 5.27734C203.988 4.84766 202.79 4.63281 201.488 4.63281C200.186 4.63281 198.988 4.84766 197.895 5.27734C196.319 5.90234 195.531 6.66406 195.531 7.5625V24.9453C195.531 25.8438 196.319 26.6055 197.895 27.2305C198.988 27.6602 200.186 27.875 201.488 27.875C202.79 27.875 203.988 27.6602 205.082 27.2305C206.658 26.6055 207.445 25.8438 207.445 24.9453V18.0312H200.648V17.8359L202.23 14.4766H211.352ZM223.07 24.9453C223.07 25.8307 223.858 26.5924 225.434 27.2305C226.527 27.6602 227.725 27.875 229.027 27.875C230.329 27.875 231.527 27.6602 232.621 27.2305C234.197 26.6055 234.984 25.8438 234.984 24.9453V7.5625C234.984 6.67708 234.197 5.91536 232.621 5.27734C231.527 4.84766 230.329 4.63281 229.027 4.63281C227.725 4.63281 226.527 4.84766 225.434 5.27734C223.858 5.90234 223.07 6.66406 223.07 7.5625V24.9453ZM219.164 24.9453C219.164 24.9453 219.164 19.151 219.164 7.5625C219.164 5.17969 220.642 3.3763 223.598 2.15234C225.251 1.46224 227.061 1.11719 229.027 1.11719C230.993 1.11719 232.803 1.46224 234.457 2.15234C237.413 3.3763 238.891 5.17969 238.891 7.5625V24.9453C238.891 27.3281 237.413 29.1315 234.457 30.3555C232.803 31.0456 230.993 31.3906 229.027 31.3906C227.061 31.3906 225.251 31.0456 223.598 30.3555C220.642 29.1315 219.164 27.3281 219.164 24.9453ZM250.609 17.5234H256.176C257.478 17.5234 258.676 17.3086 259.77 16.8789C261.345 16.2539 262.133 15.4922 262.133 14.5938V7.95312C262.133 7.04167 261.345 6.27995 259.77 5.66797C258.676 5.23828 257.478 5.02344 256.176 5.02344H250.609V17.5234ZM246.703 31.7812V2.48438L248.773 1.50781H256.176C258.142 1.50781 259.952 1.85286 261.605 2.54297C264.561 3.76693 266.039 5.57031 266.039 7.95312V14.5938C266.039 16.9896 264.561 18.793 261.605 20.0039C261.033 20.2383 260.44 20.4336 259.828 20.5898L266.508 30.1602L263.07 31.7812H262.875L255.355 21.0391H250.609V30.0234L246.898 31.7812H246.703ZM273.344 31.7812V2.48438L277.055 0.726562H277.25V30.0234L273.539 31.7812H273.344ZM285.062 31V2.48438L287.133 1.50781H299.516V1.70312L297.934 5.0625H288.969V14.4766H299.516V14.6719L297.934 18.0312H288.969V27.4453H302.777V27.6406L301.195 31H285.062ZM306.898 22.0156L310.609 20.2578H310.805V24.9453C310.805 25.8438 311.592 26.6055 313.168 27.2305C314.262 27.6602 315.46 27.875 316.762 27.875C318.064 27.875 319.262 27.6602 320.355 27.2305C321.931 26.6055 322.719 25.8438 322.719 24.9453V19.2617C322.719 18.3503 321.931 17.5885 320.355 16.9766C319.262 16.5469 318.064 16.332 316.762 16.332C315.108 16.332 313.624 16.0781 312.309 15.5703C309.874 14.6068 308.656 13.2656 308.656 11.5469V5.90234C308.656 4.15755 309.874 2.81641 312.309 1.87891C313.624 1.37109 315.108 1.11719 316.762 1.11719C318.415 1.11719 319.9 1.37109 321.215 1.87891C323.65 2.84245 324.867 4.18359 324.867 5.90234V8.40234L321.156 10.1602H320.961V6.58594C320.961 5.9349 320.551 5.44661 319.73 5.12109C318.923 4.79557 317.934 4.63281 316.762 4.63281C315.59 4.63281 314.594 4.79557 313.773 5.12109C312.966 5.44661 312.562 5.9349 312.562 6.58594V10.8633C312.562 11.5143 312.966 12.0026 313.773 12.3281C314.594 12.6536 315.59 12.8164 316.762 12.8164C318.728 12.8164 320.538 13.1615 322.191 13.8516C325.147 15.0755 326.625 16.8789 326.625 19.2617V24.9453C326.625 27.3151 325.147 29.1185 322.191 30.3555C320.538 31.0456 318.728 31.3906 316.762 31.3906C314.796 31.3906 312.986 31.0456 311.332 30.3555C308.376 29.1315 306.898 27.3281 306.898 24.9453V22.0156Z" fill="#363636"/>
</svg>
