<svg width="151" height="28" viewBox="0 0 151 28" fill="none" xmlns="http://www.w3.org/2000/svg">
<path d="M1.79688 16.834L3.93066 15.8232H4.04297V18.5186C4.04297 19.0352 4.49593 19.4731 5.40186 19.8325C6.03076 20.0796 6.71956 20.2031 7.46826 20.2031C8.21696 20.2031 8.90576 20.0796 9.53467 19.8325C10.4406 19.4731 10.8936 19.0352 10.8936 18.5186V15.2505C10.8936 14.7264 10.4406 14.2884 9.53467 13.9365C8.90576 13.6895 8.21696 13.5659 7.46826 13.5659C6.51742 13.5659 5.6639 13.4199 4.90771 13.1279C3.50765 12.5739 2.80762 11.8027 2.80762 10.8145V7.56885C2.80762 6.56559 3.50765 5.79443 4.90771 5.25537C5.6639 4.96338 6.51742 4.81738 7.46826 4.81738C8.41911 4.81738 9.27262 4.96338 10.0288 5.25537C11.4289 5.80941 12.1289 6.58057 12.1289 7.56885V9.00635L9.99512 10.0171H9.88281V7.96191C9.88281 7.58757 9.64697 7.3068 9.17529 7.11963C8.7111 6.93245 8.14209 6.83887 7.46826 6.83887C6.79443 6.83887 6.22168 6.93245 5.75 7.11963C5.28581 7.3068 5.05371 7.58757 5.05371 7.96191V10.4214C5.05371 10.7957 5.28581 11.0765 5.75 11.2637C6.22168 11.4508 6.79443 11.5444 7.46826 11.5444C8.5988 11.5444 9.63949 11.7428 10.5903 12.1396C12.2899 12.8434 13.1396 13.8804 13.1396 15.2505V18.5186C13.1396 19.8812 12.2899 20.9181 10.5903 21.6294C9.63949 22.0262 8.5988 22.2246 7.46826 22.2246C6.33773 22.2246 5.29704 22.0262 4.34619 21.6294C2.64665 20.9256 1.79688 19.8887 1.79688 18.5186V16.834ZM25.1562 21.4385L23.0225 22.4492H22.9102V21.8428C22.1914 22.0973 21.424 22.2246 20.6079 22.2246C19.7319 22.2246 18.9159 22.0786 18.1597 21.7866C16.7596 21.2326 16.0596 20.4614 16.0596 19.4731V16.4409C16.0596 15.4377 16.7596 14.6665 18.1597 14.1274C18.9159 13.8354 19.7319 13.6895 20.6079 13.6895C21.4315 13.6895 22.1989 13.8167 22.9102 14.0713V12.5664C22.9102 12.1921 22.6743 11.9113 22.2026 11.7241C21.7384 11.5369 21.1694 11.4434 20.4956 11.4434H17.7666V11.3311L18.665 9.42188H20.4956C21.4465 9.42188 22.3 9.56787 23.0562 9.85986C24.4562 10.3989 25.1562 11.1701 25.1562 12.1733V21.4385ZM18.3057 19.0801C18.3057 19.4544 18.5378 19.7352 19.002 19.9224C19.4736 20.1095 20.009 20.2031 20.6079 20.2031C21.2069 20.2031 21.7384 20.1095 22.2026 19.9224C22.6743 19.7352 22.9102 19.4544 22.9102 19.0801V16.834C22.9102 16.4596 22.6743 16.1789 22.2026 15.9917C21.7384 15.8045 21.2069 15.7109 20.6079 15.7109C20.009 15.7109 19.4736 15.8045 19.002 15.9917C18.5378 16.1789 18.3057 16.4596 18.3057 16.834V19.0801ZM31.1758 22.4492L26.8408 10.1182L28.7837 9.19727H28.896L32.0742 18.5635L35.1851 9.19727H35.2974L37.2402 10.1182L33.231 21.5283L31.2881 22.4492H31.1758ZM48.2461 17.0249V19.4731C48.2461 20.4614 47.5461 21.2326 46.146 21.7866C45.3898 22.0786 44.5363 22.2246 43.5854 22.2246C42.6346 22.2246 41.7811 22.0786 41.0249 21.7866C39.6248 21.2326 38.9248 20.4614 38.9248 19.4731V12.1733C38.9248 11.1851 39.6248 10.4139 41.0249 9.85986C41.7811 9.56787 42.6346 9.42188 43.5854 9.42188C44.5363 9.42188 45.3898 9.56787 46.146 9.85986C47.5461 10.4139 48.2461 11.1851 48.2461 12.1733V13.6108L41.1709 19.0801C41.1709 19.4544 41.403 19.7352 41.8672 19.9224C42.3389 20.1095 42.9116 20.2031 43.5854 20.2031C44.2593 20.2031 44.8283 20.1095 45.2925 19.9224C45.7642 19.7352 46 19.4544 46 19.0801V18.0356L48.1338 17.0249H48.2461ZM41.1709 16.7104L46 12.8247V12.5664C46 12.1921 45.7642 11.9113 45.2925 11.7241C44.8283 11.5369 44.2593 11.4434 43.5854 11.4434C42.9116 11.4434 42.3389 11.5369 41.8672 11.7241C41.403 11.9113 41.1709 12.1921 41.1709 12.5664V16.7104ZM72.5039 15.8232V18.5186C72.5039 19.8887 71.6541 20.9256 69.9546 21.6294C69.0037 22.0262 67.9631 22.2246 66.8325 22.2246C65.702 22.2246 64.6613 22.0262 63.7104 21.6294C62.0109 20.9256 61.1611 19.8887 61.1611 18.5186V8.52344C61.1611 7.15332 62.0109 6.11637 63.7104 5.4126C64.6613 5.01579 65.702 4.81738 66.8325 4.81738C67.9631 4.81738 69.0037 5.01579 69.9546 5.4126C71.6541 6.11637 72.5039 7.15332 72.5039 8.52344V10.208L70.3701 11.2188H70.2578V8.52344C70.2578 8.01432 69.8049 7.57633 68.8989 7.20947C68.27 6.9624 67.5812 6.83887 66.8325 6.83887C66.0838 6.83887 65.395 6.9624 64.7661 7.20947C63.8602 7.56885 63.4072 8.00684 63.4072 8.52344V18.5186C63.4072 19.0277 63.8602 19.4657 64.7661 19.8325C65.395 20.0796 66.0838 20.2031 66.8325 20.2031C67.5812 20.2031 68.27 20.0796 68.8989 19.8325C69.8049 19.4731 70.2578 19.0352 70.2578 18.5186V16.834L72.3916 15.8232H72.5039ZM76.9961 22.4492V5.60352L79.1299 4.59277H79.2422V9.80371C79.9609 9.54915 80.7658 9.42188 81.6567 9.42188C82.6076 9.42188 83.4611 9.56787 84.2173 9.85986C85.6174 10.3989 86.3174 11.1701 86.3174 12.1733V21.4385L84.1836 22.4492H84.0713V12.5664C84.0713 12.1921 83.8354 11.9113 83.3638 11.7241C82.8996 11.5369 82.3306 11.4434 81.6567 11.4434C80.9829 11.4434 80.4102 11.5369 79.9385 11.7241C79.4743 11.9113 79.2422 12.1921 79.2422 12.5664V21.4385L77.1084 22.4492H76.9961ZM98.2217 21.4385L96.0879 22.4492H95.9756V21.8428C95.2568 22.0973 94.4894 22.2246 93.6733 22.2246C92.7974 22.2246 91.9813 22.0786 91.2251 21.7866C89.825 21.2326 89.125 20.4614 89.125 19.4731V16.4409C89.125 15.4377 89.825 14.6665 91.2251 14.1274C91.9813 13.8354 92.7974 13.6895 93.6733 13.6895C94.4969 13.6895 95.2643 13.8167 95.9756 14.0713V12.5664C95.9756 12.1921 95.7397 11.9113 95.2681 11.7241C94.8039 11.5369 94.2349 11.4434 93.561 11.4434H90.832V11.3311L91.7305 9.42188H93.561C94.5119 9.42188 95.3654 9.56787 96.1216 9.85986C97.5216 10.3989 98.2217 11.1701 98.2217 12.1733V21.4385ZM91.3711 19.0801C91.3711 19.4544 91.6032 19.7352 92.0674 19.9224C92.5391 20.1095 93.0744 20.2031 93.6733 20.2031C94.2723 20.2031 94.8039 20.1095 95.2681 19.9224C95.7397 19.7352 95.9756 19.4544 95.9756 19.0801V16.834C95.9756 16.4596 95.7397 16.1789 95.2681 15.9917C94.8039 15.8045 94.2723 15.7109 93.6733 15.7109C93.0744 15.7109 92.5391 15.8045 92.0674 15.9917C91.6032 16.1789 91.3711 16.4596 91.3711 16.834V19.0801ZM101.591 22.4492V12.1733C101.591 11.1701 102.291 10.3989 103.691 9.85986C104.447 9.56787 105.301 9.42188 106.251 9.42188C107.202 9.42188 108.056 9.56787 108.812 9.85986C110.212 10.3989 110.912 11.1701 110.912 12.1733V21.4385L108.778 22.4492H108.666V12.5664C108.666 12.1921 108.43 11.9113 107.958 11.7241C107.494 11.5369 106.925 11.4434 106.251 11.4434C105.578 11.4434 105.005 11.5369 104.533 11.7241C104.069 11.9113 103.837 12.1921 103.837 12.5664V21.4385L101.703 22.4492H101.591ZM114.281 19.4731V12.1733C114.281 11.1701 114.981 10.3989 116.381 9.85986C117.138 9.56787 117.991 9.42188 118.942 9.42188C119.893 9.42188 120.746 9.56787 121.502 9.85986C122.903 10.4139 123.603 11.1851 123.603 12.1733V24.0776C123.603 25.0809 122.903 25.8521 121.502 26.3911C120.746 26.6831 119.893 26.8291 118.942 26.8291H115.449V26.7168L116.348 24.8076H118.942C119.616 24.8076 120.185 24.714 120.649 24.5269C121.121 24.3397 121.356 24.0589 121.356 23.6846V21.8428C120.638 22.0973 119.833 22.2246 118.942 22.2246C117.991 22.2246 117.138 22.0786 116.381 21.7866C114.981 21.2326 114.281 20.4614 114.281 19.4731ZM116.527 19.0801C116.527 19.4544 116.759 19.7352 117.224 19.9224C117.695 20.1095 118.268 20.2031 118.942 20.2031C119.623 20.2031 120.196 20.1095 120.66 19.9224C121.124 19.7352 121.356 19.4544 121.356 19.0801V12.5664C121.356 12.1921 121.121 11.9113 120.649 11.7241C120.185 11.5369 119.616 11.4434 118.942 11.4434C118.268 11.4434 117.695 11.5369 117.224 11.7241C116.759 11.9113 116.527 12.1921 116.527 12.5664V19.0801ZM136.63 17.0249V19.4731C136.63 20.4614 135.93 21.2326 134.53 21.7866C133.774 22.0786 132.92 22.2246 131.969 22.2246C131.018 22.2246 130.165 22.0786 129.409 21.7866C128.009 21.2326 127.309 20.4614 127.309 19.4731V12.1733C127.309 11.1851 128.009 10.4139 129.409 9.85986C130.165 9.56787 131.018 9.42188 131.969 9.42188C132.92 9.42188 133.774 9.56787 134.53 9.85986C135.93 10.4139 136.63 11.1851 136.63 12.1733V13.6108L129.555 19.0801C129.555 19.4544 129.787 19.7352 130.251 19.9224C130.723 20.1095 131.295 20.2031 131.969 20.2031C132.643 20.2031 133.212 20.1095 133.676 19.9224C134.148 19.7352 134.384 19.4544 134.384 19.0801V18.0356L136.518 17.0249H136.63ZM129.555 16.7104L134.384 12.8247V12.5664C134.384 12.1921 134.148 11.9113 133.676 11.7241C133.212 11.5369 132.643 11.4434 131.969 11.4434C131.295 11.4434 130.723 11.5369 130.251 11.7241C129.787 11.9113 129.555 12.1921 129.555 12.5664V16.7104ZM139.662 18.0356L141.796 17.0249H141.908V19.0801C141.908 19.4544 142.14 19.7352 142.604 19.9224C143.076 20.1095 143.649 20.2031 144.323 20.2031C145.019 20.2031 145.592 20.1095 146.041 19.9224C146.505 19.7277 146.737 19.4469 146.737 19.0801V17.3281C146.737 16.9613 146.498 16.6805 146.019 16.4858C145.554 16.2987 144.985 16.2051 144.312 16.2051C143.57 16.2051 142.833 16.0591 142.099 15.7671C140.789 15.2355 140.134 14.4644 140.134 13.4536V12.1733C140.134 11.215 140.755 10.4663 141.998 9.92725C142.769 9.59033 143.544 9.42188 144.323 9.42188C145.064 9.42188 145.704 9.53418 146.243 9.75879C147.538 10.3128 148.186 11.1177 148.186 12.1733L146.052 13.1841H145.94V12.5664C145.94 12.1322 145.786 11.8364 145.479 11.6792C145.173 11.522 144.787 11.4434 144.323 11.4434C143.679 11.4434 143.192 11.5369 142.863 11.7241C142.541 11.9113 142.38 12.1921 142.38 12.5664V13.0605C142.38 13.4349 142.533 13.7157 142.84 13.9028C143.147 14.09 143.638 14.1836 144.312 14.1836C145.262 14.1836 146.116 14.3296 146.872 14.6216C148.28 15.1606 148.983 15.9318 148.983 16.9351V19.4731C148.983 20.4689 148.283 21.2401 146.883 21.7866C146.127 22.0786 145.274 22.2246 144.323 22.2246C143.372 22.2246 142.518 22.0786 141.762 21.7866C140.362 21.2326 139.662 20.4614 139.662 19.4731V18.0356Z" fill="#212121"/>
<path d="M0 24.2798H150.331V25.6499H0V24.2798Z" fill="#212121"/>
</svg>
