<svg width="169" height="37" viewBox="0 0 169 37" fill="none" xmlns="http://www.w3.org/2000/svg">
<path d="M24.3594 16.1719V28.7344C24.3594 31.5938 22.5859 33.7578 19.0391 35.2266C17.0547 36.0547 14.8828 36.4688 12.5234 36.4688C10.1641 36.4688 7.99219 36.0547 6.00781 35.2266C2.46094 33.7578 0.6875 31.5938 0.6875 28.7344V7.875C0.6875 5.01562 2.46094 2.85156 6.00781 1.38281C7.99219 0.554688 10.1641 0.140625 12.5234 0.140625C14.8828 0.140625 17.0547 0.554688 19.0391 1.38281C22.5859 2.85156 24.3594 5.01562 24.3594 7.875V11.3906L19.9062 13.5H19.6719V7.875C19.6719 6.79688 18.7266 5.88281 16.8359 5.13281C15.5234 4.61719 14.0859 4.35938 12.5234 4.35938C10.9609 4.35938 9.52344 4.61719 8.21094 5.13281C6.32031 5.88281 5.375 6.79688 5.375 7.875V28.7344C5.375 29.8125 6.32031 30.7266 8.21094 31.4766C9.52344 31.9922 10.9609 32.25 12.5234 32.25C14.0859 32.25 15.5234 31.9922 16.8359 31.4766C18.7266 30.7266 19.6719 29.8125 19.6719 28.7344V20.4375H11.5156V20.2031L13.4141 16.1719H24.3594ZM33.7344 36.9375V7.875C33.7344 5.01562 35.5078 2.85156 39.0547 1.38281C41.0391 0.554688 43.2109 0.140625 45.5703 0.140625C47.9297 0.140625 50.1016 0.554688 52.0859 1.38281C55.6328 2.85156 57.4062 5.01562 57.4062 7.875C57.4062 7.875 57.4062 16.8594 57.4062 34.8281L52.9531 36.9375H52.7188V20.4375H38.4219V34.8281L33.9688 36.9375H33.7344ZM38.4219 16.1719H52.7188V7.875C52.7188 6.79688 51.7734 5.88281 49.8828 5.13281C48.5703 4.61719 47.1328 4.35938 45.5703 4.35938C44.0078 4.35938 42.5703 4.61719 41.2578 5.13281C39.3672 5.88281 38.4219 6.79688 38.4219 7.875V16.1719ZM66.7812 36.9375V7.875C66.7812 5.01562 68.5547 2.85156 72.1016 1.38281C74.0859 0.554688 76.2578 0.140625 78.6172 0.140625C80.9922 0.140625 83.1641 0.554688 85.1328 1.38281C86.3203 1.88281 87.3125 2.45313 88.1094 3.09375C88.9062 2.45313 89.8984 1.88281 91.0859 1.38281C93.0547 0.554688 95.2266 0.140625 97.6016 0.140625C99.9609 0.140625 102.133 0.554688 104.117 1.38281C107.664 2.85156 109.438 5.01562 109.438 7.875V34.8281L104.984 36.9375H104.75V7.875C104.75 6.79688 103.805 5.88281 101.914 5.13281C100.602 4.61719 99.1641 4.35938 97.6016 4.35938C96.0391 4.35938 94.6016 4.61719 93.2891 5.13281C91.3984 5.88281 90.4531 6.79688 90.4531 7.875V34.8281L86 36.9375H85.7656V7.875C85.7656 6.79688 84.8203 5.88281 82.9297 5.13281C81.6172 4.61719 80.1797 4.35938 78.6172 4.35938C77.0547 4.35938 75.6172 4.61719 74.3047 5.13281C72.4141 5.88281 71.4688 6.79688 71.4688 7.875V34.8281L67.0156 36.9375H66.7812ZM118.812 36V1.78125L121.297 0.609375H136.156V0.84375L134.258 4.875H123.5V16.1719H136.156V16.4062L134.258 20.4375H123.5V31.7344H140.07V31.9688L138.172 36H118.812ZM145.016 25.2188L149.469 23.1094H149.703V28.7344C149.703 29.8125 150.648 30.7266 152.539 31.4766C153.852 31.9922 155.289 32.25 156.852 32.25C158.414 32.25 159.852 31.9922 161.164 31.4766C163.055 30.7266 164 29.8125 164 28.7344V21.9141C164 20.8203 163.055 19.9062 161.164 19.1719C159.852 18.6562 158.414 18.3984 156.852 18.3984C154.867 18.3984 153.086 18.0938 151.508 17.4844C148.586 16.3281 147.125 14.7188 147.125 12.6562V5.88281C147.125 3.78906 148.586 2.17969 151.508 1.05469C153.086 0.445312 154.867 0.140625 156.852 0.140625C158.836 0.140625 160.617 0.445312 162.195 1.05469C165.117 2.21094 166.578 3.82031 166.578 5.88281V8.88281L162.125 10.9922H161.891V6.70312C161.891 5.92188 161.398 5.33594 160.414 4.94531C159.445 4.55469 158.258 4.35938 156.852 4.35938C155.445 4.35938 154.25 4.55469 153.266 4.94531C152.297 5.33594 151.812 5.92188 151.812 6.70312V11.8359C151.812 12.6172 152.297 13.2031 153.266 13.5938C154.25 13.9844 155.445 14.1797 156.852 14.1797C159.211 14.1797 161.383 14.5938 163.367 15.4219C166.914 16.8906 168.688 19.0547 168.688 21.9141V28.7344C168.688 31.5781 166.914 33.7422 163.367 35.2266C161.383 36.0547 159.211 36.4688 156.852 36.4688C154.492 36.4688 152.32 36.0547 150.336 35.2266C146.789 33.7578 145.016 31.5938 145.016 28.7344V25.2188Z" fill="#363636"/>
</svg>
