<svg width="227" height="32" viewBox="0 0 227 32" fill="none" xmlns="http://www.w3.org/2000/svg">
<path d="M0.90625 31V2.48438L2.97656 1.50781H15.3594V1.70312L13.7773 5.0625H4.8125V14.4766H15.3594V14.6719L13.7773 18.0312H4.8125V27.4453H18.6211V27.6406L17.0391 31H0.90625ZM27.4297 27.4844H32.9961C34.2982 27.4844 35.4961 27.2695 36.5898 26.8398C38.1654 26.2148 38.9531 25.4531 38.9531 24.5547V7.95312C38.9531 7.05469 38.1654 6.29297 36.5898 5.66797C35.5091 5.23828 34.3112 5.02344 32.9961 5.02344H27.4297V27.4844ZM23.5234 31V2.48438L25.5938 1.50781H32.9961C34.9622 1.50781 36.7721 1.85286 38.4258 2.54297C41.3815 3.76693 42.8594 5.57031 42.8594 7.95312V24.5547C42.8594 26.9375 41.3815 28.7409 38.4258 29.9648C36.7721 30.6549 34.9622 31 32.9961 31H23.5234ZM50.6719 31.7812V2.48438L54.3828 0.726562H54.5781V30.0234L50.8672 31.7812H50.6719ZM64.9883 31.7812V5.0625H56.6289V4.86719L58.2109 1.50781H77.2539V1.70312L75.6719 5.0625H68.8945V30.0234L65.1836 31.7812H64.9883ZM96.8828 31.7812V7.5625C96.8828 5.17969 98.3607 3.3763 101.316 2.15234C102.97 1.46224 104.78 1.11719 106.746 1.11719C108.712 1.11719 110.522 1.46224 112.176 2.15234C115.132 3.3763 116.609 5.17969 116.609 7.5625C116.609 7.5625 116.609 15.0495 116.609 30.0234L112.898 31.7812H112.703V18.0312H100.789V30.0234L97.0781 31.7812H96.8828ZM100.789 14.4766H112.703V7.5625C112.703 6.66406 111.915 5.90234 110.34 5.27734C109.246 4.84766 108.048 4.63281 106.746 4.63281C105.444 4.63281 104.246 4.84766 103.152 5.27734C101.577 5.90234 100.789 6.66406 100.789 7.5625V14.4766ZM128.328 27.4844H133.895C135.197 27.4844 136.395 27.2695 137.488 26.8398C139.064 26.2148 139.852 25.4531 139.852 24.5547V7.95312C139.852 7.05469 139.064 6.29297 137.488 5.66797C136.408 5.23828 135.21 5.02344 133.895 5.02344H128.328V27.4844ZM124.422 31V2.48438L126.492 1.50781H133.895C135.861 1.50781 137.671 1.85286 139.324 2.54297C142.28 3.76693 143.758 5.57031 143.758 7.95312V24.5547C143.758 26.9375 142.28 28.7409 139.324 29.9648C137.671 30.6549 135.861 31 133.895 31H124.422ZM151.57 31.7812V7.5625C151.57 5.17969 153.048 3.3763 156.004 2.15234C157.658 1.46224 159.467 1.11719 161.434 1.11719C163.413 1.11719 165.223 1.46224 166.863 2.15234C167.853 2.56901 168.68 3.04427 169.344 3.57812C170.008 3.04427 170.835 2.56901 171.824 2.15234C173.465 1.46224 175.275 1.11719 177.254 1.11719C179.22 1.11719 181.03 1.46224 182.684 2.15234C185.639 3.3763 187.117 5.17969 187.117 7.5625V30.0234L183.406 31.7812H183.211V7.5625C183.211 6.66406 182.423 5.90234 180.848 5.27734C179.754 4.84766 178.556 4.63281 177.254 4.63281C175.952 4.63281 174.754 4.84766 173.66 5.27734C172.085 5.90234 171.297 6.66406 171.297 7.5625V30.0234L167.586 31.7812H167.391V7.5625C167.391 6.66406 166.603 5.90234 165.027 5.27734C163.934 4.84766 162.736 4.63281 161.434 4.63281C160.132 4.63281 158.934 4.84766 157.84 5.27734C156.264 5.90234 155.477 6.66406 155.477 7.5625V30.0234L151.766 31.7812H151.57ZM194.93 31.7812V2.48438L198.641 0.726562H198.836V30.0234L195.125 31.7812H194.93ZM206.648 31.7812V7.5625C206.648 5.17969 208.126 3.3763 211.082 2.15234C212.736 1.46224 214.546 1.11719 216.512 1.11719C218.478 1.11719 220.288 1.46224 221.941 2.15234C224.897 3.3763 226.375 5.17969 226.375 7.5625V30.0234L222.664 31.7812H222.469V7.5625C222.469 6.66406 221.681 5.90234 220.105 5.27734C219.012 4.84766 217.814 4.63281 216.512 4.63281C215.21 4.63281 214.012 4.84766 212.918 5.27734C211.342 5.90234 210.555 6.66406 210.555 7.5625V30.0234L206.844 31.7812H206.648Z" fill="#363636"/>
</svg>
