<svg width="219" height="32" viewBox="0 0 219 32" fill="none" xmlns="http://www.w3.org/2000/svg">
<path d="M5.39844 31C2.14323 31 0.515625 29.6068 0.515625 26.8203V16.2539C0.515625 12.4648 1.14062 9.42448 2.39062 7.13281C4.57812 3.1224 7.61198 1.11719 11.4922 1.11719H16.7266V1.3125L15.2617 4.4375H11.4922C9.07031 4.4375 7.15625 5.84375 5.75 8.65625C5.02083 10.1146 4.59115 12.0938 4.46094 14.5938H15.5547V14.7891L14.0898 17.9141H4.42188V26.8203C4.42188 27.3932 4.7474 27.6797 5.39844 27.6797H13.0938C14.6302 27.6797 15.5938 26.918 15.9844 25.3945H16.1797L19.1094 26.7812C18.3281 29.5938 16.3229 31 13.0938 31H5.39844ZM28.4844 31C25.2292 31 23.6016 29.6068 23.6016 26.8203V16.2539C23.6016 12.4648 24.2266 9.42448 25.4766 7.13281C27.6641 3.1224 30.6979 1.11719 34.5781 1.11719C38.4714 1.11719 41.5052 3.1224 43.6797 7.13281C44.9297 9.42448 45.5547 12.4648 45.5547 16.2539C45.5547 19.5221 44.9167 22.3932 43.6406 24.8672C41.5312 28.9557 38.5104 31 34.5781 31H28.4844ZM34.5781 27.6797C37.013 27.6797 38.9141 26.2344 40.2812 23.3438C41.1927 21.4167 41.6484 19.0534 41.6484 16.2539C41.6484 12.9596 41.2057 10.4271 40.3203 8.65625C38.9141 5.84375 37 4.4375 34.5781 4.4375C32.1693 4.4375 30.2552 5.84375 28.8359 8.65625C27.9505 10.401 27.5078 12.9336 27.5078 16.2539V26.8203C27.5078 27.3932 27.8333 27.6797 28.4844 27.6797H34.5781ZM52.3906 31.7812V2.48438L56.1016 0.726562H56.2969V30.0234L52.5859 31.7812H52.3906ZM66.707 31.7812L66.7266 4.82812H64.3633C62.8138 4.82812 61.8503 5.58984 61.4727 7.11328H61.2773L58.3477 5.72656C59.1159 2.91406 61.1211 1.50781 64.3633 1.50781H78.9727V1.70312L77.5078 4.82812H70.6328L70.6133 30.0234L66.9023 31.7812H66.707ZM119.578 14.5938V16.2539C119.578 20.043 118.953 23.0833 117.703 25.375C115.529 29.3854 112.495 31.3906 108.602 31.3906C104.721 31.3906 101.688 29.3854 99.5 25.375C98.25 23.0833 97.625 20.043 97.625 16.2539C97.625 12.4648 98.25 9.42448 99.5 7.13281C101.688 3.1224 104.721 1.11719 108.602 1.11719C112.495 1.11719 115.529 3.1224 117.703 7.13281L114.539 8.65625H114.344C112.938 5.84375 111.023 4.4375 108.602 4.4375C106.206 4.4375 104.292 5.84375 102.859 8.65625C101.974 10.4141 101.531 12.9466 101.531 16.2539C101.531 19.6003 101.974 22.1328 102.859 23.8516C104.305 26.6641 106.219 28.0703 108.602 28.0703C111.01 28.0703 112.924 26.6641 114.344 23.8516C115.073 22.3932 115.503 20.4141 115.633 17.9141H108.27V17.7188L109.734 14.5938H119.578ZM126.023 31.7812V16.2539C126.023 12.4648 126.648 9.42448 127.898 7.13281C130.086 3.1224 133.12 1.11719 137 1.11719C140.893 1.11719 143.927 3.1224 146.102 7.13281C147.352 9.4375 147.977 12.4779 147.977 16.2539C147.977 19.9779 147.352 23.0182 146.102 25.375C144.344 28.6823 142.052 30.8177 139.227 31.7812H139.031L137.566 28.8711C139.884 27.7773 141.609 26.1042 142.742 23.8516C143.471 22.4062 143.901 20.4271 144.031 17.9141H129.93V30.0234L126.219 31.7812H126.023ZM129.969 14.5938H144.031C143.901 12.0938 143.471 10.1146 142.742 8.65625C141.336 5.84375 139.422 4.4375 137 4.4375C134.591 4.4375 132.677 5.84375 131.258 8.65625C130.529 10.1146 130.099 12.0938 129.969 14.5938ZM171.883 31.7812V16.2539C171.883 12.9466 171.44 10.4141 170.555 8.65625C169.122 5.84375 167.208 4.4375 164.812 4.4375C162.391 4.4375 160.477 5.84375 159.07 8.65625C158.185 10.4141 157.742 12.9466 157.742 16.2539C157.742 19.5872 158.185 22.1198 159.07 23.8516C160.229 26.1172 161.954 27.7904 164.246 28.8711L162.781 31.7812H162.586C159.76 30.8177 157.469 28.6823 155.711 25.375C154.461 23.0182 153.836 19.9779 153.836 16.2539C153.836 12.4779 154.461 9.4375 155.711 7.13281C157.885 3.1224 160.919 1.11719 164.812 1.11719C168.641 1.11719 171.648 3.07682 173.836 6.99609C176.023 3.07682 179.031 1.11719 182.859 1.11719C186.753 1.11719 189.786 3.1224 191.961 7.13281C193.211 9.4375 193.836 12.4779 193.836 16.2539C193.836 19.9779 193.211 23.0182 191.961 25.375C190.203 28.6823 187.911 30.8177 185.086 31.7812H184.891L183.426 28.8711C185.73 27.7773 187.456 26.1042 188.602 23.8516C189.487 22.1068 189.93 19.5742 189.93 16.2539C189.93 12.9466 189.487 10.4141 188.602 8.65625C187.182 5.84375 185.268 4.4375 182.859 4.4375C180.451 4.4375 178.536 5.84375 177.117 8.65625C176.232 10.4141 175.789 12.9466 175.789 16.2539V30.0234L172.078 31.7812H171.883ZM205.164 31C201.909 31 200.281 29.6068 200.281 26.8203V16.2539C200.281 12.4648 200.906 9.42448 202.156 7.13281C204.344 3.1224 207.378 1.11719 211.258 1.11719H216.492V1.3125L215.027 4.4375H211.258C208.836 4.4375 206.922 5.84375 205.516 8.65625C204.786 10.1146 204.357 12.0938 204.227 14.5938H215.32V14.7891L213.855 17.9141H204.188V26.8203C204.188 27.3932 204.513 27.6797 205.164 27.6797H212.859C214.396 27.6797 215.359 26.918 215.75 25.3945H215.945L218.875 26.7812C218.094 29.5938 216.089 31 212.859 31H205.164Z" fill="#363636"/>
</svg>
