<svg width="22" height="17" viewBox="0 0 22 17" fill="none" xmlns="http://www.w3.org/2000/svg">
<path d="M1.68937 6.59679L0.844683 7.41402L0 6.59679L0.844683 5.77956L1.68937 6.59679ZM22 15.8441C22 16.1507 21.8741 16.4447 21.6501 16.6614C21.426 16.8782 21.1221 17 20.8053 17C20.4884 17 20.1845 16.8782 19.9604 16.6614C19.7364 16.4447 19.6105 16.1507 19.6105 15.8441H22ZM6.8184 13.1936L0.844683 7.41402L2.53405 5.77956L8.50777 11.5591L6.8184 13.1936ZM0.844683 5.77956L6.8184 0L8.50777 1.63446L2.53405 7.41402L0.844683 5.77956ZM1.68937 5.44088H13.6368V7.7527H1.68937V5.44088ZM22 13.5323V15.8441H19.6105V13.5323H22ZM13.6368 5.44088C15.8549 5.44088 17.9821 6.29336 19.5505 7.81079C21.1189 9.32822 22 11.3863 22 13.5323H19.6105C19.6105 11.9994 18.9811 10.5294 17.8609 9.4455C16.7406 8.36162 15.2211 7.7527 13.6368 7.7527V5.44088Z" fill="white"/>
</svg>
