<svg width="152" height="32" viewBox="0 0 152 32" fill="none" xmlns="http://www.w3.org/2000/svg">
<path d="M0.90625 31.7812V2.48438L2.97656 1.50781H10.3789C12.3451 1.50781 14.1549 1.85286 15.8086 2.54297C18.7643 3.76693 20.2422 5.57031 20.2422 7.95312V14.5938C20.2422 16.9766 18.7643 18.7799 15.8086 20.0039C14.1549 20.694 12.3451 21.0391 10.3789 21.0391H4.8125V30.0234L1.10156 31.7812H0.90625ZM4.8125 17.5234H10.3789C11.681 17.5234 12.8789 17.3086 13.9727 16.8789C15.5482 16.2539 16.3359 15.4922 16.3359 14.5938V7.95312C16.3359 7.04167 15.5482 6.27995 13.9727 5.66797C12.8789 5.23828 11.681 5.02344 10.3789 5.02344H4.8125V17.5234ZM30.9844 17.5234H36.5508C37.8529 17.5234 39.0508 17.3086 40.1445 16.8789C41.7201 16.2539 42.5078 15.4922 42.5078 14.5938V7.95312C42.5078 7.04167 41.7201 6.27995 40.1445 5.66797C39.0508 5.23828 37.8529 5.02344 36.5508 5.02344H30.9844V17.5234ZM27.0781 31.7812V2.48438L29.1484 1.50781H36.5508C38.5169 1.50781 40.3268 1.85286 41.9805 2.54297C44.9362 3.76693 46.4141 5.57031 46.4141 7.95312V14.5938C46.4141 16.9896 44.9362 18.793 41.9805 20.0039C41.4076 20.2383 40.8151 20.4336 40.2031 20.5898L46.8828 30.1602L43.4453 31.7812H43.25L35.7305 21.0391H30.9844V30.0234L27.2734 31.7812H27.0781ZM57.625 24.9453C57.625 25.8307 58.4128 26.5924 59.9883 27.2305C61.082 27.6602 62.2799 27.875 63.582 27.875C64.8841 27.875 66.082 27.6602 67.1758 27.2305C68.7513 26.6055 69.5391 25.8438 69.5391 24.9453V7.5625C69.5391 6.67708 68.7513 5.91536 67.1758 5.27734C66.082 4.84766 64.8841 4.63281 63.582 4.63281C62.2799 4.63281 61.082 4.84766 59.9883 5.27734C58.4128 5.90234 57.625 6.66406 57.625 7.5625V24.9453ZM53.7188 24.9453C53.7188 24.9453 53.7188 19.151 53.7188 7.5625C53.7188 5.17969 55.1966 3.3763 58.1523 2.15234C59.806 1.46224 61.6159 1.11719 63.582 1.11719C65.5482 1.11719 67.3581 1.46224 69.0117 2.15234C71.9674 3.3763 73.4453 5.17969 73.4453 7.5625V24.9453C73.4453 27.3281 71.9674 29.1315 69.0117 30.3555C67.3581 31.0456 65.5482 31.3906 63.582 31.3906C61.6159 31.3906 59.806 31.0456 58.1523 30.3555C55.1966 29.1315 53.7188 27.3281 53.7188 24.9453ZM81.2578 31.7812V2.48438L83.3281 1.50781H95.7109V1.70312L94.1289 5.0625H85.1641V14.4766H95.7109V14.6719L94.1289 18.0312H85.1641V30.0234L81.4531 31.7812H81.2578ZM103.133 31.7812V2.48438L106.844 0.726562H107.039V30.0234L103.328 31.7812H103.133ZM114.852 31V2.48438L118.562 0.726562H118.758V27.4453H132.137V27.6406L130.555 31H114.852ZM133.797 31V2.48438L135.867 1.50781H148.25V1.70312L146.668 5.0625H137.703V14.4766H148.25V14.6719L146.668 18.0312H137.703V27.4453H151.512V27.6406L149.93 31H133.797Z" fill="#363636"/>
</svg>
