<svg width="147" height="38" viewBox="0 0 147 38" fill="none" xmlns="http://www.w3.org/2000/svg">
<path d="M0.6875 2.78125L5.14062 0.671875H5.375V29.7344C5.375 30.8125 6.32031 31.7266 8.21094 32.4766C9.52344 32.9922 10.9609 33.25 12.5234 33.25C14.0859 33.25 15.5234 32.9922 16.8359 32.4766C18.7266 31.7266 19.6719 30.8125 19.6719 29.7344V2.78125L24.125 0.671875H24.3594V29.7344C24.3594 32.5938 22.5859 34.7578 19.0391 36.2266C17.0547 37.0547 14.8828 37.4688 12.5234 37.4688C10.1641 37.4688 7.99219 37.0547 6.00781 36.2266C2.46094 34.7578 0.6875 32.5938 0.6875 29.7344V2.78125ZM32.7969 26.2188L37.25 24.1094H37.4844V29.7344C37.4844 30.8125 38.4297 31.7266 40.3203 32.4766C41.6328 32.9922 43.0703 33.25 44.6328 33.25C46.1953 33.25 47.6328 32.9922 48.9453 32.4766C50.8359 31.7266 51.7812 30.8125 51.7812 29.7344V22.9141C51.7812 21.8203 50.8359 20.9062 48.9453 20.1719C47.6328 19.6562 46.1953 19.3984 44.6328 19.3984C42.6484 19.3984 40.8672 19.0938 39.2891 18.4844C36.3672 17.3281 34.9062 15.7188 34.9062 13.6562V6.88281C34.9062 4.78906 36.3672 3.17969 39.2891 2.05469C40.8672 1.44531 42.6484 1.14062 44.6328 1.14062C46.6172 1.14062 48.3984 1.44531 49.9766 2.05469C52.8984 3.21094 54.3594 4.82031 54.3594 6.88281V9.88281L49.9062 11.9922H49.6719V7.70312C49.6719 6.92188 49.1797 6.33594 48.1953 5.94531C47.2266 5.55469 46.0391 5.35938 44.6328 5.35938C43.2266 5.35938 42.0312 5.55469 41.0469 5.94531C40.0781 6.33594 39.5938 6.92188 39.5938 7.70312V12.8359C39.5938 13.6172 40.0781 14.2031 41.0469 14.5938C42.0312 14.9844 43.2266 15.1797 44.6328 15.1797C46.9922 15.1797 49.1641 15.5938 51.1484 16.4219C54.6953 17.8906 56.4688 20.0547 56.4688 22.9141V29.7344C56.4688 32.5781 54.6953 34.7422 51.1484 36.2266C49.1641 37.0547 46.9922 37.4688 44.6328 37.4688C42.2734 37.4688 40.1016 37.0547 38.1172 36.2266C34.5703 34.7578 32.7969 32.5938 32.7969 29.7344V26.2188ZM64.9062 37V2.78125L67.3906 1.60938H82.25V1.84375L80.3516 5.875H69.5938V17.1719H82.25V17.4062L80.3516 21.4375H69.5938V32.7344H86.1641V32.9688L84.2656 37H64.9062ZM96.7344 20.8281H103.414C104.977 20.8281 106.414 20.5703 107.727 20.0547C109.617 19.3047 110.562 18.3906 110.562 17.3125V9.34375C110.562 8.25 109.617 7.33594 107.727 6.60156C106.414 6.08594 104.977 5.82812 103.414 5.82812H96.7344V20.8281ZM92.0469 37.9375V2.78125L94.5312 1.60938H103.414C105.773 1.60938 107.945 2.02344 109.93 2.85156C113.477 4.32031 115.25 6.48438 115.25 9.34375V17.3125C115.25 20.1875 113.477 22.3516 109.93 23.8047C109.242 24.0859 108.531 24.3203 107.797 24.5078L115.812 35.9922L111.688 37.9375H111.453L102.43 25.0469H96.7344V35.8281L92.2812 37.9375H92.0469ZM123.078 26.2188L127.531 24.1094H127.766V29.7344C127.766 30.8125 128.711 31.7266 130.602 32.4766C131.914 32.9922 133.352 33.25 134.914 33.25C136.477 33.25 137.914 32.9922 139.227 32.4766C141.117 31.7266 142.062 30.8125 142.062 29.7344V22.9141C142.062 21.8203 141.117 20.9062 139.227 20.1719C137.914 19.6562 136.477 19.3984 134.914 19.3984C132.93 19.3984 131.148 19.0938 129.57 18.4844C126.648 17.3281 125.188 15.7188 125.188 13.6562V6.88281C125.188 4.78906 126.648 3.17969 129.57 2.05469C131.148 1.44531 132.93 1.14062 134.914 1.14062C136.898 1.14062 138.68 1.44531 140.258 2.05469C143.18 3.21094 144.641 4.82031 144.641 6.88281V9.88281L140.188 11.9922H139.953V7.70312C139.953 6.92188 139.461 6.33594 138.477 5.94531C137.508 5.55469 136.32 5.35938 134.914 5.35938C133.508 5.35938 132.312 5.55469 131.328 5.94531C130.359 6.33594 129.875 6.92188 129.875 7.70312V12.8359C129.875 13.6172 130.359 14.2031 131.328 14.5938C132.312 14.9844 133.508 15.1797 134.914 15.1797C137.273 15.1797 139.445 15.5938 141.43 16.4219C144.977 17.8906 146.75 20.0547 146.75 22.9141V29.7344C146.75 32.5781 144.977 34.7422 141.43 36.2266C139.445 37.0547 137.273 37.4688 134.914 37.4688C132.555 37.4688 130.383 37.0547 128.398 36.2266C124.852 34.7578 123.078 32.5938 123.078 29.7344V26.2188Z" fill="#363636"/>
</svg>
