<svg width="252" height="35" viewBox="0 0 252 35" fill="none" xmlns="http://www.w3.org/2000/svg">
<path d="M21.9961 22.1836V27.3398C21.9961 29.9609 20.3704 31.9447 17.1191 33.291C15.3001 34.0501 13.3092 34.4297 11.1465 34.4297C8.98372 34.4297 6.99284 34.0501 5.17383 33.291C1.92253 31.9447 0.296875 29.9609 0.296875 27.3398V8.21875C0.296875 5.59766 1.92253 3.61393 5.17383 2.26758C6.99284 1.50846 8.98372 1.12891 11.1465 1.12891C13.3092 1.12891 15.3001 1.50846 17.1191 2.26758C20.3704 3.61393 21.9961 5.59766 21.9961 8.21875V11.4414L17.9141 13.375H17.6992V8.21875C17.6992 7.24479 16.8327 6.4069 15.0996 5.70508C13.8965 5.23242 12.5788 4.99609 11.1465 4.99609C9.71419 4.99609 8.39648 5.23242 7.19336 5.70508C5.46029 6.39258 4.59375 7.23047 4.59375 8.21875V27.3398C4.59375 28.3138 5.46029 29.1517 7.19336 29.8535C8.39648 30.3262 9.71419 30.5625 11.1465 30.5625C12.5788 30.5625 13.8965 30.3262 15.0996 29.8535C16.8327 29.166 17.6992 28.3281 17.6992 27.3398V24.1172L21.7812 22.1836H21.9961ZM30.5898 34.8594V8.21875C30.5898 5.59766 32.2155 3.61393 35.4668 2.26758C37.2858 1.50846 39.2767 1.12891 41.4395 1.12891C43.6022 1.12891 45.5931 1.50846 47.4121 2.26758C50.6634 3.61393 52.2891 5.59766 52.2891 8.21875C52.2891 8.21875 52.2891 16.4544 52.2891 32.9258L48.207 34.8594H47.9922V19.7344H34.8867V32.9258L30.8047 34.8594H30.5898ZM34.8867 15.8242H47.9922V8.21875C47.9922 7.23047 47.1257 6.39258 45.3926 5.70508C44.1895 5.23242 42.8717 4.99609 41.4395 4.99609C40.0072 4.99609 38.6895 5.23242 37.4863 5.70508C35.7533 6.39258 34.8867 7.23047 34.8867 8.21875V15.8242ZM62.666 34.8594V5.46875H53.4707V5.25391L55.2109 1.55859H76.1582V1.77344L74.418 5.46875H66.9629V32.9258L62.8809 34.8594H62.666ZM78.4141 34V2.63281L80.6914 1.55859H94.3125V1.77344L92.5723 5.46875H82.7109V15.8242H94.3125V16.0391L92.5723 19.7344H82.7109V30.0898H97.9004V30.3047L96.1602 34H78.4141ZM124.992 15.8242V27.3398C124.992 29.9609 123.367 31.9447 120.115 33.291C118.296 34.0501 116.305 34.4297 114.143 34.4297C111.98 34.4297 109.989 34.0501 108.17 33.291C104.919 31.9447 103.293 29.9609 103.293 27.3398V8.21875C103.293 5.59766 104.919 3.61393 108.17 2.26758C109.989 1.50846 111.98 1.12891 114.143 1.12891C116.305 1.12891 118.296 1.50846 120.115 2.26758C123.367 3.61393 124.992 5.59766 124.992 8.21875V11.4414L120.91 13.375H120.695V8.21875C120.695 7.23047 119.829 6.39258 118.096 5.70508C116.893 5.23242 115.575 4.99609 114.143 4.99609C112.71 4.99609 111.393 5.23242 110.189 5.70508C108.456 6.39258 107.59 7.23047 107.59 8.21875V27.3398C107.59 28.3281 108.456 29.166 110.189 29.8535C111.393 30.3262 112.71 30.5625 114.143 30.5625C115.575 30.5625 116.893 30.3262 118.096 29.8535C119.829 29.166 120.695 28.3281 120.695 27.3398V19.7344H113.219V19.5195L114.959 15.8242H124.992ZM137.883 27.3398C137.883 28.3138 138.749 29.1517 140.482 29.8535C141.686 30.3262 143.003 30.5625 144.436 30.5625C145.868 30.5625 147.186 30.3262 148.389 29.8535C150.122 29.166 150.988 28.3281 150.988 27.3398V8.21875C150.988 7.24479 150.122 6.4069 148.389 5.70508C147.186 5.23242 145.868 4.99609 144.436 4.99609C143.003 4.99609 141.686 5.23242 140.482 5.70508C138.749 6.39258 137.883 7.23047 137.883 8.21875V27.3398ZM133.586 27.3398C133.586 27.3398 133.586 20.9661 133.586 8.21875C133.586 5.59766 135.212 3.61393 138.463 2.26758C140.282 1.50846 142.273 1.12891 144.436 1.12891C146.598 1.12891 148.589 1.50846 150.408 2.26758C153.66 3.61393 155.285 5.59766 155.285 8.21875V27.3398C155.285 29.9609 153.66 31.9447 150.408 33.291C148.589 34.0501 146.598 34.4297 144.436 34.4297C142.273 34.4297 140.282 34.0501 138.463 33.291C135.212 31.9447 133.586 29.9609 133.586 27.3398ZM168.176 19.1758H174.299C175.731 19.1758 177.049 18.9395 178.252 18.4668C179.985 17.7793 180.852 16.9414 180.852 15.9531V8.64844C180.852 7.64583 179.985 6.80794 178.252 6.13477C177.049 5.66211 175.731 5.42578 174.299 5.42578H168.176V19.1758ZM163.879 34.8594V2.63281L166.156 1.55859H174.299C176.462 1.55859 178.452 1.93815 180.271 2.69727C183.523 4.04362 185.148 6.02734 185.148 8.64844V15.9531C185.148 18.5885 183.523 20.5723 180.271 21.9043C179.641 22.1621 178.99 22.377 178.316 22.5488L185.664 33.0762L181.883 34.8594H181.668L173.396 23.043H168.176V32.9258L164.094 34.8594H163.879ZM193.184 34.8594V2.63281L197.266 0.699219H197.48V32.9258L193.398 34.8594H193.184ZM206.074 34V2.63281L208.352 1.55859H221.973V1.77344L220.232 5.46875H210.371V15.8242H221.973V16.0391L220.232 19.7344H210.371V30.0898H225.561V30.3047L223.82 34H206.074ZM230.094 24.1172L234.176 22.1836H234.391V27.3398C234.391 28.3281 235.257 29.166 236.99 29.8535C238.193 30.3262 239.511 30.5625 240.943 30.5625C242.376 30.5625 243.693 30.3262 244.896 29.8535C246.63 29.166 247.496 28.3281 247.496 27.3398V21.0879C247.496 20.0853 246.63 19.2474 244.896 18.5742C243.693 18.1016 242.376 17.8652 240.943 17.8652C239.124 17.8652 237.492 17.5859 236.045 17.0273C233.367 15.9674 232.027 14.4922 232.027 12.6016V6.39258C232.027 4.47331 233.367 2.99805 236.045 1.9668C237.492 1.4082 239.124 1.12891 240.943 1.12891C242.762 1.12891 244.395 1.4082 245.842 1.9668C248.52 3.02669 249.859 4.50195 249.859 6.39258V9.14258L245.777 11.0762H245.562V7.14453C245.562 6.42839 245.111 5.89128 244.209 5.5332C243.321 5.17513 242.232 4.99609 240.943 4.99609C239.654 4.99609 238.559 5.17513 237.656 5.5332C236.768 5.89128 236.324 6.42839 236.324 7.14453V11.8496C236.324 12.5658 236.768 13.1029 237.656 13.4609C238.559 13.819 239.654 13.998 240.943 13.998C243.106 13.998 245.097 14.3776 246.916 15.1367C250.167 16.4831 251.793 18.4668 251.793 21.0879V27.3398C251.793 29.9466 250.167 31.9303 246.916 33.291C245.097 34.0501 243.106 34.4297 240.943 34.4297C238.781 34.4297 236.79 34.0501 234.971 33.291C231.719 31.9447 230.094 29.9609 230.094 27.3398V24.1172Z" fill="#363636"/>
</svg>
