<svg width="328" height="32" viewBox="0 0 328 32" fill="none" xmlns="http://www.w3.org/2000/svg">
<path d="M5.39844 31C2.14323 31 0.515625 29.6068 0.515625 26.8203V16.2539C0.515625 12.4648 1.14062 9.42448 2.39062 7.13281C4.57812 3.1224 7.61198 1.11719 11.4922 1.11719H16.7266V1.3125L15.2617 4.4375H11.4922C9.07031 4.4375 7.15625 5.84375 5.75 8.65625C5.02083 10.1146 4.59115 12.0938 4.46094 14.5938H15.5547V14.7891L14.0898 17.9141H4.42188V26.8203C4.42188 27.3932 4.7474 27.6797 5.39844 27.6797H13.0938C14.6302 27.6797 15.5938 26.918 15.9844 25.3945H16.1797L19.1094 26.7812C18.3281 29.5938 16.3229 31 13.0938 31H5.39844ZM28.4844 31C25.2292 31 23.6016 29.6068 23.6016 26.8203V16.2539C23.6016 12.4648 24.2266 9.42448 25.4766 7.13281C27.6641 3.1224 30.6979 1.11719 34.5781 1.11719C38.4714 1.11719 41.5052 3.1224 43.6797 7.13281C44.9297 9.42448 45.5547 12.4648 45.5547 16.2539C45.5547 19.5221 44.9167 22.3932 43.6406 24.8672C41.5312 28.9557 38.5104 31 34.5781 31H28.4844ZM34.5781 27.6797C37.013 27.6797 38.9141 26.2344 40.2812 23.3438C41.1927 21.4167 41.6484 19.0534 41.6484 16.2539C41.6484 12.9596 41.2057 10.4271 40.3203 8.65625C38.9141 5.84375 37 4.4375 34.5781 4.4375C32.1693 4.4375 30.2552 5.84375 28.8359 8.65625C27.9505 10.401 27.5078 12.9336 27.5078 16.2539V26.8203C27.5078 27.3932 27.8333 27.6797 28.4844 27.6797H34.5781ZM52.3906 31.7812V2.48438L56.1016 0.726562H56.2969V30.0234L52.5859 31.7812H52.3906ZM66.707 31.7812L66.7266 4.82812H64.3633C62.8138 4.82812 61.8503 5.58984 61.4727 7.11328H61.2773L58.3477 5.72656C59.1159 2.91406 61.1211 1.50781 64.3633 1.50781H78.9727V1.70312L77.5078 4.82812H70.6328L70.6133 30.0234L66.9023 31.7812H66.707ZM119.031 21.7422C118.784 22.9922 118.341 24.2031 117.703 25.375C115.516 29.3854 112.482 31.3906 108.602 31.3906C104.721 31.3906 101.688 29.3854 99.5 25.375C98.25 23.0833 97.625 20.043 97.625 16.2539C97.625 12.4648 98.25 9.42448 99.5 7.13281C101.688 3.1224 104.721 1.11719 108.602 1.11719C112.495 1.11719 115.529 3.1224 117.703 7.13281L114.539 8.65625H114.344C112.938 5.84375 111.023 4.4375 108.602 4.4375C106.193 4.4375 104.279 5.84375 102.859 8.65625C101.974 10.4141 101.531 12.9466 101.531 16.2539C101.531 19.6003 101.974 22.1328 102.859 23.8516C104.305 26.6641 106.219 28.0703 108.602 28.0703C111.01 28.0703 112.924 26.6641 114.344 23.8516L118.836 21.7422H119.031ZM124.891 31.7812V16.2539C124.891 12.4648 125.516 9.42448 126.766 7.13281C128.953 3.1224 131.987 1.11719 135.867 1.11719C139.76 1.11719 142.794 3.1224 144.969 7.13281C146.219 9.4375 146.844 12.4779 146.844 16.2539C146.844 19.9779 146.219 23.0182 144.969 25.375C143.211 28.6823 140.919 30.8177 138.094 31.7812H137.898L136.434 28.8711C138.751 27.7773 140.477 26.1042 141.609 23.8516C142.339 22.4062 142.768 20.4271 142.898 17.9141H128.797V30.0234L125.086 31.7812H124.891ZM128.836 14.5938H142.898C142.768 12.0938 142.339 10.1146 141.609 8.65625C140.203 5.84375 138.289 4.4375 135.867 4.4375C133.458 4.4375 131.544 5.84375 130.125 8.65625C129.396 10.1146 128.966 12.0938 128.836 14.5938ZM155.301 31.7812L155.32 4.82812H152.957C151.408 4.82812 150.444 5.58984 150.066 7.11328H149.871L146.941 5.72656C147.71 2.91406 149.715 1.50781 152.957 1.50781H167.566V1.70312L166.102 4.82812H159.227L159.207 30.0234L155.496 31.7812H155.301ZM173.133 31C169.878 31 168.25 29.6068 168.25 26.8203V16.2539C168.25 12.4648 168.875 9.42448 170.125 7.13281C172.312 3.1224 175.346 1.11719 179.227 1.11719H184.461V1.3125L182.996 4.4375H179.227C176.805 4.4375 174.891 5.84375 173.484 8.65625C172.755 10.1146 172.326 12.0938 172.195 14.5938H183.289V14.7891L181.824 17.9141H172.156V26.8203C172.156 27.3932 172.482 27.6797 173.133 27.6797H180.828C182.365 27.6797 183.328 26.918 183.719 25.3945H183.914L186.844 26.7812C186.062 29.5938 184.057 31 180.828 31H173.133ZM212.703 14.5938V16.2539C212.703 20.043 212.078 23.0833 210.828 25.375C208.654 29.3854 205.62 31.3906 201.727 31.3906C197.846 31.3906 194.812 29.3854 192.625 25.375C191.375 23.0833 190.75 20.043 190.75 16.2539C190.75 12.4648 191.375 9.42448 192.625 7.13281C194.812 3.1224 197.846 1.11719 201.727 1.11719C205.62 1.11719 208.654 3.1224 210.828 7.13281L207.664 8.65625H207.469C206.062 5.84375 204.148 4.4375 201.727 4.4375C199.331 4.4375 197.417 5.84375 195.984 8.65625C195.099 10.4141 194.656 12.9466 194.656 16.2539C194.656 19.6003 195.099 22.1328 195.984 23.8516C197.43 26.6641 199.344 28.0703 201.727 28.0703C204.135 28.0703 206.049 26.6641 207.469 23.8516C208.198 22.3932 208.628 20.4141 208.758 17.9141H201.395V17.7188L202.859 14.5938H212.703ZM222.469 16.2539C222.469 19.6003 222.911 22.1328 223.797 23.8516C225.242 26.6641 227.156 28.0703 229.539 28.0703C231.948 28.0703 233.862 26.6641 235.281 23.8516C236.167 22.0938 236.609 19.5612 236.609 16.2539C236.609 12.9466 236.167 10.4141 235.281 8.65625C233.875 5.84375 231.961 4.4375 229.539 4.4375C227.13 4.4375 225.216 5.84375 223.797 8.65625C222.911 10.4141 222.469 12.9466 222.469 16.2539ZM220.438 25.375C219.188 23.0833 218.562 20.043 218.562 16.2539C218.562 12.4648 219.188 9.42448 220.438 7.13281C222.625 3.1224 225.659 1.11719 229.539 1.11719C233.432 1.11719 236.466 3.1224 238.641 7.13281C239.891 9.4375 240.516 12.4779 240.516 16.2539C240.516 20.043 239.891 23.0833 238.641 25.375C236.466 29.3854 233.432 31.3906 229.539 31.3906C225.659 31.3906 222.625 29.3854 220.438 25.375ZM250.867 17.9141H256.961C259.409 17.9141 261.16 17.3151 262.215 16.1172C263.426 14.737 264.031 13.1549 264.031 11.3711C264.031 9.26172 263.406 7.55599 262.156 6.25391C260.984 5.04297 259.578 4.4375 257.938 4.4375C255.542 4.4375 253.628 5.84375 252.195 8.65625C251.31 10.401 250.867 12.9336 250.867 16.2539V17.9141ZM246.961 31.7812V16.2539C246.961 12.4648 247.586 9.42448 248.836 7.13281C251.023 3.1224 254.057 1.11719 257.938 1.11719C261.18 1.11719 263.738 2.3151 265.613 4.71094C267.163 6.6901 267.938 8.91016 267.938 11.3711C267.938 13.6107 267.15 15.7005 265.574 17.6406C264.559 18.8906 263.296 19.8151 261.785 20.4141L268.602 30.1602L265.164 31.7812H264.969L257.605 21.2344H250.867V30.0234L247.156 31.7812H246.961ZM275.438 31.7812V2.48438L279.148 0.726562H279.344V30.0234L275.633 31.7812H275.438ZM291.648 31C288.393 31 286.766 29.6068 286.766 26.8203V16.2539C286.766 12.4648 287.391 9.42448 288.641 7.13281C290.828 3.1224 293.862 1.11719 297.742 1.11719H302.977V1.3125L301.512 4.4375H297.742C295.32 4.4375 293.406 5.84375 292 8.65625C291.271 10.1146 290.841 12.0938 290.711 14.5938H301.805V14.7891L300.34 17.9141H290.672V26.8203C290.672 27.3932 290.997 27.6797 291.648 27.6797H299.344C300.88 27.6797 301.844 26.918 302.234 25.3945H302.43L305.359 26.7812C304.578 29.5938 302.573 31 299.344 31H291.648ZM308.68 25.375C308.68 25.375 309.734 24.8672 311.844 23.8516H312.039C313.445 26.6641 315.359 28.0703 317.781 28.0703C319.448 28.0703 320.939 27.3216 322.254 25.8242C323.204 24.7305 323.68 23.3438 323.68 21.6641C323.68 20.362 323.263 19.2682 322.43 18.3828C321.466 17.3542 320.034 16.638 318.133 16.2344C316.154 15.8307 314.428 15.1016 312.957 14.0469C311.16 12.7448 310.262 11.026 310.262 8.89062C310.262 6.54688 311.102 4.61979 312.781 3.10938C314.24 1.78125 316.102 1.11719 318.367 1.11719C321.284 1.11719 323.549 2.60156 325.164 5.57031L322.078 7.03516H321.883C321.01 5.30339 319.839 4.4375 318.367 4.4375C317.117 4.45052 316.108 4.84766 315.34 5.62891C314.559 6.42318 314.168 7.41276 314.168 8.59766C314.168 9.63932 314.513 10.4596 315.203 11.0586C316.076 11.8138 317.423 12.3737 319.246 12.7383C321.681 13.207 323.686 14.2227 325.262 15.7852C326.837 17.3607 327.625 19.3594 327.625 21.7812C327.625 24.2552 326.688 26.4688 324.812 28.4219C322.951 30.401 320.607 31.3906 317.781 31.3906C313.888 31.3906 310.854 29.3854 308.68 25.375Z" fill="#363636"/>
</svg>
