<svg width="193" height="32" viewBox="0 0 193 32" fill="none" xmlns="http://www.w3.org/2000/svg">
<path d="M0.90625 31V2.48438L2.97656 1.50781H15.3594V1.70312L13.7773 5.0625H4.8125V14.4766H15.3594V14.6719L13.7773 18.0312H4.8125V27.4453H18.6211V27.6406L17.0391 31H0.90625ZM27.4297 27.4844H32.9961C34.2982 27.4844 35.4961 27.2695 36.5898 26.8398C38.1654 26.2148 38.9531 25.4531 38.9531 24.5547V7.95312C38.9531 7.05469 38.1654 6.29297 36.5898 5.66797C35.5091 5.23828 34.3112 5.02344 32.9961 5.02344H27.4297V27.4844ZM23.5234 31V2.48438L25.5938 1.50781H32.9961C34.9622 1.50781 36.7721 1.85286 38.4258 2.54297C41.3815 3.76693 42.8594 5.57031 42.8594 7.95312V24.5547C42.8594 26.9375 41.3815 28.7409 38.4258 29.9648C36.7721 30.6549 34.9622 31 32.9961 31H23.5234ZM50.6719 31.7812V2.48438L54.3828 0.726562H54.5781V30.0234L50.8672 31.7812H50.6719ZM64.9883 31.7812V5.0625H56.6289V4.86719L58.2109 1.50781H77.2539V1.70312L75.6719 5.0625H68.8945V30.0234L65.1836 31.7812H64.9883ZM96.8828 2.48438L100.594 0.726562H100.789V24.9453C100.789 25.8438 101.577 26.6055 103.152 27.2305C104.246 27.6602 105.444 27.875 106.746 27.875C108.048 27.875 109.246 27.6602 110.34 27.2305C111.915 26.6055 112.703 25.8438 112.703 24.9453V2.48438L116.414 0.726562H116.609V24.9453C116.609 27.3281 115.132 29.1315 112.176 30.3555C110.522 31.0456 108.712 31.3906 106.746 31.3906C104.78 31.3906 102.97 31.0456 101.316 30.3555C98.3607 29.1315 96.8828 27.3281 96.8828 24.9453V2.48438ZM123.641 22.0156L127.352 20.2578H127.547V24.9453C127.547 25.8438 128.335 26.6055 129.91 27.2305C131.004 27.6602 132.202 27.875 133.504 27.875C134.806 27.875 136.004 27.6602 137.098 27.2305C138.673 26.6055 139.461 25.8438 139.461 24.9453V19.2617C139.461 18.3503 138.673 17.5885 137.098 16.9766C136.004 16.5469 134.806 16.332 133.504 16.332C131.85 16.332 130.366 16.0781 129.051 15.5703C126.616 14.6068 125.398 13.2656 125.398 11.5469V5.90234C125.398 4.15755 126.616 2.81641 129.051 1.87891C130.366 1.37109 131.85 1.11719 133.504 1.11719C135.158 1.11719 136.642 1.37109 137.957 1.87891C140.392 2.84245 141.609 4.18359 141.609 5.90234V8.40234L137.898 10.1602H137.703V6.58594C137.703 5.9349 137.293 5.44661 136.473 5.12109C135.665 4.79557 134.676 4.63281 133.504 4.63281C132.332 4.63281 131.336 4.79557 130.516 5.12109C129.708 5.44661 129.305 5.9349 129.305 6.58594V10.8633C129.305 11.5143 129.708 12.0026 130.516 12.3281C131.336 12.6536 132.332 12.8164 133.504 12.8164C135.47 12.8164 137.28 13.1615 138.934 13.8516C141.889 15.0755 143.367 16.8789 143.367 19.2617V24.9453C143.367 27.3151 141.889 29.1185 138.934 30.3555C137.28 31.0456 135.47 31.3906 133.504 31.3906C131.538 31.3906 129.728 31.0456 128.074 30.3555C125.118 29.1315 123.641 27.3281 123.641 24.9453V22.0156ZM150.398 31V2.48438L152.469 1.50781H164.852V1.70312L163.27 5.0625H154.305V14.4766H164.852V14.6719L163.27 18.0312H154.305V27.4453H168.113V27.6406L166.531 31H150.398ZM176.922 17.5234H182.488C183.79 17.5234 184.988 17.3086 186.082 16.8789C187.658 16.2539 188.445 15.4922 188.445 14.5938V7.95312C188.445 7.04167 187.658 6.27995 186.082 5.66797C184.988 5.23828 183.79 5.02344 182.488 5.02344H176.922V17.5234ZM173.016 31.7812V2.48438L175.086 1.50781H182.488C184.454 1.50781 186.264 1.85286 187.918 2.54297C190.874 3.76693 192.352 5.57031 192.352 7.95312V14.5938C192.352 16.9896 190.874 18.793 187.918 20.0039C187.345 20.2383 186.753 20.4336 186.141 20.5898L192.82 30.1602L189.383 31.7812H189.188L181.668 21.0391H176.922V30.0234L173.211 31.7812H173.016Z" fill="#363636"/>
</svg>
