<svg width="45" height="45" viewBox="0 0 45 45" fill="none" xmlns="http://www.w3.org/2000/svg">
<circle cx="22.5" cy="22.5" r="22.5" fill="#FFE194"/>
<path fill-rule="evenodd" clip-rule="evenodd" d="M23.0367 13.7493H14.0833C12.5179 13.7493 11.25 15.0937 11.25 16.7498V31.7495C11.25 33.407 12.5179 34.75 14.0833 34.75H29.6667C31.2321 34.75 32.5 33.407 32.5 31.7495V20.7703L26.9552 26.641C26.471 27.1588 25.8404 27.5166 25.1475 27.6667L21.3494 28.4713C18.8702 28.9955 16.6857 26.6821 17.1816 24.0584L17.9409 20.0365C18.0783 19.3112 18.4155 18.6439 18.9099 18.1212L23.0367 13.7493Z" fill="#699BF7"/>
<path fill-rule="evenodd" clip-rule="evenodd" d="M35.1151 11.1172C34.9719 10.7545 34.7619 10.422 34.4961 10.1368C34.2346 9.85792 33.9195 9.6348 33.5696 9.4809C33.2248 9.32951 32.8524 9.25134 32.4759 9.25134C32.0994 9.25134 31.727 9.32951 31.3822 9.4809C31.0323 9.6348 30.7172 9.85792 30.4557 10.1368L29.6822 10.9557L33.7226 15.234L34.4961 14.4137C34.7647 14.1307 34.9751 13.7976 35.1151 13.4334C35.407 12.6889 35.407 11.8617 35.1151 11.1172ZM31.7208 17.3547L27.6791 13.075L20.9116 20.2433C20.8118 20.3497 20.7445 20.4824 20.7176 20.6258L19.9582 24.6492C19.8591 25.1733 20.2968 25.6352 20.7912 25.5303L24.5907 24.7271C24.729 24.6963 24.8548 24.6247 24.952 24.5217L31.7208 17.3547Z" fill="#699BF7"/>
</svg>
