<svg width="50" height="50" viewBox="0 0 50 50" fill="none" xmlns="http://www.w3.org/2000/svg">
<g clip-path="url(#clip0_74_333)">
<path d="M25 50C11.1914 50 0 38.8086 0 25C0 11.1914 11.1914 0 25 0C38.8086 0 50 11.1914 50 25C50 38.8086 38.8086 50 25 50ZM39.5801 22.9199C39.5801 21.7676 38.6523 20.8398 37.5 20.8398H29.1699V12.5C29.1699 11.3477 28.2422 10.4199 27.0898 10.4199H22.9199C21.7676 10.4199 20.8398 11.3574 20.8398 12.5V20.8301H12.5C11.3477 20.8301 10.4199 21.7676 10.4199 22.9102V27.0801C10.4199 28.2324 11.3477 29.1602 12.5 29.1602H20.8301V37.5C20.8301 38.6523 21.7578 39.5801 22.9102 39.5801H27.0801C28.2324 39.5801 29.1602 38.6426 29.1602 37.5V29.1699H37.5C38.6523 29.1699 39.5801 28.2324 39.5801 27.0898V22.9199Z" fill="#052D26"/>
</g>
<defs>
<clipPath id="clip0_74_333">
<rect width="50" height="50" fill="white" transform="matrix(1 0 0 -1 0 50)"/>
</clipPath>
</defs>
</svg>
