<svg width="274" height="47" viewBox="0 0 274 47" fill="none" xmlns="http://www.w3.org/2000/svg">
<path fill-rule="evenodd" clip-rule="evenodd" d="M23.5 0C10.5213 0 0 10.5213 0 23.5C0 36.4787 10.5213 47 23.5 47H250.5C263.479 47 274 36.4787 274 23.5C274 10.5213 263.479 0 250.5 0H23.5ZM24.5 4C13.7304 4 5 12.7304 5 23.5C5 34.2696 13.7304 43 24.5 43H249.5C260.27 43 269 34.2696 269 23.5C269 12.7304 260.27 4 249.5 4H24.5Z" fill="#4C4C6D"/>
<path d="M244.232 35C243.462 36.3333 241.538 36.3333 240.768 35L229.943 16.25C229.173 14.9167 230.135 13.25 231.675 13.25L253.325 13.25C254.865 13.25 255.827 14.9167 255.057 16.25L244.232 35Z" fill="#22134A"/>
<path d="M35.6 32.175C34.4333 32.175 33.3833 31.975 32.45 31.575C31.5167 31.1583 30.7833 30.575 30.25 29.825C29.7167 29.075 29.45 28.2 29.45 27.2H32.5C32.5667 27.95 32.8583 28.5667 33.375 29.05C33.9083 29.5333 34.65 29.775 35.6 29.775C36.5833 29.775 37.35 29.5417 37.9 29.075C38.45 28.5917 38.725 27.975 38.725 27.225C38.725 26.6417 38.55 26.1667 38.2 25.8C37.8667 25.4333 37.4417 25.15 36.925 24.95C36.425 24.75 35.725 24.5333 34.825 24.3C33.6917 24 32.7667 23.7 32.05 23.4C31.35 23.0833 30.75 22.6 30.25 21.95C29.75 21.3 29.5 20.4333 29.5 19.35C29.5 18.35 29.75 17.475 30.25 16.725C30.75 15.975 31.45 15.4 32.35 15C33.25 14.6 34.2917 14.4 35.475 14.4C37.1583 14.4 38.5333 14.825 39.6 15.675C40.6833 16.5083 41.2833 17.6583 41.4 19.125H38.25C38.2 18.4917 37.9 17.95 37.35 17.5C36.8 17.05 36.075 16.825 35.175 16.825C34.3583 16.825 33.6917 17.0333 33.175 17.45C32.6583 17.8667 32.4 18.4667 32.4 19.25C32.4 19.7833 32.5583 20.225 32.875 20.575C33.2083 20.9083 33.625 21.175 34.125 21.375C34.625 21.575 35.3083 21.7917 36.175 22.025C37.325 22.3417 38.2583 22.6583 38.975 22.975C39.7083 23.2917 40.325 23.7833 40.825 24.45C41.3417 25.1 41.6 25.975 41.6 27.075C41.6 27.9583 41.3583 28.7917 40.875 29.575C40.4083 30.3583 39.7167 30.9917 38.8 31.475C37.9 31.9417 36.8333 32.175 35.6 32.175ZM57.5879 24.775C57.5879 25.2917 57.5546 25.7583 57.4879 26.175H46.9629C47.0462 27.275 47.4546 28.1583 48.1879 28.825C48.9212 29.4917 49.8212 29.825 50.8879 29.825C52.4212 29.825 53.5046 29.1833 54.1379 27.9H57.2129C56.7962 29.1667 56.0379 30.2083 54.9379 31.025C53.8546 31.825 52.5046 32.225 50.8879 32.225C49.5712 32.225 48.3879 31.9333 47.3379 31.35C46.3046 30.75 45.4879 29.9167 44.8879 28.85C44.3046 27.7667 44.0129 26.5167 44.0129 25.1C44.0129 23.6833 44.2962 22.4417 44.8629 21.375C45.4462 20.2917 46.2546 19.4583 47.2879 18.875C48.3379 18.2917 49.5379 18 50.8879 18C52.1879 18 53.3462 18.2833 54.3629 18.85C55.3796 19.4167 56.1712 20.2167 56.7379 21.25C57.3046 22.2667 57.5879 23.4417 57.5879 24.775ZM54.6129 23.875C54.5962 22.825 54.2212 21.9833 53.4879 21.35C52.7546 20.7167 51.8462 20.4 50.7629 20.4C49.7796 20.4 48.9379 20.7167 48.2379 21.35C47.5379 21.9667 47.1212 22.8083 46.9879 23.875H54.6129ZM59.4426 25.05C59.4426 23.6667 59.7259 22.4417 60.2926 21.375C60.8759 20.3083 61.6592 19.4833 62.6426 18.9C63.6426 18.3 64.7426 18 65.9426 18C67.0259 18 67.9676 18.2167 68.7676 18.65C69.5842 19.0667 70.2342 19.5917 70.7176 20.225V18.225H73.5926V32H70.7176V29.95C70.2342 30.6 69.5759 31.1417 68.7426 31.575C67.9092 32.0083 66.9592 32.225 65.8926 32.225C64.7092 32.225 63.6259 31.925 62.6426 31.325C61.6592 30.7083 60.8759 29.8583 60.2926 28.775C59.7259 27.675 59.4426 26.4333 59.4426 25.05ZM70.7176 25.1C70.7176 24.15 70.5176 23.325 70.1176 22.625C69.7342 21.925 69.2259 21.3917 68.5926 21.025C67.9592 20.6583 67.2759 20.475 66.5426 20.475C65.8092 20.475 65.1259 20.6583 64.4926 21.025C63.8592 21.375 63.3426 21.9 62.9426 22.6C62.5592 23.2833 62.3676 24.1 62.3676 25.05C62.3676 26 62.5592 26.8333 62.9426 27.55C63.3426 28.2667 63.8592 28.8167 64.4926 29.2C65.1426 29.5667 65.8259 29.75 66.5426 29.75C67.2759 29.75 67.9592 29.5667 68.5926 29.2C69.2259 28.8333 69.7342 28.3 70.1176 27.6C70.5176 26.8833 70.7176 26.05 70.7176 25.1ZM80.1859 20.225C80.6026 19.525 81.1526 18.9833 81.8359 18.6C82.5359 18.2 83.3609 18 84.3109 18V20.95H83.5859C82.4693 20.95 81.6193 21.2333 81.0359 21.8C80.4693 22.3667 80.1859 23.35 80.1859 24.75V32H77.3359V18.225H80.1859V20.225ZM85.9807 25.1C85.9807 23.6833 86.264 22.4417 86.8307 21.375C87.414 20.2917 88.214 19.4583 89.2307 18.875C90.2473 18.2917 91.414 18 92.7307 18C94.3973 18 95.7723 18.4 96.8557 19.2C97.9557 19.9833 98.6973 21.1083 99.0807 22.575H96.0057C95.7557 21.8917 95.3557 21.3583 94.8057 20.975C94.2557 20.5917 93.564 20.4 92.7307 20.4C91.564 20.4 90.6307 20.8167 89.9307 21.65C89.2473 22.4667 88.9057 23.6167 88.9057 25.1C88.9057 26.5833 89.2473 27.7417 89.9307 28.575C90.6307 29.4083 91.564 29.825 92.7307 29.825C94.3807 29.825 95.4723 29.1 96.0057 27.65H99.0807C98.6807 29.05 97.9307 30.1667 96.8307 31C95.7307 31.8167 94.364 32.225 92.7307 32.225C91.414 32.225 90.2473 31.9333 89.2307 31.35C88.214 30.75 87.414 29.9167 86.8307 28.85C86.264 27.7667 85.9807 26.5167 85.9807 25.1ZM109.046 18C110.096 18 111.029 18.225 111.846 18.675C112.679 19.125 113.329 19.7917 113.796 20.675C114.279 21.5583 114.521 22.625 114.521 23.875V32H111.696V24.3C111.696 23.0667 111.388 22.125 110.771 21.475C110.154 20.8083 109.313 20.475 108.246 20.475C107.179 20.475 106.329 20.8083 105.696 21.475C105.079 22.125 104.771 23.0667 104.771 24.3V32H101.921V13.5H104.771V19.825C105.254 19.2417 105.863 18.7917 106.596 18.475C107.346 18.1583 108.163 18 109.046 18Z" fill="#B8B8B8"/>
</svg>
