<svg width="37" height="30" viewBox="0 0 37 30" fill="none" xmlns="http://www.w3.org/2000/svg">
<path d="M31.7797 23.7047C30.4901 26.6482 22.8533 26.1465 14.7224 22.5842C6.59143 19.0219 1.04541 13.748 2.33497 10.8045C3.62453 7.86113 12.364 6.64698 20.495 10.2093C28.6259 13.7716 33.0692 20.7613 31.7797 23.7047Z" fill="#295766"/>
<path d="M27.7239 16.5014C28.0604 15.7334 28.1693 14.8746 28.0444 13.9741C27.9195 13.0735 27.5632 12.1489 26.9958 11.253C26.4285 10.3571 25.6612 9.50749 24.7378 8.75261C23.8145 7.99772 22.7531 7.35239 21.6142 6.85345C20.4754 6.35451 19.2814 6.01173 18.1005 5.84469C16.9196 5.67765 15.7749 5.68962 14.7317 5.8799C13.6884 6.07019 12.7672 6.43508 12.0205 6.95373C11.2738 7.47238 10.7332 8.09598 10.3798 8.90268L11.7281 10.2146C11.7281 10.2146 13.3176 11.2541 14.3749 11.8549C15.8719 12.7057 18.32 13.8238 18.32 13.8238C18.32 13.8238 21.0412 14.9905 22.8453 15.5659C24.0038 15.9355 25.8455 16.3996 25.8455 16.3996L27.7239 16.5014Z" fill="#343232"/>
<path d="M27.9006 16.0981C28.2371 15.33 28.346 14.4712 28.2211 13.5707C28.0962 12.6702 27.7399 11.7456 27.1725 10.8497C26.6052 9.95378 25.8379 9.10414 24.9145 8.34925C23.9912 7.59437 22.9298 6.94904 21.7909 6.4501C20.6521 5.95116 19.4581 5.60838 18.2772 5.44134C17.0963 5.2743 15.9516 5.28626 14.9084 5.47655C13.8651 5.66684 12.9439 6.03173 12.1972 6.55038C11.4505 7.06903 10.9099 7.69263 10.5565 8.49933L11.9048 9.81122C11.9048 9.81122 13.4943 10.8508 14.5516 11.4516C16.0486 12.3023 18.4967 13.4204 18.4967 13.4204C18.4967 13.4204 21.2179 14.5872 23.022 15.1626C24.1805 15.5321 26.0222 15.9962 26.0222 15.9962L27.9006 16.0981Z" fill="#6FD6C3" fill-opacity="0.65"/>
<ellipse cx="8.43592" cy="13.3395" rx="0.880729" ry="0.660547" transform="rotate(23.659 8.43592 13.3395)" fill="#D9D9D9"/>
<ellipse cx="13.5527" cy="17.0236" rx="0.880729" ry="0.660547" transform="rotate(23.659 13.5527 17.0236)" fill="#D9D9D9"/>
<ellipse cx="25.7801" cy="20.9383" rx="0.880729" ry="0.660547" transform="rotate(23.659 25.7801 20.9383)" fill="#D9D9D9"/>
<ellipse cx="19.603" cy="19.6743" rx="0.880729" ry="0.660547" transform="rotate(23.659 19.603 19.6743)" fill="#D9D9D9"/>
<ellipse cx="25.4065" cy="10.9187" rx="1.43309" ry="0.630275" transform="rotate(57.4674 25.4065 10.9187)" fill="white"/>
</svg>
